<svg width="95" height="131" viewBox="0 0 95 131" fill="none" xmlns="http://www.w3.org/2000/svg">
<path d="M61.6107 101.668C60.108 99.4453 58.6053 97.2227 56.8227 94.5867C56.0333 99.0907 59.5867 99.9147 61.6107 101.668ZM42.0507 94.7107C39.2853 98.088 36.9587 100.929 34.4667 103.973C38.68 103.552 41.46 100.281 42.0507 94.7107ZM71.944 127.124C74.4 125.084 76.4387 123.389 78.736 121.48C72.7653 119.605 71.2667 120.852 71.944 127.124ZM7.772 104.289C7.81867 104.472 7.864 104.653 7.91067 104.836C11.436 104.836 14.9627 104.849 18.488 104.832C21.076 104.819 22.0067 106.077 21.4347 108.555C21.2573 109.321 21.1067 110.095 20.944 110.865C22.2613 109.736 23.2987 108.427 23.684 106.949C23.872 106.225 22.88 104.428 22.368 104.408C17.5093 104.209 12.6387 104.289 7.772 104.289ZM43.6947 95.9253C43.356 96.5587 43.104 96.9693 42.908 97.4053C41.1333 101.365 39.064 104.905 34.0693 105.448C33.1787 105.545 32.4213 106.88 31.6027 107.644C40.6253 105.383 45.648 101.365 43.6947 95.9253ZM71.5093 109.129C71.4373 109.473 71.3667 109.816 71.296 110.16C75.188 111.516 79.0813 112.871 83.1707 114.297V110.145C79.2027 109.801 75.3573 109.465 71.5093 109.129ZM84.2893 105.929C80.6933 105.376 77.068 104.968 73.508 104.235C68.848 103.272 64.16 102.259 62.0013 97.0747C61.708 96.3733 60.36 96.1133 59.4987 95.648C64.9293 106.193 74.8227 105.511 84.2893 105.929ZM49.0973 111.897C49.3107 110.536 49.3653 109.128 49.768 107.824C50.6107 105.095 51.3187 102.24 52.712 99.7973C53.476 98.4573 55.388 97.8893 54.5773 95.7053C54.004 94.1653 53.8053 92.484 53.4413 90.8653C53.2773 98.3227 46.8387 104.245 49.0973 111.897ZM50.2547 118.872C51.1733 113.883 49.0733 107.724 56.3053 105.393C55.9027 103.607 55.496 101.801 55.0893 99.9933C54.716 99.972 54.344 99.9493 53.9707 99.9253C49.1533 105.436 50.424 112.36 50.2547 118.872ZM36.3053 98.5387H20.3333C20.3453 98.8053 20.3573 99.0733 20.368 99.34C23.0413 99.4733 25.8907 99.0653 28.3467 99.8653C32.1173 101.095 29.5893 104.247 29.376 107.211C32.0493 103.865 34.3267 101.016 36.3053 98.5387ZM63.5573 103.501C66.2627 107.008 69.86 108.897 74.7973 108.317C77.0773 108.049 79.4733 108.985 81.8307 109.076C82.7293 109.109 83.6613 108.303 84.5787 107.879C84.4293 107.596 84.2813 107.313 84.132 107.031C80.592 106.773 77.008 106.781 73.5267 106.183C70.084 105.589 66.7493 104.385 63.5573 103.501ZM59.608 125.709C59.796 121.944 58.0053 119.497 55.2827 119.484C52.4867 119.472 50.6493 122.371 51.112 126.512C53.952 126.244 56.8 125.975 59.608 125.709ZM25.8227 96.7813C33.344 99.5733 38.172 94.648 43.916 92.3467C42.8427 91.7213 41.4867 90.948 40.5013 91.2787C35.74 92.88 31.0787 94.7773 25.8227 96.7813ZM20.1747 124.299C21.1853 125.816 22.0707 128.401 23.1 128.459C26.084 128.627 29.1267 127.781 32.6373 127.261C29.2493 122.879 25.508 122.081 20.1747 124.299ZM27.9987 111.752C38.208 107.744 38.208 107.744 41.3053 112.663C42.6453 108.847 46.86 106.289 45.252 102.247C39.4773 105.427 33.7373 108.589 27.9987 111.752ZM84.572 103.547C77.6 101.352 70.6293 99.156 63.144 96.7987C65.896 102.145 73.496 104.557 84.572 103.547ZM92.8907 110.247C92.8707 108.641 93.696 106.624 90.772 106.619C87.404 106.612 85.304 108.505 85.2667 111.952C85.2507 113.392 85.0093 115.131 87.3853 115.119C91.928 115.096 92.748 114.403 92.8907 110.247ZM51.112 117.872H58.652C58.0707 114.745 57.58 111.68 56.876 108.664C56.7213 107.999 55.836 107.083 55.248 107.052C54.592 107.02 53.452 107.747 53.2853 108.351C52.4307 111.471 51.82 114.656 51.112 117.872ZM24.4693 116.135L25.0533 117.032C34.616 114.867 34.616 114.867 37.9533 118.629C38.5733 116.807 39.416 115.251 39.588 113.623C39.8973 110.687 38.02 109.061 35.3893 110.227C31.6173 111.899 28.0973 114.139 24.4693 116.135ZM2.90801 108.073C3.06934 110.263 3.12401 112.277 3.42401 114.255C3.50801 114.807 4.26801 115.612 4.79734 115.68C7.54667 116.029 10.3213 116.176 13.1533 116.4C12.4973 111.469 9.57467 109.031 2.90801 108.073ZM22.348 111.741C25.42 110.82 29.6453 105.444 29.1627 102.749C28.9947 101.812 27.4267 100.509 26.4413 100.457C23.66 100.309 20.8373 100.627 18.0547 100.955C16.296 101.161 14.5787 101.716 12.8427 102.116C12.908 102.384 12.9733 102.651 13.0373 102.919C14.8627 102.919 16.6893 102.891 18.5133 102.924C25.4107 103.049 26.2773 104.568 22.8907 110.517C22.6973 110.859 22.5693 111.236 22.348 111.741ZM47.5173 104.139C47.812 104.204 48.108 104.269 48.404 104.336C49.5547 100.143 50.856 95.9827 51.796 91.744C52.2493 89.6933 51.0613 88.3613 48.7987 88.7933C46.9507 89.1453 45.228 89.6893 45.7187 92.348C46.4413 96.2547 46.9293 100.205 47.5173 104.139ZM21.8987 119.724C22.0213 120.18 22.1427 120.636 22.264 121.089C26.552 120.924 30.6827 121.248 33.8973 125.083C34.7587 123.577 35.6107 122.448 36.0907 121.179C37.104 118.501 35.2267 115.563 32.6013 116.143C28.9493 116.951 25.4587 118.495 21.8987 119.724ZM16.652 115.485C18.716 114.419 19.2387 111.572 20.2787 109.056C21.252 106.696 20.4893 105.407 17.976 105.495C14.612 105.613 11.256 105.96 8.27867 106.18C10.988 109.191 13.5573 112.047 16.652 115.485ZM62.7213 114.851C63.2293 112.437 63.7373 110.025 64.3827 106.959C62.924 105.773 60.624 103.903 58.3227 102.031C58.9907 107.021 58.224 112.221 62.2627 116.284C62.4747 115.561 62.588 115.179 62.7173 114.819C63.6947 116.771 64.672 118.721 65.728 120.827C66.2573 118.565 66.6813 116.761 67.104 114.959C66.72 118.484 66.7027 121.923 69.6307 125.136C70.0747 120.652 71.7587 117.779 76.8133 118.793C73.2493 113.493 70.944 112.689 67.0253 115.076C67.928 113.957 68.832 112.839 70.0333 111.353C68.6413 110.705 66.5627 109.091 65.8707 109.553C64.552 110.436 64.0267 112.503 63.168 114.077C63.0267 114.339 62.8693 114.593 62.7213 114.851ZM24.152 113.668C22.7547 114.341 22.1933 114.481 21.8053 114.82C16.436 119.493 10.152 118.319 3.92934 117.716C2.19734 117.548 1.59068 116.82 1.46934 115.064C0.722675 104.32 -0.811992 106.577 8.81334 102.148C18.4293 97.7227 28.3147 93.8707 38.1493 89.936C41.272 88.6867 44.5933 87.9133 47.8573 87.0453C51.2093 86.1547 54.2427 87.86 55.7867 90.9693C56.2693 91.9413 57.432 92.8707 58.4813 93.22C69.2507 96.7973 80.036 100.331 90.876 103.688C93.9907 104.652 95.3667 106.3 94.916 109.552C94.6373 111.573 94.5733 113.623 94.4333 115.388C88.04 118.169 82.1893 116.816 76.1147 114.448C76.684 115.085 77.2427 115.736 77.828 116.36C78.496 117.069 79.1627 117.783 79.8747 118.447C81.7493 120.195 82.04 121.743 79.6707 123.417C77.4667 124.973 75.3893 126.728 73.3587 128.512C71.596 130.059 70.2573 130.036 68.804 128.065C66.512 124.96 64.0493 121.98 61.02 119.171C61.2933 120.781 61.6013 122.387 61.8347 124.003C62.164 126.287 61.584 127.819 58.844 127.795C57.2293 127.78 55.6107 128.065 53.9933 128.212C48.8227 128.681 48.8453 128.679 48.136 123.455C47.4987 118.76 46.8053 114.073 46 108.423C42.3267 114.621 39.0827 120.056 35.8773 125.515C34.1427 128.467 26.4827 131.692 23.1627 130.809C19.928 129.952 17.496 124.127 19.2413 121.193C20.608 118.895 22.1573 116.705 24.152 113.668Z" fill="white"/>
<path d="M67.7891 56.9309C66.2224 60.5096 64.6557 64.0883 63.0891 67.6669C63.5957 67.8616 64.1051 68.0549 64.6131 68.2483C67.3077 65.0243 67.8797 61.0083 67.7891 56.9309ZM56.6824 31.0003C56.4877 31.3669 56.3944 31.4669 56.3837 31.5749C56.0717 34.8923 55.9664 38.4016 51.7051 39.2176C47.2357 40.0749 42.1704 37.8336 41.1757 33.5123C39.8477 27.7549 39.6611 21.7283 39.0904 15.8069C38.9504 14.3523 39.2224 12.8589 39.3184 11.1323C33.4637 15.0083 31.1544 24.4963 34.0397 32.0149C34.9224 34.3149 36.0904 36.5069 37.1451 38.7403C40.5291 45.9176 41.7291 53.4789 39.3237 61.0336C38.2571 64.3816 35.8251 67.6949 33.1451 70.0243C29.9531 72.7989 26.0224 71.8336 23.7717 68.1509C22.0251 65.2923 21.0224 61.9669 19.7851 58.8123C19.3344 57.6669 19.1597 56.4136 18.6971 54.5616C11.6637 67.0963 11.8131 78.7949 19.4891 90.1043C16.7664 92.6563 15.3771 91.7376 13.9277 89.0749C9.11974 80.2416 7.87974 71.1563 11.0384 61.4923C13.3517 54.4069 16.6984 47.9149 21.3931 41.5763C22.1517 47.1136 22.6757 52.1963 23.6077 57.2029C24.0944 59.8189 25.0384 62.4336 26.2491 64.8083C27.7957 67.8429 29.9557 68.2896 32.0104 65.5803C33.8957 63.0949 35.2877 59.8763 35.8184 56.7936C36.9491 50.2229 35.3011 44.0029 32.1104 38.1176C23.9357 23.0416 30.6437 7.93226 45.2064 0.720253C44.4837 6.19093 43.5784 11.6216 43.1104 17.0896C42.8211 20.4629 43.0477 23.9056 43.3357 27.2923C43.4704 28.8789 43.8837 30.8203 44.9171 31.8576C46.2344 33.1816 48.3064 33.7549 50.0517 34.6523C50.6197 32.9989 51.8051 31.2749 51.6291 29.7056C51.2544 26.3776 50.1691 23.1309 49.3544 19.7603C60.0504 24.6709 67.5397 35.4043 68.6197 46.6256C71.2437 47.8403 73.7317 48.5776 75.7464 49.9909C91.1197 60.7829 90.9851 80.6883 83.8531 93.3136C83.2744 94.3363 81.0664 94.4376 79.3424 94.5336C86.4491 79.4549 87.1424 65.8109 73.5637 53.2896C72.7331 56.7589 72.2824 59.5109 71.3931 62.1136C70.4517 64.8669 69.3611 67.6443 67.8397 70.1043C66.2997 72.5936 63.9171 73.2389 61.1251 71.5963C58.3384 69.9563 57.8664 67.7509 59.1797 65.0123C60.1971 62.8963 61.3717 60.8563 62.4144 58.7509C66.8624 49.7789 64.3824 37.5963 56.6824 31.0003Z" fill="white"/>
<path d="M76.7981 65.7435C74.9715 69.5501 73.5435 73.5395 71.2835 76.9835C68.2301 81.6355 63.5368 83.0741 59.1088 81.5328C54.6115 79.9688 51.7195 75.9928 52.3821 70.4648C52.8675 66.4101 54.7315 62.5155 56.0301 58.5648C56.8101 56.1901 57.6821 53.8475 58.0288 51.1341C55.0061 55.7315 51.1768 56.9075 46.3888 54.8915C41.9141 74.5941 34.9781 80.9088 21.8888 75.9501C23.5968 80.0315 25.0021 83.3861 26.7741 87.6208C21.9475 84.2541 19.0795 76.9088 20.5128 73.0408C20.6941 72.5488 22.5542 72.0341 22.9328 72.3568C28.4915 77.0955 33.5808 76.7128 38.5115 70.8781C42.9581 65.6141 44.1728 59.3661 43.7288 52.6608C43.6435 51.3701 43.7168 50.0688 43.7168 48.7715C44.0795 48.6915 44.4435 48.6115 44.8075 48.5315C45.2301 49.2581 45.6581 49.9821 46.0741 50.7115C48.3328 54.6781 52.5515 54.8235 54.8741 50.8928C55.7741 49.3688 56.1235 47.5261 56.9035 45.9168C57.2021 45.2995 58.0035 44.9275 58.5755 44.4435C58.9408 44.9848 59.4808 45.4781 59.6448 46.0755C60.9035 50.6755 60.2088 54.9795 58.1795 59.3261C56.5301 62.8581 55.0608 66.6515 54.5035 70.4741C53.8328 75.0741 56.5315 78.6355 60.3075 79.7141C63.6248 80.6608 68.2955 78.9315 70.0808 75.2208C71.9208 71.3955 72.8675 67.1421 74.2435 63.0888C74.5288 62.2515 74.9861 61.4755 75.3648 60.6701C76.1288 61.2688 77.1861 61.7075 77.6115 62.4901C82.9835 72.3541 82.2355 82.0768 76.6341 91.5755C76.2608 92.2101 75.2661 92.4781 74.1528 92.6061C78.9448 83.8288 81.1528 75.0755 76.7981 65.7435Z" fill="#FCFCFC"/>
</svg>
