<svg width="137" height="67" viewBox="0 0 137 67" fill="none" xmlns="http://www.w3.org/2000/svg">
<path d="M59.8751 57.8046C59.8751 55.5883 60.0716 53.403 59.81 51.2739C59.6195 49.7201 58.2592 49.1207 57.0513 50.2494C54.6305 52.5118 52.4171 54.9968 49.7206 57.8046H59.8751ZM61.7757 59.1308C68.5751 56.9536 74.9545 56.0855 81.5053 56.312C82.3062 56.3391 83.5683 55.6224 83.883 54.9207C85.1732 52.0517 86.6036 49.1377 87.2081 46.0863C88.7939 38.075 89.9256 29.9755 91.334 21.9271C92.1149 17.4643 93.0903 13.0336 93.9774 8.58888C83.9342 22.9445 71.7438 35.2863 59.2997 47.4657C62.3461 48.3408 62.2569 48.4841 61.8379 51.6498C61.5261 53.9964 61.7757 56.4173 61.7757 59.1308ZM45.4413 51.5856C45.4162 51.4292 45.3922 51.2719 45.3671 51.1165C45.6388 51.0784 45.9134 51.0573 46.1801 51.0002C50.5797 50.068 54.9843 49.0615 58.4747 45.9891C68.5511 37.1197 76.8461 26.6645 84.9396 16.0358C86.2307 14.3398 87.5128 12.6356 88.5533 11.2603C84.685 12.1866 80.7375 13.2952 76.7208 14.036C73.9812 14.5402 71.1423 14.4721 68.3586 14.7658C65.1619 15.1026 64.7409 16.1311 66.6595 18.6592C67.0514 19.1754 67.4574 19.6816 67.8574 20.1929C67.6158 20.3773 67.3732 20.5628 67.1306 20.7482C65.5618 18.8577 64.0342 16.933 62.4142 15.0886C60.9387 13.4085 59.5724 11.522 57.7831 10.2579C55.2309 8.45656 52.3049 7.17648 51.2463 3.92964C42.9002 18.7033 31.7904 30.9077 19.4666 42.8385C27.2143 47.3303 34.4468 51.7891 43.4615 51.6367C34.967 52.8316 27.6754 49.659 20.6585 45.4528C18.5895 50.4028 18.8572 51.6658 23.9384 52.8878C31.5779 54.7242 39.3686 55.9361 47.1033 57.3726C47.5434 57.4548 48.212 57.3345 48.5007 57.0398C50.3752 55.1282 52.1735 53.1434 54.3458 50.8067C50.9777 51.1014 48.209 51.343 45.4413 51.5856ZM113.036 39.5005C113.108 39.5175 113.227 39.5125 113.245 39.5536C115.74 44.9656 120.552 47.3043 125.784 49.2119C129.517 50.5722 133.14 52.2312 136.949 53.815C136.732 54.2861 136.534 54.7122 136.412 54.9788C135.917 54.642 135.516 54.2691 135.042 54.0606C129.785 51.746 124.535 49.4134 119.23 47.2111C118.431 46.8803 117.153 46.8732 116.488 47.3103C115.954 47.6611 115.818 48.9222 115.852 49.7642C115.932 51.6708 116.227 53.5684 116.434 55.469C108.224 55.9161 100.094 56.3601 91.5686 56.8243C91.8102 52.7424 91.8703 48.4871 92.3475 44.28C93.7057 32.271 95.2444 20.2821 96.6629 8.28014C96.737 7.65162 96.3551 6.96998 96.1857 6.31239C95.899 6.89981 95.4229 7.46517 95.3547 8.07564C93.5363 24.2657 91.7621 40.4598 89.9737 56.6528C89.9597 56.7872 89.8675 56.9145 89.7281 57.2403C83.6014 57.8277 77.3563 58.2647 71.1603 59.0647C64.0773 59.9779 57.0473 59.4496 49.9903 58.9764C49.0961 58.9163 47.9794 59.3123 47.2707 59.8776C44.8579 61.8023 42.5814 63.8983 40.1566 66.0124C39.8217 65.6225 39.4579 65.1975 39.3285 65.0471C41.8316 63.0643 44.2815 61.1246 47.2537 58.771C43.668 58.1996 40.7149 57.8798 37.8339 57.2352C32.3086 55.9963 26.7813 54.7202 21.3361 53.1714C17.8938 52.1911 17.9299 51.9555 18.1485 48.3077C18.2307 46.9244 18.4873 45.5511 18.7068 43.8429C12.7414 47.0156 6.94743 50.098 1.15245 53.1795C1.02614 53.0652 0.900841 52.9509 0.774536 52.8366C1.2968 52.3956 1.76192 51.8482 2.35034 51.5325C6.76799 49.1678 11.5225 47.2842 15.5602 44.3953C19.8786 41.3058 23.8161 37.5447 27.4118 33.6123C35.8472 24.389 42.7508 13.9899 49.5161 3.51364C50.1086 2.59643 50.5376 1.57496 51.12 0.45125C51.8437 1.51782 52.4833 2.46411 53.1278 3.40839C58.184 10.8233 71.2325 17.2367 82.195 11.2744C87.1509 8.57886 91.728 5.18667 96.4644 2.0872C97.132 1.65014 97.7174 1.08678 98.1886 0.705862C99.2321 4.87492 99.8185 9.21239 101.406 13.1459C104.739 21.3998 108.6 29.4412 112.241 37.5698C112.538 38.2324 112.818 38.902 113.105 39.5666C112.607 38.9832 112.019 38.4549 111.633 37.8074C106.625 29.3961 101.467 21.061 98.0262 11.551C97.8748 12.1725 97.7485 12.5224 97.7094 12.8812C96.7932 21.2254 95.6524 29.5535 95.064 37.9217C94.7112 42.9357 95.7667 47.9007 98.1605 52.4387C98.4482 52.982 99.1579 53.6586 99.6822 53.6686C104.823 53.7609 109.966 53.7248 115.1 53.7248C116.092 51.314 111.943 48 116.245 45.8468C115.185 43.7497 114.11 41.6246 113.036 39.5005Z" fill="white"/>
<path d="M36.7843 49.426C37.9772 49.1754 39.1851 48.9809 40.3599 48.6611C42.7236 48.0206 43.0354 47.3259 41.7793 45.2559C40.6897 43.4596 39.4547 41.7515 38.4714 39.8358C40.0672 41.3545 41.6631 42.8742 43.2589 44.3928C43.4855 44.3096 43.711 44.2254 43.9366 44.1422C43.698 41.6572 43.4594 39.1732 43.2198 36.6892C44.6984 40.4132 46.0958 44.1843 45.2467 48.2973C45.0843 49.0831 44.1902 50.267 43.5657 50.3111C41.3162 50.4715 39.0377 50.2229 36.7703 50.1287C36.7753 49.8941 36.7803 49.6595 36.7843 49.426Z" fill="white"/>
</svg>
