<svg width="125" height="90" viewBox="0 0 125 90" fill="none" xmlns="http://www.w3.org/2000/svg">
<path d="M86.3177 55.3724C85.4417 58.2484 88.0124 59.4217 89.6857 60.9311C91.4737 62.5444 93.6124 63.7644 95.5431 65.2284C98.5777 67.5257 101.482 70.0071 104.595 72.1911C110.722 76.4897 116.96 80.6271 123.136 84.8577C124.574 85.8431 124.831 87.0524 123.991 88.2511C123.111 89.5111 121.863 89.6217 120.374 88.5964C114.388 84.4817 108.4 80.3684 102.408 76.2644C100.64 75.0524 98.8151 73.9191 97.0817 72.6591C95.1444 71.2511 93.2364 70.0764 90.6271 70.3724C89.0084 70.5577 87.8351 69.5404 87.2724 67.9231C86.5751 65.9151 84.8004 65.0084 83.0684 64.1471C82.7337 63.9804 81.9911 64.3097 81.6071 64.6204C77.2524 68.1351 72.3577 68.7111 67.3617 66.6471C63.6484 65.1124 60.1191 63.0524 56.6871 60.9351C45.8831 54.2684 34.9871 47.7231 24.4791 40.6111C18.4924 36.5604 12.9751 31.7324 7.68039 26.7911C5.17239 24.4524 3.18839 21.2351 1.83106 18.0511C-0.919608 11.5964 1.87373 6.49774 7.28306 2.55641C10.5777 0.15374 14.3124 0.253735 18.1457 0.825735C23.8564 1.67773 28.9324 4.1124 33.9284 6.8124C41.5391 10.9257 48.1817 16.3617 54.8044 21.8431C60.4831 26.5404 66.2831 31.0924 71.9044 35.8537C75.6204 39.0004 79.1524 42.3644 82.6964 45.7031C85.4071 48.2564 86.4004 51.5311 86.3177 55.3724Z" fill="white"/>
<path d="M59.0436 40.6693C58.0116 41.2493 56.9943 41.8667 55.9463 42.4067C54.9796 42.9027 54.4169 42.4973 54.2329 41.2453C53.9196 39.1027 53.7436 36.908 53.1716 34.8453C52.2449 31.5053 49.7303 30.0373 46.8556 31.0453C45.3796 31.564 43.9969 32.4053 42.5876 33.1387C40.8423 34.0467 40.3369 33.7547 40.0476 31.5613C39.8783 30.2813 39.8036 28.9867 39.5983 27.7147C38.7063 22.1947 35.0996 20.192 30.8636 22.8147C29.8543 23.44 28.8089 23.9933 27.7676 24.5507C26.8183 25.06 25.9716 24.7493 25.6609 23.5933C25.0156 21.1867 24.5329 18.7267 23.9609 16.2947C23.7649 15.46 23.7036 14.3667 23.2169 13.892C22.6369 13.3227 21.5289 12.8787 20.9036 13.1347C20.2169 13.4173 19.3623 14.5413 19.3703 15.324C19.4156 19.336 20.0249 23.308 21.9289 26.844C23.7129 30.1587 26.9623 31.0587 30.1396 29.3253C31.0876 28.808 31.9969 28.1987 32.9543 27.7C34.3983 26.9453 34.8649 27.256 35.1063 29.0773C35.2756 30.356 35.3769 31.6453 35.5769 32.92C36.4636 38.556 39.7609 40.5907 44.1836 38.2493C45.1823 37.72 46.1489 37.104 47.1703 36.6413C48.5636 36.0093 48.9529 36.3067 49.2036 38.0827C49.3996 39.476 49.5009 40.8853 49.7209 42.2747C50.5796 47.7107 54.1609 49.7373 58.3209 47.176C59.2023 46.6333 60.0769 46.0693 60.9929 45.608C62.6143 44.7933 63.1822 44.9507 63.8582 46.8787C64.4662 48.6147 64.7649 50.488 65.1476 52.3133C65.3276 53.1693 65.2969 54.084 65.5236 54.92C65.8769 56.2333 66.6822 57.0733 67.9236 56.9653C69.1129 56.8613 69.8623 56.0813 69.9996 54.6693C70.2649 51.9693 68.7222 45.392 67.2822 43.0027C65.3262 39.7573 62.2263 38.8787 59.0436 40.6693ZM58.3756 38.4427C62.6476 36.2787 66.5569 37.5827 69.1383 42.216C71.3036 46.104 71.8502 50.5027 71.9969 54.9213C72.0649 56.9573 70.5369 58.7467 68.8063 59.2053C67.1316 59.6493 65.0916 58.8427 64.2196 57.1107C63.7222 56.1227 63.5489 54.904 63.3249 53.7667C62.9369 51.796 62.6249 49.8093 62.2956 47.9227C61.8303 47.8973 61.7116 47.8493 61.6342 47.8933C60.7369 48.396 59.8356 48.8947 58.9516 49.4293C54.2409 52.2827 49.5236 49.92 48.0116 43.8867C47.6463 42.4307 47.4876 40.9147 47.2143 39.304C44.0996 40.8187 41.1196 42.736 37.6249 40.5853C34.0463 38.3827 33.7796 34.3 33.1263 30.364C32.3116 30.776 31.6209 31.1067 30.9449 31.472C26.7983 33.708 22.5023 32.2787 20.0569 27.6387C18.0183 23.768 17.4049 19.4333 17.3343 15.072C17.3169 13.9987 17.9849 12.7547 18.6516 11.9267C19.7369 10.5773 21.2303 10.244 22.8436 10.9187C24.6836 11.6893 25.6396 13.228 25.9316 15.4133C26.2276 17.6413 26.5956 19.8627 26.9743 22.3693C28.1836 21.72 29.0583 21.3133 29.8796 20.7987C35.3356 17.368 40.3169 20.1573 41.5583 27.3573C41.7343 28.3787 41.8916 29.4053 42.1063 30.7253C45.2663 28.9413 48.3329 27.2493 51.7516 29.4C55.2209 31.5827 55.5783 35.592 56.0823 39.612C56.9383 39.176 57.6556 38.808 58.3756 38.4427Z" fill="#E2492C"/>
</svg>
