<svg width="101" height="139" viewBox="0 0 101 139" fill="none" xmlns="http://www.w3.org/2000/svg">
<path d="M50.2441 137.369C49.9305 136.893 47.847 134.767 45.614 132.645C43.381 130.522 41.1449 128.216 40.6449 127.52C40.097 126.757 39.6323 126.357 39.4756 126.514C39.3326 126.657 39.0837 127.806 38.9226 129.068L38.6297 131.362L37.8806 130.889C34.5247 128.767 30.3469 124.948 28.1726 122.016C27.4039 120.979 26.1965 118.942 25.4894 117.489C24.7824 116.036 24.1367 114.956 24.0545 115.089C23.9144 115.316 23.3132 118.679 23.3085 119.262C23.3032 119.968 18.8138 114.835 16.9485 111.991C14.3052 107.96 12.5394 103.268 11.6987 98.0434L11.4464 96.4756L10.9857 97.5242C10.7323 98.1009 10.4357 99.2875 10.3265 100.161C10.2173 101.034 10.0324 101.749 9.91555 101.749C9.58227 101.749 7.69516 97.4365 6.63104 94.2431C3.77054 85.6588 3.22729 75.1672 5.24848 67.5425L5.43736 66.8299L4.79104 67.4C4.43557 67.7135 3.68941 68.868 3.13292 69.9655C2.13201 71.9393 2.11864 71.9517 1.88918 71.113C1.76158 70.6468 1.44579 68.9169 1.18736 67.2689C0.609386 63.5831 0.771501 56.0185 1.49913 52.7196C2.83377 46.6685 5.48401 41.3382 9.52859 36.5705C10.3728 35.5753 10.9775 34.7611 10.8723 34.7611C10.7673 34.7611 9.547 35.3331 8.16083 36.0322L5.64048 37.3033L6.39333 36.1035C11.9612 27.2293 19.6373 20.5758 28.2065 17.1964C33.5628 15.084 37.9077 14.2288 43.7036 14.1461L47.3106 14.0945L47.1323 11.3865C46.9314 8.33733 47.304 3.35497 47.8162 2.24052C48.4174 0.932198 49.4707 0.55434 52.5165 0.55434C55.0086 0.55434 55.2563 0.601794 55.1167 1.05318C54.5375 2.92594 54.1725 10.8218 54.5576 13.1505L54.7314 14.202L56.0524 14.0455C57.8734 13.8299 63.8354 14.4084 67.1584 15.1231C77.4453 17.3359 86.3781 23.4055 93.2093 32.8239C96.8656 37.8651 96.8182 37.6494 93.923 36.0713C92.5536 35.3248 91.3199 34.7566 91.1815 34.8088C91.0431 34.8609 91.9454 36.1153 93.1865 37.5964C96.1637 41.149 98.7553 46.27 100.047 51.1517C100.926 54.476 100.952 54.745 100.964 60.7011C100.973 65.4717 100.866 67.3622 100.478 69.2327C100.203 70.5543 99.9246 71.6899 99.8583 71.7562C99.7921 71.8224 99.2948 70.9976 98.7533 69.9233C98.2118 68.849 97.4789 67.7134 97.1245 67.3999L96.4802 66.8297L96.6909 67.6849C99.1337 77.6054 97.8514 89.3725 93.2201 99.5339C92.6678 100.746 92.1212 101.678 92.0054 101.607C91.8895 101.535 91.7065 100.811 91.5986 99.9973C91.4906 99.1835 91.1991 98.0582 90.9507 97.4966L90.4991 96.4755L90.2553 97.7583C89.3566 102.487 89.0066 103.858 88.1717 105.924C86.5049 110.047 83.4654 114.562 79.7944 118.368C78.7731 119.426 78.7455 119.436 78.5643 118.795C78.4624 118.435 78.3661 117.731 78.3504 117.232C78.313 116.035 77.7382 114.561 77.5371 115.147C77.0913 116.444 75.049 120.207 74.0196 121.629C72.1715 124.181 69.3253 126.986 66.2082 129.328L63.3586 131.469L63.0002 128.96C62.8031 127.581 62.5676 126.377 62.4771 126.287C62.3865 126.196 62.0474 126.507 61.7234 126.977C61.3994 127.447 58.9085 130.016 56.1881 132.687C53.4676 135.357 51.2418 137.698 51.2418 137.889C51.2418 138.482 50.8388 138.272 50.2441 137.369ZM51.8579 134.024C52.2245 133.589 53.7761 132.103 55.3058 130.722C57.8739 128.403 60.085 125.883 60.8923 124.354C61.157 123.853 61.1266 123.525 60.7407 122.715C60.1911 121.563 59.9791 121.484 59.4517 122.237C59.2459 122.531 57.8075 124.102 56.2551 125.729C53.3829 128.739 53.3669 128.673 56.0161 124.752C56.8428 123.528 57.841 121.892 58.2345 121.115C58.9473 119.709 58.948 119.7 58.4216 118.674L57.8932 117.644L57.3284 118.319C56.4856 119.327 53.6876 121.912 53.9739 121.418C54.1102 121.183 54.8339 119.964 55.5821 118.71C56.3303 117.456 56.9425 116.151 56.9426 115.811C56.9429 115.008 56.6624 114.292 56.3473 114.292C55.8817 114.292 52.3966 118.119 51.7466 119.344C51.3911 120.015 51.0193 120.563 50.9205 120.563C50.8217 120.563 50.5685 120.147 50.3579 119.638C49.9938 118.759 45.9745 114.292 45.5479 114.292C45.4367 114.292 45.0008 115.171 44.5792 116.245C44.1576 117.32 43.1111 119.386 42.2537 120.837C41.3963 122.288 40.6948 123.599 40.6948 123.749C40.6948 124.482 42.8504 127.035 46.2272 130.301C48.2797 132.286 50.1474 134.114 50.3775 134.363C50.943 134.974 51.0845 134.942 51.8579 134.024ZM46.497 128.188C45.5109 127.133 44.4005 125.572 44.4005 125.24C44.4005 124.865 46.1165 126.618 47.0081 127.903C48.0037 129.338 47.7199 129.496 46.497 128.188ZM38.6852 122.843C39.0501 122.138 39.7887 120.871 40.3264 120.028C41.3961 118.351 42.4613 116.1 43.2626 113.824L43.7785 112.358L42.8171 111.426L41.8557 110.494L41.5898 111.181C40.3059 114.5 37.2017 120.848 36.8631 120.848C36.8092 120.848 37.1314 119.904 37.5794 118.75C38.4023 116.631 39.2027 113.899 39.9435 110.681C40.3471 108.927 40.3463 108.921 39.5809 108.004L38.8137 107.085L38.4588 108.336C38.0233 109.873 36.0878 114.626 35.9527 114.491C35.8989 114.437 36.1731 112.863 36.5622 110.993C37.4648 106.655 37.473 104.943 36.6004 103.06C36.2299 102.261 35.8071 101.302 35.6608 100.929C35.4199 100.315 35.281 100.497 34.1861 102.853C33.5213 104.284 32.8975 105.455 32.7999 105.455C32.7023 105.455 31.9276 104.93 31.0782 104.289C30.2289 103.648 29.4978 103.167 29.4536 103.22C29.4094 103.273 29.0866 104.279 28.7363 105.455C28.3859 106.631 27.5757 108.603 26.9357 109.837C25.8027 112.022 25.7813 112.115 26.1197 113.4C27.2462 117.677 30.6796 122.625 34.9899 126.183L36.8391 127.709L37.4304 125.918C37.7555 124.932 38.3202 123.549 38.6852 122.843ZM68.5611 124.727C71.8235 121.676 74.5154 117.579 75.628 113.973C76.089 112.479 76.0417 110.864 75.5372 110.876C75.4225 110.878 75.0108 111.615 74.6221 112.512C73.7366 114.556 70.972 118.762 69.8928 119.708L69.0794 120.42L69.8124 119.423C70.8931 117.952 72.1616 115.308 73.0263 112.724C73.9417 109.988 74.1842 108.404 73.8303 107.47C73.5896 106.835 73.4427 107.015 72.0762 109.628C71.2559 111.197 70.2674 112.856 69.8794 113.315L69.174 114.149L69.6041 113.257C70.8324 110.71 72.8982 103.642 72.5237 103.267C72.4528 103.196 71.7081 103.659 70.8688 104.295C70.0294 104.932 69.2527 105.453 69.1426 105.454C69.0325 105.454 68.4269 104.355 67.7968 103.01C67.141 101.611 66.5257 100.643 66.3579 100.746C66.1966 100.846 66.0646 101.106 66.0646 101.323C66.0646 101.977 63.8815 105.987 62.7525 107.407C62.1724 108.136 60.9305 109.524 59.9927 110.492C58.4428 112.09 58.3042 112.333 58.4702 113.164C58.7223 114.424 60.5368 118.399 61.683 120.202C63.098 122.429 64.2885 124.895 64.6599 126.37L64.99 127.681L65.8556 127.065C66.3316 126.726 67.5492 125.674 68.5611 124.727ZM55.7521 111.797C61.6327 105.943 63.2556 103.638 64.4909 99.389C64.954 97.7959 64.9518 97.7684 64.2827 96.7836L63.6063 95.7883L62.232 98.4842C61.4761 99.967 60.2654 102.059 59.5416 103.133C58.1604 105.182 55.3057 108.552 56.2462 107.023C58.1022 104.006 58.9172 102.538 59.6096 100.967C60.5955 98.73 62.0739 94.4842 62.0739 93.8902C62.0739 93.2232 60.6061 90.8421 60.3613 91.112C60.2451 91.2399 59.871 92.2426 59.5298 93.34C59.1886 94.4375 58.2206 96.7464 57.3786 98.471C55.6793 101.952 54.5397 103.696 55.6605 101.101C56.7093 98.6732 57.9476 94.3058 58.526 90.9948C59.02 88.1668 59.0192 88.0322 58.5003 86.5051C58.206 85.6393 57.8905 84.9309 57.7992 84.9309C57.2925 84.9309 53.3563 88.9424 52.3275 90.5072C51.6639 91.5165 51.0321 92.3423 50.9234 92.3423C50.8148 92.3423 50.3703 91.733 49.9356 90.9883C49.1328 89.6131 44.6329 84.9309 44.1141 84.9309C43.9581 84.9309 43.8304 85.1716 43.8304 85.4658C43.8304 86.314 40.7013 92.2304 38.7171 95.1338L36.9068 97.7827L37.6766 100.122C38.9618 104.028 40.51 106.183 45.9385 111.627C48.6202 114.316 50.8463 116.529 50.8854 116.544C50.9245 116.559 53.1145 114.423 55.7521 111.797ZM41.1715 102.967C40.3929 101.734 39.4506 99.1926 39.6849 98.9582C39.7671 98.876 40.3597 99.9296 41.0017 101.3C42.2466 103.956 42.3332 104.808 41.1715 102.967ZM81.8347 112.795C85.7792 107.628 87.7832 102.376 88.1923 96.1338L88.3795 93.2769L87.3823 92.1888L86.3851 91.1007L86.1791 93.7881C86.0657 95.2663 85.7927 97.4281 85.5724 98.5923C85.1612 100.764 84.0161 104.688 83.8436 104.515C83.7905 104.462 83.9545 103.465 84.208 102.3C84.7159 99.9657 84.8649 93.7491 84.4894 90.5605C84.3005 88.9557 84.0957 88.4351 83.2562 87.4249C82.7026 86.7587 82.1568 86.178 82.0433 86.1343C81.9299 86.0908 81.6739 86.7962 81.4744 87.7021C80.6243 91.5631 78.6228 95.7331 75.844 99.4322L74.2655 101.534L74.7713 103.423C75.4499 105.958 76.4502 108.258 78.0952 111.066C78.847 112.349 79.5872 113.728 79.7402 114.13C79.8931 114.533 80.0721 114.862 80.1377 114.862C80.2035 114.862 80.967 113.932 81.8347 112.795ZM81.1979 101.892C81.1734 100.951 82.013 95.3967 82.2069 95.217C82.5593 94.8905 82.0713 100.202 81.6459 101.322C81.386 102.006 81.2069 102.234 81.1979 101.892ZM22.1661 114.24C22.1661 114.055 22.9421 112.592 23.8904 110.99C25.4553 108.346 26.8986 104.834 27.4296 102.379C27.5956 101.612 27.4921 101.257 26.8591 100.427L26.0856 99.4133L25.0316 102.505C24.1775 105.011 22.2934 109.224 22.86 107.361C23.3628 105.708 23.8775 102.94 24.1768 100.281C24.4712 97.6644 24.4594 97.1605 24.0918 96.6357C23.6853 96.0552 23.6302 96.1376 22.9184 98.389C22.2102 100.629 21.2889 102.58 21.7353 100.894C21.8392 100.502 21.9948 98.5647 22.0814 96.5888C22.2291 93.2182 22.1942 92.8836 21.5182 91.1727C21.1218 90.1698 20.6361 88.6117 20.4388 87.7102C20.2415 86.8087 19.9722 86.0711 19.8404 86.0711C19.7085 86.0711 19.5995 86.1673 19.5982 86.2849C19.597 86.4025 19.1776 86.9476 18.6666 87.4964C16.046 90.3105 13.8881 93.0011 13.7224 93.6612C13.4115 94.9002 14.1105 100.343 14.9091 102.901C15.3231 104.227 16.2711 106.479 17.0158 107.904C19.1909 112.067 22.1661 115.727 22.1661 114.24ZM32.8428 100.823C33.2368 99.9996 34.9118 97.2097 36.5649 94.6228C39.94 89.3411 41.3834 86.6177 41.9527 84.4567L42.3405 82.9847L41.4328 82.1049C40.9336 81.6211 40.4522 81.2252 40.3631 81.2252C40.274 81.2252 39.9106 82.0269 39.5555 83.0068C38.5523 85.7758 36.7756 89.1623 35.2186 91.2734C33.8248 93.1631 33.0229 93.9298 34.0003 92.4382C35.0514 90.834 35.5526 89.846 36.386 87.7351C37.276 85.481 38.6993 80.3749 38.6993 79.4365C38.6993 79.1441 38.2962 78.3189 37.8034 77.6027L36.9074 76.3004L36.2188 78.6915C35.5577 80.9869 33.3128 86.4807 33.1162 86.2841C33.064 86.2319 33.3283 85.2225 33.7035 84.041C34.4162 81.7966 35.2255 76.9689 35.2984 74.5263C35.3388 73.1712 34.19 68.4044 33.8219 68.3998C33.7261 68.3987 33.2282 69.185 32.7153 70.1473L31.7827 71.8969L30.8227 70.3743C30.2947 69.5368 29.8627 68.7495 29.8627 68.6247C29.8627 68.4998 29.7586 68.3977 29.6315 68.3977C29.5043 68.3977 29.2299 69.0711 29.0217 69.8942C28.0526 73.7242 25.8853 78.129 23.125 81.8786C21.9185 83.5176 21.8468 83.7142 22.0161 84.9222C22.5714 88.8833 24.5492 93.809 26.9164 97.1263C28.2779 99.0343 31.4143 102.319 31.8745 102.319C32.0131 102.319 32.4488 101.646 32.8428 100.823ZM72.1515 100.538C76.0472 96.7153 79.271 90.1773 79.8745 84.8751C80.0306 83.5038 79.9719 83.2745 79.2425 82.4115L78.4382 81.4598L77.9192 83.6942C77.1942 86.8155 76.4328 88.9795 75.1271 91.6297C73.7736 94.3767 73.1349 95.1532 74.173 92.7897C75.4524 89.8769 76.1838 86.3427 76.7127 80.5183C76.81 79.446 76.6949 78.8184 76.2425 77.9528L75.6433 76.8068L75.4059 78.2321C74.6157 82.978 73.5847 87.4172 73.3322 87.1612C73.2821 87.1104 73.4329 85.6578 73.6674 83.9332C74.2436 79.6956 74.0074 73.977 73.1228 70.7508C72.7684 69.4581 72.4143 68.4014 72.3359 68.4025C72.2575 68.4036 71.7715 69.1725 71.2558 70.1114C70.7401 71.0502 70.2666 71.8183 70.2036 71.8183C70.1405 71.8183 69.6786 71.0487 69.1773 70.108C68.6759 69.1673 68.1837 68.3977 68.0835 68.3977C67.9833 68.3977 67.6736 69.2814 67.3954 70.3615C66.4524 74.0221 64.4955 77.5251 61.4595 80.9871C60.5432 82.032 59.7935 83.1344 59.7935 83.4367C59.7935 84.3423 60.8662 87.1784 61.9246 89.071C62.4703 90.0469 64.1066 92.6894 65.5608 94.9432C67.015 97.1971 68.5891 99.7784 69.0589 100.68C69.5286 101.581 70.008 102.318 70.1243 102.319C70.2406 102.319 71.1528 101.518 72.1515 100.538ZM14.459 89.1422C21.0631 81.531 22.955 78.9254 25.0261 74.5887C26.4909 71.5214 27.5768 67.6858 27.5802 65.5673C27.5828 64.2905 27.0602 62.4115 26.7036 62.4115C26.5969 62.4115 26.3578 63.0208 26.1721 63.7655C25.3545 67.0456 21.7331 74.2115 19.7254 76.5217L18.9823 77.3769L19.5497 76.3792C23.1935 69.9727 25.5504 62.2507 25.2298 57.7694C25.0054 54.6341 24.6698 54.7326 23.8569 58.1723C22.9507 62.0064 22.2 64.0666 20.5196 67.3314C19.6513 69.0183 18.9037 70.3613 18.8583 70.3159C18.813 70.2705 19.2362 69.087 19.7988 67.6859C20.8672 65.0249 22.274 58.9156 21.8551 58.7561C21.7219 58.7054 21.1922 58.9798 20.678 59.366C19.3375 60.3728 16.8872 61.5348 12.3978 63.2925L8.47309 64.8291L7.88161 66.3996C5.19249 73.5391 5.70775 86.2794 9.03892 95.0142L9.35126 95.8333L10.5458 94.0543C11.2028 93.0759 12.9637 90.8654 14.459 89.1422ZM8.12152 81.1141C7.76682 78.7393 7.88909 76.4105 8.50661 73.7802C9.217 70.7544 9.68635 70.1667 9.15709 72.9658C8.95126 74.0544 8.68088 76.6466 8.55626 78.7265C8.36435 81.9295 8.29786 82.2947 8.12152 81.1141ZM93.6607 92.6274C96.3498 84.1364 96.5128 72.7312 94.0375 66.2708C93.5795 65.0756 93.3082 64.7769 92.2862 64.3429L91.0768 63.8292L91.2447 64.6169C91.3371 65.0501 91.7342 66.8156 92.1273 68.5402C92.9899 72.3251 93.4347 76.0159 93.3984 79.0872L93.3714 81.3677L92.9658 78.3746C92.4572 74.6224 91.1363 69.5023 89.7464 65.8958C88.7865 63.4048 88.5709 63.0704 87.6173 62.594C87.0337 62.3025 86.4867 62.1334 86.4017 62.2184C86.3168 62.3033 86.6324 63.3757 87.1031 64.6013C88.1607 67.3557 89.071 71.5101 89.2778 74.5263L89.4341 76.8068L89.0222 74.6689C88.4828 71.8699 87.4105 68.629 86.1197 65.8969C84.421 62.3012 83.3986 60.9157 81.3822 59.4769C80.3604 58.7477 78.9958 57.5506 78.3497 56.8166C77.7036 56.0826 77.1326 55.5339 77.0807 55.5974C77.0288 55.6608 76.7605 56.6748 76.4846 57.8506C76.2086 59.0265 75.6118 60.9506 75.1584 62.1264C74.6871 63.3486 74.3343 64.8138 74.3347 65.5471C74.3358 67.9215 75.4127 71.5432 77.1737 75.0965C79.0671 78.9168 81.1992 81.8656 86.6548 88.209C88.6774 90.5607 90.8047 93.2141 91.3823 94.1053C91.9598 94.9965 92.5158 95.6379 92.6178 95.5306C92.7196 95.4232 93.1891 94.1168 93.6607 92.6274ZM85.2117 72.9127C84.8477 71.7265 84.121 69.7692 83.5967 68.5631C83.0724 67.357 82.8238 66.52 83.0444 66.703C83.7259 67.2686 85.3894 70.8729 85.7332 72.5291C86.2534 75.0353 85.9349 75.2696 85.2117 72.9127ZM55.5457 84.0044C60.6609 78.9894 62.1205 77.1969 63.8155 73.8489C64.8712 71.7635 66.0819 67.8179 66.0489 66.5705C66.0309 65.888 64.4268 64.4888 64.0971 64.8681C63.9768 65.0064 63.6478 65.7609 63.366 66.5448C61.9266 70.548 57.8593 76.9103 55.0746 79.5148C54.0962 80.4299 54.1286 80.3529 55.4644 78.5857C58.4262 74.6676 60.8057 69.7455 61.9533 65.1634L62.4421 63.2118L61.6166 62.5369C61.1626 62.1656 60.6629 61.8601 60.5061 61.858C60.3494 61.8553 59.9199 62.7812 59.5519 63.9144C58.8289 66.1409 55.9029 72.2928 55.4271 72.5869C55.2388 72.7033 55.2189 72.5741 55.371 72.2214C56.2703 70.1369 57.8605 64.8866 58.2241 62.8013L58.6603 60.3007L57.8729 59.6729C57.4399 59.3276 57.0111 59.0912 56.9199 59.1475C56.8289 59.2037 56.5951 59.9292 56.4006 60.7594C56.0464 62.271 54.5254 65.7494 54.8056 64.4069C54.8875 64.0149 55.0223 62.2832 55.1055 60.5586L55.2567 57.423L52.6864 54.744C50.5062 52.4716 50.0859 52.1471 49.9178 52.6061C48.9257 55.3146 45.0938 59.4117 39.9344 63.2807C37.87 64.8287 36.103 66.2214 36.0078 66.3755C35.7291 66.8264 36.5948 70.4704 37.482 72.5812C38.9082 75.974 41.0714 78.7985 46.087 83.8168C48.6869 86.4181 50.8156 88.5667 50.8175 88.5915C50.8202 88.6163 52.9471 86.5521 55.5457 84.0044ZM41.6791 76.308C40.5125 74.9688 39.4174 72.7836 39.1434 71.2482C39.0123 70.5134 39.3136 70.9258 40.2866 72.8127C41.0133 74.2219 41.8303 75.697 42.1022 76.0908C43.3623 77.9155 43.1669 78.0157 41.6791 76.308ZM38.9236 61.4236C43.2717 58.1503 45.5961 55.8047 47.3345 52.9359C48.8518 50.432 48.9067 50.0292 47.9733 48.2466C47.5376 47.4143 47.1007 46.7346 47.0023 46.7359C46.9039 46.7371 46.3482 47.4749 45.7673 48.375C44.4646 50.3935 41.6113 53.5423 39.3794 55.4243L37.7017 56.839L39.4316 54.9667C41.6242 52.5935 43.536 49.721 44.9951 46.6072L46.1393 44.1658L45.6454 42.599C45.3738 41.7374 45.0747 41.0323 44.981 41.0323C44.8871 41.0323 44.6751 41.3851 44.5095 41.8162C44.0468 43.0216 41.748 46.4433 40.44 47.8737L39.267 49.1564L40.5556 47.0242C41.9998 44.6344 43.3423 41.3545 43.9702 38.6822C44.3098 37.2363 44.331 36.4138 44.082 34.3335C43.9131 32.9225 43.7397 31.7311 43.6967 31.6859C43.6538 31.6407 42.5013 32.4463 41.1358 33.4762C38.3579 35.5714 34.8436 37.4349 31.4304 38.6226C30.1762 39.059 28.9905 39.5382 28.7955 39.6875C28.1779 40.1603 27.015 44.4032 26.6939 47.3556C26.3223 50.7713 26.668 54.3888 27.7463 58.3691C28.4565 60.9908 30.2604 65.4392 31.1864 66.8524L31.6623 67.5788L33.2567 66.0341C34.1336 65.1845 36.6838 63.1098 38.9236 61.4236ZM28.2547 47.4366C28.4258 45.4774 29.2155 42.5706 29.4994 42.8545C29.7185 43.0736 28.6764 48.8329 28.3591 49.1564C28.1761 49.343 28.14 48.7486 28.2547 47.4366ZM71.8167 64.7598C75.6778 56.48 76.3685 49.141 74.0012 41.5461C73.4247 39.6963 73.3658 39.623 72.11 39.1952C71.3972 38.9523 70.7626 38.8049 70.6998 38.8677C70.637 38.9305 70.8551 39.8542 71.1844 40.9204C72.1073 43.9082 72.6239 47.3907 72.5915 50.4052C72.559 53.4368 72.3487 53.0082 71.8064 48.805C71.4384 45.9523 70.0868 41.8024 68.74 39.3901C67.9283 37.9361 67.484 37.4738 66.3434 36.8959C65.5734 36.5057 64.8199 36.1864 64.6689 36.1864C64.5179 36.1864 64.7217 36.9881 65.1215 37.968C66.1784 40.5572 67.4069 45.6702 67.6042 48.3012L67.7752 50.5817L67.205 47.9646C66.1529 43.1348 63.7753 37.6937 61.3903 34.658C59.9935 32.8799 57.5715 30.6168 57.3272 30.8611C56.9079 31.2804 59.1315 39.4749 60.5318 42.6714C61.7608 45.477 60.906 44.1777 59.2189 40.676C57.6281 37.3739 56.2122 33.5102 55.0667 29.3451C54.7864 28.326 54.1956 26.9002 53.7538 26.1767C53.3121 25.4532 52.483 23.8497 51.9116 22.6135L50.8726 20.3658L50.5256 21.3665C49.9107 23.14 48.4878 25.7343 47.0881 27.6338L45.7234 29.4857L46.0586 33.0498C47.228 45.4828 51.2004 52.2118 62.2164 60.4207C64.4113 62.0563 67.1051 64.3092 68.2026 65.4273C69.3 66.5454 70.3075 67.3988 70.4413 67.3237C70.5752 67.2487 71.1941 66.0949 71.8167 64.7598ZM72.0733 53.9786C72.0869 53.6465 72.1545 53.579 72.2455 53.8064C72.3278 54.0122 72.3178 54.258 72.2232 54.3527C72.1285 54.4474 72.061 54.2791 72.0733 53.9786ZM52.3956 46.5665C51.2569 44.771 50.4547 42.5889 50.2389 40.7001C50.0692 39.2151 50.0855 39.2378 50.933 41.6707C51.4102 43.0409 52.1964 44.9459 52.6801 45.9041C53.7568 48.0369 53.5837 48.4399 52.3956 46.5665ZM4.07326 65.253C4.95848 64.2749 7.36269 63.0561 12.2005 61.1329C17.698 58.9475 20.2764 57.4825 21.8636 55.6423C23.3582 53.9096 24.5065 51.5218 24.392 50.3845L24.3041 49.5102L23.3152 50.9011C22.0142 52.7311 20.5772 54.2849 19.173 55.3797L18.0328 56.2688L19.0467 55.1244C21.139 52.763 22.9731 49.5843 24.3422 45.9468C25.3055 43.3877 25.1768 42.9401 23.9862 44.708C22.8541 46.3892 18.8292 50.7242 18.4005 50.7242C18.2524 50.7242 18.6974 50.0769 19.3895 49.2857C20.7781 47.6984 22.9534 44.1834 23.8687 42.0483L24.4584 40.6723L22.6709 40.8675C21.6878 40.9748 20.3703 41.1388 19.7432 41.2318L18.603 41.4008L20.2196 39.6934C21.6193 38.2151 25.0167 33.3887 25.0167 32.8785C25.0167 32.7809 24.4715 32.7809 23.8052 32.8785C23.1389 32.9761 21.1618 33.1692 19.4117 33.3076C16.5011 33.5378 16.1163 33.6373 14.899 34.4748C9.66198 38.078 5.11313 45.6372 3.49115 53.4323C2.67941 57.3336 2.56813 65.8322 3.3288 65.8322C3.45 65.8322 3.78501 65.5716 4.07326 65.253ZM9.77509 45.3082C10.052 43.7803 11.4311 41.0192 12.5514 39.7496C13.6513 38.503 14.2792 38.4774 13.3026 39.7189C12.9699 40.1419 11.9994 41.797 11.1459 43.3969C10.0239 45.5002 9.64433 46.0296 9.77509 45.3082ZM99.0095 64.5091C99.3492 62.2439 98.953 55.6401 98.3072 52.8024C96.5913 45.2635 92.5872 38.6973 87.3013 34.754C86.0333 33.8081 83.7381 33 83.7381 33.4995C83.7381 33.6036 84.805 34.81 86.1088 36.1802C88.6062 38.8045 90.475 41.4227 91.9827 44.4094C92.9428 46.3113 94.9851 52.1148 94.77 52.3299C94.7002 52.3996 94.4244 51.7881 94.1572 50.971C92.2304 45.0802 87.7346 39.067 81.9995 34.7098C80.2802 33.4036 79.613 33.0706 78.3933 32.9096C77.5702 32.8011 76.8968 32.7934 76.8968 32.8925C76.8968 33.363 80.555 38.4973 81.8496 39.8437L83.3106 41.3632L81.6002 41.1669C80.6595 41.0589 79.024 40.8119 77.9658 40.6179C76.5959 40.3667 76.043 40.3551 76.0465 40.5775C76.0492 40.7493 76.3061 41.8519 76.6173 43.0277C76.9285 44.2036 77.2653 46.5767 77.3657 48.3013C77.519 50.9362 77.6741 51.6872 78.337 53.0047C80.1748 56.6571 82.3227 58.1804 89.9182 61.2185C94.4894 63.047 97.2057 64.4585 98.0039 65.4202C98.5718 66.1045 98.8015 65.8963 99.0095 64.5091ZM91.4346 55.5962C91.4346 54.4954 88.9002 48.9921 87.2599 46.531C85.6347 44.0924 85.5326 43.8662 86.4506 44.738C87.9697 46.1807 89.6553 48.7595 90.4147 50.8026C91.2315 53.0005 91.8422 55.5427 91.6093 55.7756C91.5132 55.8717 91.4346 55.7909 91.4346 55.5962ZM27.3849 37.7123C35.3955 35.729 42.4628 31.1291 46.1853 25.4757C47.6566 23.2412 49.1174 19.8476 49.4186 17.964C49.5965 16.8517 49.5645 16.7517 49.0742 16.8878C48.777 16.9704 47.8283 17.1937 46.966 17.384C43.9156 18.0575 42.611 18.9041 39.6286 22.1457C36.0733 26.0099 32.5112 29.655 33.011 28.9175C33.2235 28.6039 33.6786 28.0267 34.0224 27.6347C35.1226 26.3804 38.477 21.3312 38.3167 21.1709C37.8947 20.749 33.5342 24.6764 31.269 27.5187C30.0281 29.0757 24.1616 38.0103 24.1616 38.3431C24.1616 38.4843 24.665 38.3858 27.3849 37.7123ZM77.752 38.3573C77.752 38.1593 72.7633 30.3239 71.6341 28.7485C71.0265 27.9007 69.7494 26.3865 68.7959 25.3835C67.0608 23.5581 63.8153 20.9524 63.5755 21.1922C63.4203 21.3474 65.3582 24.2601 67.2931 26.7796C68.0757 27.7986 68.8447 28.8248 69.002 29.06C69.3936 29.6455 65.9497 26.0959 62.5425 22.4024C59.4587 19.0593 58.2294 18.1955 55.6602 17.5661C51.9563 16.6589 52.28 16.6334 52.472 17.8167C52.9264 20.6166 55.212 25.1701 57.5899 28.013C60.145 31.0676 65.3888 34.5277 70.2252 36.3504C73.2167 37.4778 77.752 38.6871 77.752 38.3573ZM13.6655 31.7803C14.1861 31.6903 16.7287 31.4334 19.3156 31.2096C23.7534 30.8256 26.0136 30.3385 27.0267 29.5477C27.27 29.3579 28.1822 28.2405 29.0539 27.0646C32.4044 22.5449 36.4492 19.2224 41.1542 17.1249L43.1177 16.2497L41.9775 16.247C37.867 16.2363 36.0029 16.9986 30.1662 21.0763C27.1878 23.1571 24.7802 24.5787 23.4489 25.0425C22.7415 25.2889 22.6866 25.28 23.1314 24.9911C26.4225 22.8533 31.7192 18.5644 31.4279 18.2731C31.3622 18.2074 30.5662 18.4466 29.6591 18.8048C24.0803 21.0075 18.0564 25.0685 14.4152 29.0816C12.0917 31.6424 11.5658 32.3866 12.2717 32.1158C12.5176 32.0215 13.1448 31.8703 13.6655 31.7803ZM90.0094 31.9525C90.0094 31.8187 88.9939 30.6239 87.7527 29.2973C84.2937 25.6002 80.4869 22.7523 75.928 20.451C73.8898 19.4221 70.6053 18.1531 70.4312 18.3272C70.1821 18.5763 75.9779 23.1799 78.1083 24.4251C80.3968 25.7626 80.8863 26.1574 79.5336 25.5743C77.3148 24.6179 74.2771 22.8309 70.2708 20.1254C67.824 18.473 65.3315 16.99 64.7319 16.8298C63.5154 16.5048 58.5513 16.1254 59.2233 16.4088C60.7535 17.0541 64.386 18.9884 65.4775 19.7391C67.4552 21.0994 71.3246 24.9288 73.086 27.2691C73.9517 28.4193 74.9403 29.5442 75.283 29.7687C76.2611 30.4096 79.2563 30.972 83.5956 31.3295C85.7905 31.5103 88.0354 31.766 88.5841 31.8978C89.9532 32.2264 90.0094 32.2286 90.0094 31.9525ZM52.5281 8.40299C52.5308 5.19553 52.4313 2.67161 52.3086 2.79429C52.1859 2.91696 51.9094 4.22696 51.6943 5.7054L51.3031 8.39347L51.2724 5.47166C51.2445 2.81427 51.1933 2.54984 50.7066 2.54984C49.5772 2.54984 49.3935 3.27582 49.2882 8.15792C49.1562 14.2738 49.1458 14.2374 51.0334 14.2359L52.5245 14.2348L52.5281 8.40299Z" fill="white"/>
</svg>
