<svg width="68" height="110" viewBox="0 0 68 110" fill="none" xmlns="http://www.w3.org/2000/svg">
<path d="M22.9193 32.0781V36.2115C22.5207 36.3728 22.242 36.5888 21.9687 36.5821C14.3353 36.4048 15.526 36.9635 14.11 43.3541C11.2407 56.2995 8.51667 69.2755 5.71133 82.2341C4.822 86.3408 5.01533 86.7728 8.926 88.4688C12.6687 90.0915 16.546 91.4635 20.114 93.4061C22.986 94.9701 24.3713 93.3288 26.0847 91.7061C26.6447 91.1741 27.458 90.6088 28.17 90.5901C32.05 90.4821 35.958 90.2941 39.8047 90.6648C41.2353 90.8048 42.4567 92.5235 43.9087 93.2581C44.7927 93.7048 46.1047 94.0715 46.9313 93.7421C51.286 92.0075 55.5087 89.9408 59.858 88.1915C62.3273 87.1995 63.0113 85.6848 62.458 83.1675C59.654 70.4181 56.9447 57.6461 54.154 44.8915C53.6127 42.4195 53.5353 39.3395 51.9967 37.7448C50.646 36.3448 47.5447 36.6355 45.0447 36.1461V32.1475C47.206 32.1475 49.3447 31.9075 51.4047 32.2061C54.2127 32.6128 56.3313 34.1701 57.002 37.1315C59.0313 46.0768 61.058 55.0235 63.0287 63.9821C64.4087 70.2541 65.7087 76.5435 67.0207 82.8288C67.9767 87.4035 66.5313 90.2221 62.206 92.1408C57.4527 94.2475 52.6767 96.3008 47.7473 98.4475V104.67H20.2233V98.4675C15.3913 96.3555 10.7207 94.3288 6.062 92.2728C1.318 90.1755 -0.0660014 87.5608 0.992665 82.5701C4.122 67.8088 7.27267 53.0528 10.4327 38.2995C11.2713 34.3835 13.7247 32.2861 17.694 32.0915C19.3167 32.0115 20.9473 32.0781 22.9193 32.0781Z" fill="white"/>
<path d="M36.1549 68.9519C41.5656 72.4372 46.9829 75.0079 47.6802 82.4559C51.0816 75.8319 49.1029 70.2972 47.7882 64.3079C43.9162 65.8532 40.3602 67.2719 36.1549 68.9519ZM20.2136 81.5692C20.9376 74.7239 26.7509 72.5119 31.6229 68.8799C27.6029 67.2879 23.9749 65.8492 20.1149 64.3199C18.9042 70.4092 16.6869 75.9572 20.2136 81.5692ZM20.5362 62.0825C24.8736 63.9119 28.7882 65.5905 32.7309 67.1985C33.3376 67.4452 34.1802 67.6332 34.7349 67.4079C38.9349 65.7052 43.0909 63.8945 47.4149 62.0505C46.7002 58.5732 46.0936 55.1679 45.2362 51.8252C45.0656 51.1585 43.9496 50.2865 43.2536 50.2732C37.0362 50.1519 30.8162 50.1625 24.5989 50.2639C23.9469 50.2745 22.8816 51.0185 22.7376 51.6025C21.8869 55.0505 21.2536 58.5519 20.5362 62.0825ZM40.7936 43.0172C41.8816 44.4945 42.6162 46.5372 43.9856 47.1425C46.9416 48.4479 46.5442 51.0425 47.1616 53.2625C47.6776 55.1239 47.8309 57.0905 48.4149 58.9239C48.8256 60.2119 49.6896 61.3559 50.5736 62.9692C48.4229 64.7225 50.0896 67.4359 50.6136 70.0039C51.7549 75.5919 51.0002 80.7639 47.5776 85.4012C46.9989 86.1852 46.0442 86.6905 44.7749 87.2745C47.9536 77.8305 41.4416 74.2039 35.1936 71.1319C31.6216 69.3719 29.0989 73.3839 26.4189 75.2159C22.4976 77.8985 21.9122 80.8172 23.4896 87.5545C22.1536 86.7119 21.1762 86.3785 20.6242 85.7012C17.3456 81.6759 16.3816 76.9879 17.0336 71.9239C17.2282 70.4092 17.7269 68.9239 17.8309 67.4065C17.9389 65.8479 17.7362 64.2665 17.6736 62.7959C18.3576 61.2412 19.2642 59.5945 19.8029 57.8372C20.3976 55.8985 20.9322 53.8665 20.9949 51.8585C21.0976 48.6505 23.4776 47.0519 25.4576 45.4719C29.2696 42.4292 32.3202 42.1919 40.7936 43.0172Z" fill="white"/>
<path d="M19.6529 30.7839C18.4862 30.8599 17.6169 30.9172 16.5422 30.9852C16.5422 23.6545 16.3289 16.5185 16.6142 9.4012C16.8182 4.2852 21.0729 0.4612 26.4116 0.250533C31.4062 0.0531998 36.4222 0.0638658 41.4182 0.242532C46.8676 0.438532 51.1716 4.3732 51.3556 9.59186C51.5996 16.6132 51.4156 23.6479 51.4156 30.8639H48.6396C48.5169 30.5159 48.3369 30.2412 48.3356 29.9652C48.3102 23.9399 48.3182 17.9172 48.2902 11.8919C48.2636 6.11853 45.6329 3.4572 39.8756 3.40653C35.7916 3.37053 31.7062 3.34787 27.6236 3.41587C22.4409 3.49987 19.7062 6.24653 19.6649 11.4199C19.6156 17.7452 19.6529 24.0719 19.6529 30.7839Z" fill="white"/>
<path d="M43.7907 38.7493H24.1467V28.4373H43.7907V38.7493Z" fill="white"/>
<path d="M33.9636 109.293C29.4756 109.293 24.9809 109.408 20.5009 109.213C19.3503 109.164 18.2409 108.145 17.1143 107.57C18.2063 106.956 19.2903 105.826 20.3916 105.81C29.4689 105.665 38.5503 105.665 47.6276 105.813C48.7063 105.83 49.7663 107.005 50.8329 107.644C49.8009 108.2 48.7863 109.196 47.7343 109.236C43.1503 109.413 38.5543 109.313 33.9636 109.313V109.293Z" fill="white"/>
<path d="M22.3679 24.3815C30.1345 19.9228 37.7399 20.0881 45.4905 24.2628C41.4519 28.0375 27.9159 28.4561 22.3679 24.3815Z" fill="white"/>
<path d="M20.0696 89.2852C23.1616 87.4239 45.4496 87.5799 47.3736 89.2852H20.0696Z" fill="white"/>
<path d="M45.4128 40.6757C44.9942 41.0477 44.5768 41.7437 44.1542 41.7477C37.0422 41.8144 29.9302 41.7957 22.5315 41.0584C22.9515 40.6811 23.3688 39.9771 23.7928 39.9731C30.9035 39.9037 38.0142 39.9237 45.1248 39.9237C45.2208 40.1744 45.3182 40.4251 45.4128 40.6757Z" fill="white"/>
<path d="M30.0605 86H37.8885C37.8872 86.2453 37.8872 86.488 37.8859 86.7333H30.1072C30.0912 86.488 30.0765 86.2453 30.0605 86Z" fill="white"/>
<path d="M32.5912 74.4792C34.0006 74.6459 35.2459 75.8179 35.3966 77.1699C35.4659 77.7939 35.4166 78.4379 35.3779 79.0699C35.3232 79.9792 35.2379 80.8872 35.1499 81.7925C35.1179 82.1205 35.3606 82.0499 35.5272 82.0939C35.7152 82.1445 35.7646 82.0445 35.7966 81.8739C35.9472 81.0645 36.1099 80.2592 36.2699 79.4525C36.2832 79.3872 36.3152 79.3245 36.3526 79.2245C36.9379 79.6819 37.3726 80.2085 37.5726 80.9032C37.7592 81.5499 37.6632 82.1645 37.3392 82.7485C36.4272 84.3952 34.8539 85.0819 33.1192 84.7259C31.6926 84.4312 30.2752 83.0072 30.8526 80.8019C31.1206 79.7819 31.5526 78.8419 32.1846 77.9925C32.4206 77.6752 32.6166 77.3232 32.7859 76.9659C33.1432 76.2125 33.0966 75.4565 32.7099 74.7219C32.6739 74.6525 32.6419 74.5805 32.5912 74.4792Z" fill="white"/>
</svg>
