<svg width="93" height="126" viewBox="0 0 93 126" fill="none" xmlns="http://www.w3.org/2000/svg">
<path d="M44.7523 124.801C44.3322 124.582 43.7109 124.403 43.3717 124.403C42.6675 124.403 41.8111 123.439 41.4025 122.186C41.0596 121.135 40.2586 117.299 39.2481 111.869C38.825 109.596 38.1193 105.936 37.6798 103.736C36.8355 99.5096 35.8248 94.1583 35.1017 90.0854L34.6666 87.6347L33.958 87.9022C33.5683 88.0493 32.2472 88.656 31.0223 89.2504C29.7974 89.8449 26.7974 91.2005 24.3556 92.2628C21.9139 93.3251 17.0961 95.4228 13.6494 96.9242C6.82179 99.8985 5.23806 100.312 4.07296 99.4255C2.64858 98.3415 1.91626 97.479 1.92 96.8899C1.92667 95.8154 2.61144 93.2853 5.1029 85.1271C7.05609 78.7314 7.4909 77.006 7.35832 76.1769C7.24618 75.4753 7.33193 74.8834 7.62891 74.309C8.02475 73.5435 8.02721 73.3274 7.65649 71.897C7.43257 71.0328 7.24935 69.9089 7.24935 69.3995C7.24935 68.8901 6.86416 67.3474 6.39339 65.9713C5.6933 63.9249 5.52876 63.0081 5.48958 60.936C5.46318 59.5427 5.37783 58.2227 5.29972 58.0027C5.22159 57.7827 5.10043 55.1092 5.03035 52.0616C4.92649 47.5418 4.97166 46.4517 5.27612 46.1473C5.8065 45.6169 5.78661 45.5929 4.38269 45.0699C1.6956 44.069 0.468786 42.4986 1.12891 40.9049C1.52716 39.9435 3.18539 38.651 4.34839 38.3955C5.01072 38.2501 5.08269 38.166 4.76298 37.9111C4.26806 37.5165 3.74124 35.8253 2.71997 31.3526C2.02089 28.291 1.95583 27.7152 2.27299 27.3981C2.59015 27.0809 2.54968 26.632 1.99516 24.3147C1.6382 22.8231 1.0527 19.9826 0.694011 18.0026C0.139691 14.9427 0.0857261 14.1902 0.334473 12.9866C0.702206 11.2073 1.78844 9.92727 3.46175 9.30149C4.15159 9.0435 4.95658 8.58131 5.25057 8.27441C5.6552 7.85201 6.84107 7.50093 10.1301 6.82981C14.1508 6.00938 14.5107 5.97544 14.9523 6.37506C15.3937 6.77459 15.475 6.76742 16.0378 6.27931C16.7528 5.65918 16.8029 5.64226 19.9161 4.96974C23.3749 4.22255 25.0254 4.04009 25.2364 4.38153C25.475 4.76758 25.8032 4.74396 26.2377 4.30952C26.4356 4.11166 27.0142 3.81585 27.5234 3.65216C29.0992 3.14569 33.4444 2.26926 34.3796 2.26926C34.8683 2.26926 35.5618 2.07686 35.9207 1.84171C37.032 1.11356 42.0008 0.387005 44.5519 0.579605C46.5032 0.726925 46.8981 0.845372 47.6556 1.51045C49.0739 2.75573 49.3537 3.70723 49.9335 9.25671C50.3132 12.8906 50.6214 14.716 50.9826 15.4693C51.2639 16.0559 51.7713 18.2049 52.1101 20.2447L52.726 23.9535L55.2058 24.0439C58.0009 24.1459 67.5692 25.6584 77.1162 27.5074C78.2162 27.7204 80.4961 28.1336 82.1828 28.4255C83.8695 28.7174 85.4594 29.0198 85.7161 29.0974C86.6344 29.375 86.1509 29.9914 84.1162 31.137L82.0494 32.3005L82.0859 34.2849C82.1059 35.3763 82.4888 38.1892 82.9366 40.5359C83.3845 42.8826 84.1306 47.0826 84.5947 49.8692C85.0587 52.6559 85.5159 55.0094 85.6106 55.0992C85.7053 55.1891 87.0166 55.653 88.5247 56.1301C92.0439 57.2436 92.4628 57.5676 92.1789 58.9561C92.0612 59.5317 91.9948 60.2891 92.0311 60.6394C92.0805 61.1149 91.6928 61.6611 90.5002 62.7959C89.6218 63.6318 88.531 64.4698 88.0763 64.6581C87.6215 64.8465 87.2494 65.1653 87.2494 65.3665C87.2494 65.5678 87.5439 67.2632 87.9037 69.1342C88.5321 72.4019 88.8824 74.4053 91.2874 88.4852C92.5155 95.6754 92.5079 96.6619 91.2127 98.137C90.4638 98.99 86.8521 101.361 81.2494 104.678C79.9294 105.46 77.8294 106.776 76.5827 107.604C71.7769 110.794 66.9111 113.793 61.7827 116.726C58.8493 118.404 55.9093 120.118 55.2493 120.536C52.6943 122.153 48.3273 124.613 47.502 124.901C46.3467 125.304 45.6688 125.279 44.7523 124.801ZM50.7161 122.465C52.5495 121.429 54.5295 120.259 55.1162 119.865C55.7028 119.471 58.7028 117.712 61.7828 115.955C64.8628 114.198 69.0628 111.67 71.1162 110.336C73.1695 109.003 77.0095 106.617 79.6495 105.034C82.2895 103.451 85.8727 101.204 87.612 100.042C91.0801 97.7242 91.5161 97.1519 91.5161 94.9184C91.5161 93.8715 89.6999 82.5807 88.4519 75.8694C88.2474 74.7694 87.809 72.3394 87.4777 70.4694C87.1465 68.5994 86.774 67.0694 86.6502 67.0694C86.269 67.0694 85.1215 69.8181 85.1188 70.7379C85.1176 71.2156 85.4069 73.2556 85.7622 75.2712C88.4509 90.525 88.9446 95.2618 87.9592 96.3537C87.6895 96.6525 85.4297 98.0487 82.9374 99.4565C80.445 100.864 76.8257 103.053 74.8943 104.321C72.963 105.589 68.8628 108.12 65.7828 109.944C62.7028 111.768 58.4428 114.313 56.3161 115.599C54.1894 116.885 51.4895 118.45 50.3161 119.078C49.1428 119.706 47.8228 120.48 47.3828 120.798C46.9428 121.115 46.3628 121.457 46.094 121.556C45.8251 121.655 45.655 121.886 45.7161 122.07C45.9036 122.633 46.6709 122.603 47.5813 121.996L48.4495 121.418L47.5786 122.244C46.6601 123.115 45.8965 123.29 45.4406 122.736C45.0159 122.22 44.3762 119.736 43.9125 116.803C42.828 109.943 42.3518 107.113 41.5123 102.536C38.4278 85.7192 38.206 84.4484 37.1142 77.336C36.6639 74.4027 35.945 70.1427 35.5168 67.8694C34.3724 61.7944 32.8802 52.7886 32.8546 51.8026C32.8407 51.2689 32.0067 51.7227 31.0058 52.8086C29.7372 54.1849 29.7362 53.4025 31.0151 60.0446C32.0618 65.4829 33.683 76.2486 33.6791 77.736C33.678 78.396 33.8457 79.536 34.0533 80.2694C34.2608 81.0027 34.7985 83.8227 35.248 86.536C36.3649 93.2775 37.41 99.0087 38.6763 105.336C39.2633 108.269 40.059 112.349 40.4445 114.403C41.4916 119.98 42.175 122.731 42.6013 123.084C42.909 123.34 42.9832 123.307 42.9832 122.915C42.9832 122.527 43.1862 122.622 43.9832 123.383C44.5332 123.908 45.1632 124.398 45.3832 124.472C46.2361 124.757 47.5056 124.279 50.7161 122.465ZM89.0976 96.5988C90.2751 96.0003 90.3984 93.9453 89.3278 92.7642C88.7214 92.0953 89.0876 91.6926 89.9046 92.1298C90.7497 92.5821 91.0528 93.407 90.856 94.7191C90.6547 96.0612 89.939 96.938 89.0495 96.9321C88.4527 96.9283 88.453 96.9265 89.0976 96.5988ZM34.8985 79.0425C34.8179 78.7341 34.6241 78.5614 34.4674 78.6583C34.3108 78.755 34.1828 78.6988 34.1828 78.5332C34.1828 77.9461 35.38 78.3834 35.468 79.0027C35.5757 79.7608 35.0951 79.7944 34.8985 79.0425ZM47.1489 120.096C47.8642 119.78 48.9294 119.217 49.5161 118.844C50.1028 118.472 51.3628 117.728 52.3161 117.192C53.2695 116.656 54.8411 115.729 55.8086 115.132C56.7762 114.535 60.5562 112.279 64.2087 110.119C67.8611 107.958 72.3495 105.205 74.1828 104.001C76.0161 102.796 79.0161 100.964 80.8495 99.9285C86.5649 96.7018 86.7957 96.555 87.3629 95.7828C87.807 95.1782 87.9073 94.678 87.8712 93.2494C87.8228 91.3298 85.9085 79.3654 84.5772 72.6614C83.2553 66.0044 83.2441 65.981 81.8855 67.0244C80.4921 68.0944 76.1007 70.5017 75.0026 70.7974C74.3613 70.9701 73.1892 71.5896 72.398 72.1741C70.3652 73.6758 66.5795 75.6027 65.662 75.6027C64.9609 75.6027 64.244 76.0394 64.0066 76.611C63.8725 76.9339 59.5967 79.703 57.9917 80.5064C57.2265 80.8894 56.2666 81.2028 55.8584 81.2028C55.4501 81.2029 54.4657 81.4502 53.6707 81.7524C52.0261 82.3775 48.248 82.717 47.2495 82.3294C46.6831 82.1096 46.0314 82.3465 42.9161 83.9051C40.517 85.1054 39.2494 85.8858 39.2494 86.1626C39.2494 86.3953 39.4854 87.7445 39.7737 89.1608C40.5863 93.1528 42.7173 105.37 44.7347 117.603C44.9766 119.069 45.2285 120.359 45.2944 120.469C45.4758 120.772 45.7331 120.72 47.1489 120.096ZM9.91606 97.8091C11.6027 97.1477 14.1227 96.0675 15.5161 95.4088C16.9094 94.7501 19.1294 93.7526 20.4494 93.1921C21.7694 92.6316 23.6294 91.788 24.5828 91.3174C26.6456 90.2991 31.0897 88.3203 33.0494 87.5474C34.523 86.9663 34.5618 86.8884 34.2341 85.1652L34.0494 84.1944L32.8494 84.77C31.6786 85.3316 29.4903 86.2933 23.2494 88.9891C21.5628 89.7176 18.9828 90.835 17.5161 91.472C14.2911 92.8727 8.19594 95.2389 7.18274 95.4835C6.26506 95.705 6.17986 96.717 7.02881 97.3116C7.56741 97.6889 7.57423 97.7305 7.12585 97.9025C5.8508 98.3918 5.37204 96.9412 6.01269 94.5299C6.61316 92.2699 9.13461 84.0683 9.36959 83.6108C9.48492 83.3864 9.90613 81.9427 10.3057 80.4027C10.7053 78.8627 11.4349 76.3427 11.927 74.8027C12.8911 71.7854 13.1503 70.8608 15.3649 62.536C16.1648 59.5294 17.246 55.5897 17.7677 53.7813C18.2893 51.9729 18.7161 50.4262 18.7161 50.3442C18.7161 50.1288 15.9952 50.4824 15.7559 50.7289C15.6454 50.8428 15.3001 51.956 14.9886 53.2027C14.6771 54.4493 14.1146 56.4893 13.7385 57.736C13.3624 58.9827 12.5333 61.8627 11.8959 64.136C9.72918 71.8639 9.12896 73.7612 8.72266 74.1675C8.19383 74.6963 7.95012 75.7043 8.15434 76.5179C8.24887 76.8947 8.04474 78.04 7.66683 79.2513C3.94247 91.1914 2.62136 95.9891 2.82947 96.8183C2.91187 97.147 3.5502 97.841 4.24776 98.3607C5.74027 99.4725 5.65332 99.4809 9.91606 97.8091ZM9.53943 76.0046C9.67297 75.4725 9.58089 75.2897 9.07784 75.0882C8.48003 74.8488 8.47703 74.8357 9.01676 74.8196C9.76142 74.7974 10.2709 75.4381 10.0535 76.1232C9.80477 76.9068 9.33992 76.7995 9.53943 76.0046ZM11.1256 93.3191C13.1737 92.5031 15.7494 91.4263 16.8494 90.9262C17.9494 90.4261 21.3694 88.9442 24.4494 87.6331C27.5294 86.3219 30.9298 84.851 32.0058 84.3643L33.9622 83.4795L33.7842 82.0554C33.6864 81.2721 33.4333 80.2171 33.2218 79.7109C32.9701 79.1085 32.9206 78.6314 33.0785 78.33C33.5368 77.455 32.9877 76.8102 31.3462 76.2957C29.2703 75.6451 27.9044 74.9331 27.4285 74.2537C27.0026 73.6456 24.2965 72.6896 22.5828 72.5418C20.3236 72.347 15.4268 69.8682 15.0463 68.7268C14.8767 68.2179 14.4756 69.2349 13.0533 73.7795C12.0739 76.9089 11.1022 80.1294 10.8938 80.936C10.6854 81.7427 9.77506 84.7427 8.87089 87.6027C6.88905 93.8715 6.65837 94.8027 7.08724 94.8027C7.2602 94.8027 9.07745 94.1351 11.1256 93.3191ZM43.1039 83.0116L45.4916 81.8091L44.2033 81.2393C42.586 80.5238 42.5488 80.5251 40.4522 81.3644C38.8287 82.0143 38.7164 82.1138 38.7198 82.8977C38.7224 83.3588 38.7947 84.0022 38.882 84.3276C39.0685 85.0233 39.1752 84.99 43.1039 83.0116ZM52.9245 81.1907C55.4941 80.3456 56.5984 78.6042 55.1901 77.6178C54.4591 77.1058 53.6172 77.0969 52.0114 77.5842C50.7947 77.9535 47.9735 77.8112 46.5769 77.31C45.2434 76.8315 40.4518 74.7443 38.9719 73.9972C38.0682 73.541 37.289 73.2075 37.2405 73.2561C37.1919 73.3047 37.2809 74.2622 37.4384 75.3839L37.7245 77.4233L41.2491 79.0497C43.1875 79.9442 45.4206 80.9058 46.2115 81.1866C48.1644 81.8799 50.8239 81.8815 52.9245 81.1907ZM45.6877 79.6493C44.9878 79.1723 45.9444 78.9909 49.0874 79.0046C50.7899 79.0121 52.6328 78.9224 53.1828 78.8054C54.4125 78.5439 54.4875 78.8272 53.3161 79.3088C52.2842 79.733 46.2084 80.0043 45.6877 79.6493ZM40.0441 80.7738C40.6337 80.5378 41.1161 80.2628 41.1161 80.1626C41.1161 80.0625 40.4393 79.6485 39.6121 79.2428L38.108 78.5052L38.2758 79.5206C38.3682 80.0791 38.4449 80.686 38.4465 80.8694C38.4492 81.3081 38.7539 81.29 40.0441 80.7738ZM57.0613 79.5221C57.3261 78.9789 57.3387 78.5628 57.1157 77.7346C56.7089 76.2239 55.3966 75.3642 51.8875 74.3095C50.2899 73.8293 47.4458 72.9563 45.5672 72.3696C43.6887 71.7829 41.9487 71.3481 41.7006 71.4034C41.2285 71.5086 45.0595 72.8255 50.0399 74.2702C53.5208 75.2799 55.2671 76.1164 55.8951 77.0747C56.4045 77.8522 56.5412 79.1926 56.1906 79.9724C55.8254 80.7849 56.6548 80.3559 57.0613 79.5221ZM60.1509 78.2579C61.4076 77.5182 62.5289 76.7592 62.6427 76.5711C62.7564 76.383 63.0595 76.152 63.3161 76.0576C63.6346 75.9406 63.7828 75.6001 63.7828 74.9852C63.7828 73.4538 62.4896 72.4591 59.5961 71.765C58.7455 71.561 55.9416 70.781 53.3654 70.0317C48.7077 68.677 47.7828 68.4849 47.7828 68.8718C47.7828 69.0747 49.0276 69.4347 56.4188 71.3698C60.6063 72.4662 62.2209 73.1725 62.667 74.1034C63.0794 74.9638 63.2286 75.8694 62.9579 75.8694C62.8249 75.8694 62.7161 75.5856 62.7161 75.2387C62.7161 74.4239 61.8689 73.3551 60.9252 72.9793C60.5169 72.8167 58.9828 72.3758 57.5162 71.9995C56.0495 71.6231 53.0789 70.8255 50.9149 70.2271L46.9803 69.139L44.9818 70.0375C43.8827 70.5317 42.9832 71.0142 42.9831 71.1098C42.9828 71.2921 46.4287 72.3963 50.7161 73.5877C53.9651 74.4906 56.4163 75.634 56.9945 76.5165C57.2453 76.8992 57.4652 77.7494 57.4833 78.4059C57.5014 79.0623 57.5948 79.6002 57.691 79.6011C57.7873 79.6019 58.8942 78.9975 60.1509 78.2579ZM57.5002 75.936C57.1547 75.4051 57.1346 75.2941 57.4274 75.5337C57.6499 75.7158 57.8938 75.8029 57.9694 75.7273C58.045 75.6517 58.2739 75.8027 58.4781 76.0629C58.8229 76.5022 58.8125 76.5074 58.3329 76.136C57.8633 75.7724 57.8322 75.7785 57.9912 76.2027C58.2462 76.8831 58.0457 76.7742 57.5002 75.936ZM58.6822 75.6694C58.3505 75.2464 58.3599 75.237 58.7828 75.5687C59.227 75.9171 59.3683 76.136 59.1488 76.136C59.0935 76.136 58.8835 75.926 58.6822 75.6694ZM50.5253 76.4282C50.7769 76.0023 50.9828 75.5942 50.9828 75.5215C50.9828 75.3633 48.3107 74.7001 48.2342 74.8393C48.205 74.8925 47.9063 75.328 47.5706 75.8071L46.9603 76.6782L47.5715 76.9236C47.9077 77.0585 48.6069 77.1765 49.1253 77.1858C49.8919 77.1996 50.1532 77.0582 50.5253 76.4282ZM52.7828 76.673C53.3935 76.6663 53.1263 76.1487 52.4209 75.9717C51.9606 75.8562 51.6464 75.9221 51.4916 76.1666C51.1005 76.7842 51.219 77.0064 51.8494 76.8374C52.1794 76.749 52.5995 76.675 52.7828 76.673ZM46.9915 75.4553C47.3135 74.9343 47.5252 74.4562 47.462 74.393C47.3988 74.3297 45.6513 73.7002 43.5788 72.9941L39.8107 71.7101L38.8634 72.1961C38.3424 72.4634 37.9161 72.7376 37.9161 72.8055C37.9161 72.8733 38.3061 73.101 38.7828 73.3113C39.2595 73.5217 40.9694 74.2984 42.5828 75.0374C44.1961 75.7765 45.7163 76.386 45.9611 76.3919C46.2058 76.3979 46.6694 75.9764 46.9915 75.4553ZM32.7716 74.8694C32.6921 74.466 32.4823 73.1389 32.3053 71.9202C32.0592 70.226 31.897 69.7394 31.6165 69.8535C30.5848 70.2729 30.3894 70.2646 31.0494 69.8294C31.4528 69.5634 31.7828 69.1386 31.7828 68.8853C31.7828 68.499 31.5643 68.5605 30.4288 69.2664C28.4309 70.5083 27.7381 71.4397 27.8359 72.7519C27.9519 74.3084 28.4771 74.2812 28.6858 72.7078C28.7818 71.9843 29.0281 71.253 29.2332 71.0828C29.5499 70.82 29.5488 70.9637 29.2252 72.0377C29.0159 72.7331 28.916 73.5266 29.0031 73.801C29.1552 74.2804 29.4596 74.4533 31.5157 75.2278C32.8315 75.7233 32.9341 75.6941 32.7716 74.8694ZM65.3684 74.6868C65.543 74.4764 65.6477 73.9156 65.601 73.4407C65.535 72.7687 65.3515 72.5226 64.774 72.3314C64.3659 72.1963 63.8554 72.1534 63.6398 72.2362C63.309 72.3631 63.3311 72.5236 63.7809 73.2614C64.0742 73.7424 64.3146 74.346 64.3151 74.6027C64.3162 75.1666 64.9296 75.2155 65.3684 74.6868ZM67.4218 73.525C67.1412 71.7954 65.3938 70.5712 61.6495 69.4809C60.5495 69.1606 59.0438 68.6777 58.3035 68.4079C56.2992 67.6773 46.3283 64.7592 44.1828 64.2753C43.1561 64.0438 42.0761 63.7828 41.7828 63.6954C41.4895 63.6079 41.324 63.6158 41.415 63.713C41.5061 63.8101 42.6461 64.1752 43.9484 64.5245C47.7361 65.5404 64.0978 71.0659 65.0559 71.6528C65.9861 72.2225 66.7162 73.3637 66.7162 74.2478C66.7162 74.6326 66.8383 74.7392 67.1446 74.6216C67.4693 74.497 67.5364 74.2313 67.4218 73.525ZM69.9628 73.019C70.8393 72.478 71.6973 71.848 71.8696 71.619C72.0419 71.39 72.3628 71.2027 72.5828 71.2027C73.1494 71.2027 73.2449 69.8389 72.733 69.0577C72.1104 68.1075 71.09 67.6781 67.3161 66.7784C63.9858 65.9844 59.0644 64.6831 51.1634 62.5075C48.9895 61.9089 47.1498 61.4802 47.0751 61.5548C46.9323 61.6976 49.6692 62.5659 53.9161 63.7251C55.3095 64.1054 57.5295 64.7126 58.8495 65.0744C60.1695 65.4362 63.1095 66.1683 65.3828 66.7013C70.819 67.9759 72.3278 68.7805 72.3103 70.3954C72.3077 70.7505 72.1368 70.567 71.816 69.8608C71.1806 68.4619 70.4433 68.148 64.5828 66.7813C59.896 65.6884 53.5944 63.9854 48.817 62.5208L46.2511 61.7342L44.4169 62.4211C43.4082 62.799 42.4811 63.2071 42.3568 63.3281C42.2324 63.4491 43.0124 63.7475 44.0901 63.9912C46.8181 64.6082 52.6941 66.3151 57.9773 68.0253C60.431 68.8195 62.5911 69.4694 62.7774 69.4696C62.9637 69.4697 63.8459 69.815 64.7378 70.237C66.4727 71.0577 67.4625 72.0682 67.7014 73.2623C67.7828 73.6695 67.9664 74.0027 68.1092 74.0027C68.2521 74.0027 69.0863 73.5601 69.9628 73.019ZM67.3575 71.2694L66.8495 70.6694L67.4495 71.1774C67.7795 71.4568 68.0495 71.7268 68.0495 71.7774C68.0495 71.9908 67.8348 71.8332 67.3575 71.2694ZM67.7464 70.8664C67.4221 70.4527 67.4304 70.4399 67.8236 70.7472C68.1838 71.0287 68.2896 71.0287 68.4025 70.7472C68.4975 70.5107 68.5474 70.5023 68.5618 70.7203C68.5981 71.2665 68.1263 71.351 67.7464 70.8664ZM70.6368 69.2916C70.7117 69.096 70.8075 68.936 70.8495 68.936C70.8915 68.936 70.9872 69.096 71.0622 69.2916C71.1371 69.4871 71.0415 69.6471 70.8495 69.6471C70.6575 69.6471 70.5617 69.4871 70.6368 69.2916ZM28.0494 69.5756C28.0494 69.5172 27.8394 69.4665 27.5828 69.4631C27.3261 69.4591 26.3961 69.1579 25.5161 68.7925L23.9161 68.1283L23.1671 68.9539C22.664 69.5084 22.4452 70.0071 22.5004 70.4729C22.5714 71.0716 22.8519 71.2635 24.5518 71.8772L26.5208 72.5879L27.2851 71.1349C27.7055 70.3358 28.0494 69.6341 28.0494 69.5756ZM9.34273 70.4694C9.83877 68.9533 9.73479 68.3751 9.17489 69.536C8.89242 70.1217 8.88506 70.1181 8.86743 69.3852C8.8497 68.6475 9.25878 67.604 9.67285 67.3305C9.78845 67.2541 9.59047 65.9535 9.23295 64.4403C8.87534 62.9271 8.58272 61.0396 8.58272 60.2459C8.58272 58.5675 8.27661 58.4216 7.00321 59.4931C5.90635 60.416 5.92115 61.5408 7.08012 65.336C7.57281 66.9494 8.05932 69.0275 8.16125 69.954C8.35123 71.6809 8.61822 72.7059 8.76082 72.2559C8.80496 72.1166 9.06681 71.3127 9.34273 70.4694ZM40.5828 70.7474C42.2694 69.9255 44.7894 68.8632 46.1828 68.3867C49.0525 67.4054 49.6109 67.0694 48.3719 67.0694C47.3833 67.0694 40.6591 69.6314 38.4268 70.8586C37.4368 71.4029 36.9513 71.8245 37.042 72.061C37.119 72.2613 37.257 72.384 37.349 72.3335C37.4408 72.2831 38.8961 71.5693 40.5828 70.7474ZM62.9751 71.8798C63.1908 71.7433 63.3108 71.5819 63.2417 71.5211C63.1727 71.4602 61.2625 70.7948 58.9969 70.0425C55.0017 68.7157 54.4728 68.6549 54.4536 69.5199C54.4509 69.621 55.4395 69.9987 56.6495 70.3591C57.8595 70.7196 59.6295 71.2542 60.5828 71.5471C62.7215 72.2043 62.5087 72.1747 62.9751 71.8798ZM21.9161 70.5368C21.9161 69.6943 22.1107 69.2556 22.8443 68.4435C23.3548 67.8785 24.1648 67.3012 24.6443 67.1608L25.5161 66.9054L24.8943 66.5664C24.3501 66.2696 24.1429 66.3131 23.2329 66.9153C22.6611 67.2937 21.9509 68.0784 21.6547 68.659C21.1248 69.6976 20.945 71.0761 21.2939 71.4249C21.7059 71.837 21.9161 71.537 21.9161 70.5368ZM21.6456 68.0629C22.001 67.5443 22.6454 66.9111 23.0776 66.6557L23.8635 66.1915L22.2845 65.4747C19.7819 64.3387 19.3877 64.3003 17.7813 65.0357C15.875 65.9084 14.9689 67.6767 15.7828 68.936C15.9862 69.2508 16.0421 69.1882 16.0453 68.6425C16.0533 67.2766 16.61 66.3015 17.851 65.4796C18.5238 65.0339 19.2636 64.6705 19.4952 64.6719C19.7267 64.6732 19.2903 65.0333 18.5254 65.4719C17.0051 66.3439 16.7236 66.7139 16.443 68.2097L16.2559 69.207L18.486 70.2571L20.7161 71.3072L20.8578 70.1565C20.9358 69.5236 21.2903 68.5815 21.6456 68.0629ZM43.6459 68.2039C44.9679 67.6927 46.3495 67.1559 46.7161 67.011C47.3372 66.7655 47.2641 66.7072 45.6495 66.1594C44.1346 65.6455 43.7816 65.612 42.8494 65.8939C41.3028 66.3615 36.541 68.089 36.3943 68.2356C36.3257 68.3043 36.4079 69.0273 36.5771 69.8423L36.8848 71.3242L39.0636 70.2287C40.2619 69.6262 42.324 68.715 43.6459 68.2039ZM75.2495 68.6738C75.2495 67.865 74.5662 67.2515 73.6928 67.2764C72.4312 67.3122 72.193 67.5703 72.8116 68.2308C73.1062 68.5454 73.479 69.1502 73.6399 69.5748L73.9325 70.347L74.5909 69.7284C74.9531 69.3881 75.2495 68.9136 75.2495 68.6738ZM76.5734 69.2202C77.0603 68.3106 76.8854 67.3309 76.0952 66.5407C75.1532 65.5987 74.084 65.288 70.0495 64.7837C66.3652 64.3232 62.9772 63.7229 61.6916 63.3029C61.0949 63.108 60.7118 63.1003 60.5325 63.2796C60.2074 63.6047 61.2428 63.8397 67.2495 64.804C73.8675 65.8666 74.4087 65.9932 75.1843 66.6603C75.7653 67.1601 75.9018 67.5079 75.9082 68.5052C75.9176 69.821 76.1295 70.0497 76.5734 69.2202ZM30.5828 68.5738C31.0925 68.1904 31.0485 68.1415 29.5905 67.4716L28.0647 66.7706L26.5904 67.2353C25.7795 67.491 25.1161 67.785 25.1161 67.8889C25.1161 68.2221 29.2295 69.3924 29.6495 69.1787C29.8695 69.0667 30.2894 68.7945 30.5828 68.5738ZM53.8628 69.1494C54.3777 68.6345 54.2518 68.4763 52.9834 68.0441C51.8353 67.653 51.7716 67.6586 51.4951 68.1752C51.157 68.807 51.1217 68.7659 52.3161 69.1302C53.5685 69.5122 53.5008 69.5115 53.8628 69.1494ZM79.2114 67.884C81.0432 66.8905 81.452 66.2808 81.0533 65.1369C80.7498 64.2665 80.5092 64.0937 79.2586 63.8487L78.3162 63.664L79.1468 63.6333C80.0509 63.6 81.3828 64.4669 81.3828 65.0887C81.3828 65.2981 81.5029 65.4694 81.6495 65.4694C82.0634 65.4694 81.9671 65.0727 81.3685 64.3117C80.775 63.5572 79.9782 63.2882 76.0593 62.5191C74.6605 62.2446 71.7855 61.6569 69.6703 61.2131L65.8244 60.4062L63.859 61.3908C62.0418 62.301 60.9939 63.0645 61.5502 63.0729C61.6782 63.0755 62.9228 63.3123 64.3161 63.6006C65.7095 63.8889 68.1095 64.2533 69.6495 64.4103C75.0278 64.9586 77.1162 65.9796 77.1162 68.0609C77.1162 68.5667 77.2065 68.9405 77.3169 68.8916C77.4273 68.8427 78.2798 68.3893 79.2114 67.884ZM76.4495 63.336C75.7309 63.1532 75.7174 63.1319 76.3162 63.1275C76.6829 63.1248 77.2829 63.2185 77.6495 63.336C78.1719 63.5033 78.2008 63.5485 77.7828 63.5446C77.4895 63.5419 76.8895 63.448 76.4495 63.336ZM71.7828 62.5182C67.1623 61.5951 66.4063 61.4236 66.508 61.3219C66.5635 61.2664 68.643 61.626 71.1292 62.121C73.6154 62.6159 75.3495 63.0217 74.9829 63.0226C74.6162 63.0237 73.1762 62.7966 71.7828 62.5182ZM50.6116 68.2027C51.1668 67.4713 51.0534 67.3643 50.0495 67.6724C49.031 67.985 48.8531 68.2949 49.5828 68.4855C49.8395 68.5526 50.0962 68.6214 50.1534 68.6384C50.2105 68.6555 50.4167 68.4594 50.6116 68.2027ZM40.2551 66.4614C41.9082 65.8732 43.2029 65.3339 43.132 65.263C42.7685 64.8995 35.9606 67.2431 36.2096 67.6461C36.2979 67.7889 36.5679 67.8214 36.8098 67.7184C37.0516 67.6153 38.602 67.0497 40.2551 66.4614ZM31.5266 67.0889C31.3753 66.8064 30.6211 66.3379 29.8505 66.048C29.0799 65.7581 27.6216 65.2079 26.6098 64.8255C24.0725 63.8664 21.7837 63.3012 21.2564 63.5036C20.9826 63.6086 22.4216 64.2037 25.0418 65.069C27.3668 65.8368 29.7447 66.7156 30.3259 67.022C31.6529 67.7215 31.8716 67.7337 31.5266 67.0889ZM72.5828 66.9459C73.424 66.4774 73.3112 66.4397 69.3828 65.8779C66.7623 65.5031 62.3969 64.6143 60.0494 63.9776C59.6033 63.8567 59.471 63.8853 59.6495 64.0647C59.7961 64.212 61.7762 64.7802 64.0495 65.3274C66.3228 65.8745 68.9028 66.5377 69.7828 66.801C71.7736 67.3967 71.7733 67.3967 72.5828 66.9459ZM38.3161 65.9907L39.1161 65.6794L37.8643 65.3527C37.1759 65.173 36.4229 64.8687 36.1912 64.6764C35.9595 64.484 35.7008 64.3958 35.6163 64.4803C35.317 64.7795 35.8188 65.1921 36.8623 65.5047C38.1707 65.8967 38.0617 66.1416 36.7412 65.777C35.7449 65.5019 35.5735 65.6804 35.9335 66.6185C36.062 66.9533 36.1897 66.9589 36.8002 66.6566C37.1939 66.4616 37.8761 66.162 38.3161 65.9907ZM31.1736 64.6252L30.9013 62.8477L28.685 62.2919C26.3538 61.7072 24.9876 61.5791 25.2278 61.9677C25.3066 62.095 25.8696 62.279 26.4791 62.3765C27.0886 62.474 27.5313 62.6097 27.4628 62.6782C27.3944 62.7466 26.65 62.6645 25.8086 62.4955C24.4716 62.227 24.1554 62.2491 23.2975 62.671L22.3161 63.1538L23.2494 63.3637C24.3891 63.62 29.553 65.5284 30.6138 66.0853C31.0367 66.3074 31.397 66.4696 31.4143 66.4459C31.4316 66.4221 31.3232 65.6028 31.1736 64.6252ZM28.4494 63.1933C27.7826 62.8721 27.7604 62.8351 28.3161 62.9709C29.0717 63.1556 29.921 63.5885 29.5161 63.5825C29.3694 63.5799 28.8894 63.4052 28.4494 63.1933ZM11.0958 64.4425C10.8748 64.1772 10.2821 65.125 10.3962 65.5613C10.5097 65.9954 10.5757 65.9579 10.8514 65.3025C11.0287 64.8809 11.1387 64.4939 11.0958 64.4425ZM83.7828 64.3765C83.7828 63.7886 82.8034 63.0693 82.003 63.0693H81.4084L82.1027 64.4075C82.7636 65.6814 82.8205 65.7242 83.2898 65.2995C83.561 65.0541 83.7828 64.6387 83.7828 64.3765ZM41.1161 65.0793C42.1456 64.6938 42.0159 64.5893 40.0165 64.1929C39.1444 64.0199 38.5591 64.0443 38.0165 64.2762L37.2494 64.6039L37.9161 64.865C39.2299 65.3796 39.3881 65.4273 39.7828 65.428C40.0028 65.4286 40.6028 65.2715 41.1161 65.0793ZM85.0716 64.688C85.3432 62.8331 84.0463 61.9409 79.5734 60.9057C78.2116 60.5905 77.1563 60.2736 77.2284 60.2015C77.3005 60.1294 78.4747 60.3443 79.8378 60.679C84.0968 61.7246 85.4121 62.5282 85.4773 64.1242C85.4956 64.5707 85.5452 64.936 85.5876 64.936C86.0832 64.936 88.8498 63.2218 88.9711 62.8395C89.3962 61.5003 88.3953 60.7346 84.4495 59.3805C78.5019 57.3395 71.9393 55.5811 67.2552 54.7734C65.3033 54.4368 63.8407 54.1167 64.0048 54.062C64.4932 53.8992 71.624 55.2865 74.5425 56.1121C82.778 58.4417 87.0583 59.8699 88.6746 60.8273C88.945 60.9875 89.2628 61.5275 89.3807 62.0273L89.5949 62.936L89.6223 62.0911C89.6796 60.3181 89.204 59.9776 85.0236 58.7984C83.5345 58.3784 80.7562 57.5464 78.8496 56.9495C74.299 55.5249 70.7976 54.6774 66.7162 54.0125C63.0591 53.4167 62.2745 53.3613 63.1162 53.7584C63.5514 53.9638 63.5024 53.9876 62.8495 53.8879C62.2451 53.7956 61.7071 53.9983 60.6495 54.7167C59.8795 55.2397 59.2495 55.7565 59.2495 55.8652C59.2495 55.9739 60.1795 56.2159 61.3162 56.403C62.4529 56.5902 63.2571 56.7886 63.1034 56.8439C62.9497 56.8993 61.9297 56.7731 60.8367 56.5636C59.7438 56.3541 58.7482 56.2794 58.6245 56.3977C58.5007 56.5159 59.2807 56.7581 60.3578 56.9358C64.9317 57.6904 80.8167 61.5361 82.8238 62.3747C83.9554 62.8475 84.6891 63.9054 84.5155 64.8137C84.4339 65.2407 84.4963 65.4542 84.6845 65.3923C84.8486 65.3383 85.0228 65.0214 85.0716 64.688ZM85.4096 62.1905C85.0723 61.6288 85.078 61.6232 85.5372 62.0629C85.8016 62.3161 85.9604 62.5806 85.8903 62.6508C85.8201 62.7209 85.6038 62.5139 85.4096 62.1905ZM75.6495 59.8693C75.3134 59.7249 75.264 59.6401 75.5161 59.6401C75.7361 59.6401 76.1562 59.7432 76.4495 59.8693C76.7857 60.0138 76.8349 60.0985 76.5828 60.0985C76.3628 60.0985 75.9429 59.9954 75.6495 59.8693ZM72.7702 59.1444C71.9199 58.9214 71.2767 58.6866 71.3407 58.6225C71.4604 58.5028 74.7614 59.2966 74.9606 59.4931C75.1577 59.6875 74.3533 59.5595 72.7702 59.1444ZM66.7162 57.7309C64.8828 57.3199 63.5917 56.9729 63.8471 56.9598C64.3508 56.9339 70.7784 58.2656 70.9606 58.4335C71.2063 58.6601 69.8865 58.4415 66.7162 57.7309ZM17.9455 64.1694C20.4003 63.0358 24.9285 61.1691 28.0494 60.0043C29.1494 59.5937 30.0853 59.2295 30.1291 59.195C30.1728 59.1605 30.128 58.8109 30.0295 58.4182C29.8967 57.889 29.738 57.752 29.4165 57.8891C29.1779 57.9909 27.2427 58.7066 25.116 59.4795C21.5415 60.7788 16.252 62.7949 16.1307 62.9043C16.0419 62.9843 15.5687 65.2027 15.6404 65.2027C15.6776 65.2027 16.715 64.7377 17.9455 64.1694ZM44.5828 60.9117C46.8352 60.0901 45.9385 59.8804 43.5518 60.6706C41.5176 61.3441 36.3161 63.8343 36.3161 64.1347C36.3161 64.2456 37.7861 63.7081 39.5828 62.9402C41.3794 62.1722 43.6294 61.2595 44.5828 60.9117ZM37.7992 62.8974C38.7717 62.3629 40.7074 61.4771 42.1008 60.9291C43.4942 60.381 44.5327 59.871 44.4085 59.7957C44.2844 59.7204 43.5476 59.4711 42.7712 59.2417C41.3869 58.8326 41.3199 58.839 39.3045 59.5738C38.1742 59.986 37.0094 60.4093 36.7161 60.5147C36.373 60.6379 36.4206 60.5604 36.8494 60.2975C37.2161 60.0728 38.2961 59.6246 39.2494 59.3016C40.2028 58.9786 40.8333 58.6643 40.6506 58.6033C39.9038 58.3538 34.9828 60.3911 34.9828 60.9499C34.9828 61.1285 35.1881 61.1219 35.5828 60.9307C36.1642 60.6489 36.1665 60.6529 35.6566 61.0608C35.2657 61.3735 35.1525 61.7371 35.2159 62.4755C35.3636 64.1968 35.419 64.2058 37.7992 62.8974ZM60.3709 62.6511C61.3695 61.9811 63.2357 60.9367 64.518 60.3302C67.0398 59.1373 67.0137 58.6133 64.4882 59.7302C63.0515 60.3656 58.1828 63.4639 58.1828 63.7429C58.1828 64.0377 58.6566 63.8013 60.3709 62.6511ZM10.9738 63.3472C11.2801 63.1534 13.7556 55.8494 13.5634 55.7065C13.5374 55.6872 12.6161 56.1059 11.5161 56.637L9.51607 57.6027L9.3811 58.9416C9.22422 60.4978 9.81889 63.6046 10.2725 63.5986C10.4432 63.5959 10.7587 63.4832 10.9738 63.3472ZM59.7067 62.085C60.8354 61.2504 62.5443 60.1743 63.5042 59.6937C64.5579 59.1662 65.0382 58.8088 64.7162 58.7918C64.4228 58.7764 63.5228 58.6666 62.7161 58.5479C61.4155 58.3565 61.038 58.4208 59.3828 59.1163C58.3561 59.5477 56.4961 60.4581 55.2495 61.1394L52.9828 62.3781L54.8495 62.9671C55.8762 63.291 56.9272 63.5666 57.1853 63.5794C57.4434 63.5927 58.5781 62.9197 59.7067 62.085ZM55.2495 61.6312C55.2495 61.5735 55.4357 61.4549 55.6633 61.3676C55.9006 61.2765 56.0077 61.3212 55.9143 61.4724C55.7577 61.7258 55.2495 61.8472 55.2495 61.6312ZM81.1071 62.8139C81.6359 62.4794 81.3394 62.382 74.5482 60.659C69.1951 59.3009 68.8587 59.2476 67.8136 59.5925C67.2085 59.7922 66.7531 59.9952 66.8016 60.0436C66.85 60.092 67.8406 60.3037 69.0029 60.5141C72.4488 61.1379 80.1206 62.7849 80.2683 62.9326C80.4614 63.1256 80.6583 63.0978 81.1071 62.8139ZM30.7161 61.8908C30.7161 61.6738 30.1527 61.3251 29.3966 61.0739C28.3124 60.7138 27.9677 60.6951 27.4633 60.9687C26.8877 61.2809 26.9575 61.3303 28.5828 61.7598C30.7859 62.342 30.7161 62.3376 30.7161 61.8908ZM56.4165 60.136C60.6308 57.9951 61.4008 57.2828 57.8275 58.8305C55.5901 59.7997 52.0575 61.781 52.0527 62.0693C52.0487 62.365 51.897 62.4319 56.4165 60.136ZM50.4495 61.2797C49.4663 60.8448 46.9883 60.4611 47.2959 60.7914C47.5121 61.0235 50.099 61.6739 50.8494 61.6847C51.2021 61.6901 51.0666 61.5526 50.4495 61.2797ZM91.1962 61.416C91.6404 60.9718 91.5964 60.6553 91.1162 60.8396C90.5195 61.0685 90.6161 60.2255 91.2961 59.2706L91.8759 58.4563L91.2806 57.9742C90.6775 57.4859 87.6961 56.4908 84.0495 55.5609C78.4425 54.131 79.0444 54.2006 77.8908 54.8489C77.3181 55.1708 76.8495 55.5026 76.8495 55.5862C76.8495 55.67 78.9795 56.3898 81.5828 57.1861C84.1861 57.9824 86.4504 58.6787 86.6145 58.7334C86.7785 58.788 86.98 58.5756 87.0622 58.2612C87.2646 57.4872 88.2067 57.6659 88.1225 58.4624C88.0805 58.8596 88.3373 59.2037 88.9655 59.592C89.4624 59.8991 89.9934 60.5071 90.1454 60.9432C90.4444 61.801 90.6973 61.9148 91.1962 61.416ZM17.364 60.736C17.3547 60.4793 17.2422 60.0293 17.1161 59.736C16.9322 59.3081 16.8832 59.4005 16.8682 60.2027C16.8575 60.7527 16.9694 61.2027 17.1161 61.2027C17.2628 61.2027 17.3743 60.9927 17.364 60.736ZM55.2495 59.3281L56.4495 58.7193L55.1162 58.2483C54.3828 57.9893 53.925 57.768 54.0988 57.7566C54.2725 57.746 54.6925 57.8384 55.0321 57.9636C56.2176 58.4007 57.1642 58.5628 57.0025 58.3011C56.6879 57.7921 48.4508 55.3585 45.6086 54.9348C44.2695 54.7352 42.5076 55.1351 40.1698 56.1692L38.8572 56.7498L44.4533 58.1411C47.5312 58.9062 50.6495 59.7816 51.3828 60.0863C53.0904 60.7957 52.597 60.829 50.5929 60.1395C48.5749 59.4452 43.7595 58.1646 40.5953 57.4808C37.6385 56.8418 37.9161 56.8706 37.9161 57.2027C37.9161 57.3493 38.1486 57.4693 38.4327 57.4693C38.9869 57.4693 47.6691 59.7686 50.3161 60.6164L51.9161 61.1289L52.9828 60.5329C53.5695 60.2051 54.5895 59.663 55.2495 59.3281ZM50.8494 56.936C50.5133 56.7915 50.464 56.7068 50.7161 56.7068C50.9361 56.7068 51.3561 56.8099 51.6495 56.936C51.9856 57.0804 52.0349 57.1652 51.7828 57.1652C51.5628 57.1652 51.1428 57.0621 50.8494 56.936ZM47.5161 56.0027C46.4161 55.6562 45.6961 55.3667 45.9161 55.3594C46.1361 55.3514 47.2161 55.634 48.3161 55.986C49.4161 56.338 50.1361 56.6274 49.9161 56.6293C49.6961 56.6319 48.6161 56.3491 47.5161 56.0027ZM44.5161 55.1594C44.6994 55.0854 44.9994 55.0854 45.1828 55.1594C45.3661 55.2334 45.2161 55.2939 44.8494 55.2939C44.4828 55.2939 44.3328 55.2333 44.5161 55.1594ZM21.9818 59.2802C22.6387 59.0449 22.7005 58.9175 22.5817 58.0436C22.5088 57.5077 22.3375 56.1875 22.2009 55.1098C22.0643 54.032 21.8949 53.0925 21.8244 53.0221C21.5788 52.7765 18.6742 53.8492 18.45 54.2683C18.3257 54.5005 17.9978 55.5858 17.7214 56.6799C17.3491 58.1535 17.2779 58.9589 17.4465 59.786L17.6742 60.9027L19.4618 60.2227C20.445 59.8486 21.579 59.4245 21.9818 59.2802ZM30.4494 60.4471C30.4494 60.0718 30.1492 59.8989 29.7582 60.049C29.5534 60.1275 29.4522 60.2993 29.5334 60.4306C29.7195 60.7318 30.4494 60.7448 30.4494 60.4471ZM35.6369 59.8265C36.475 59.4447 36.4994 59.1806 35.7161 58.9707C34.7868 58.7217 34.7161 58.7569 34.7161 59.4693C34.7161 60.2355 34.7281 60.2404 35.6369 59.8265ZM25.588 58.7404C26.4367 58.4335 26.4878 58.3485 26.3511 57.4737C26.2706 56.9579 26.1244 55.7383 26.0263 54.7633C25.9283 53.7884 25.7569 52.8433 25.6456 52.6631C25.4024 52.2696 23.3798 52.1556 23.3898 52.536C23.435 54.2475 24.1773 59.0694 24.3957 59.0694C24.5511 59.0694 25.0876 58.9213 25.588 58.7404ZM37.2361 58.8162C37.0968 58.6771 36.4428 58.4935 35.7828 58.4083L34.5828 58.2533L35.5161 58.6295C36.6298 59.0783 37.6045 59.1841 37.2361 58.8162ZM23.4248 58.2026C23.3428 57.8726 23.1926 56.4926 23.091 55.1359C22.9524 53.2857 22.8128 52.6692 22.5324 52.6692C22.2577 52.6692 22.1983 52.8991 22.3083 53.5359C22.5256 54.7934 22.9713 58.0795 22.9775 58.4692C22.9801 58.6526 23.1158 58.8026 23.2783 58.8026C23.4512 58.8026 23.5121 58.5536 23.4248 58.2026ZM39.0961 58.3016C39.1757 58.1728 38.8967 57.9986 38.4762 57.9145C38.0557 57.8304 37.3976 57.6828 37.0139 57.5865C36.6218 57.4882 36.3161 57.5242 36.3161 57.669C36.3161 57.8107 36.8261 58.0493 37.4495 58.1992C38.9865 58.5689 38.933 58.5655 39.0961 58.3016ZM39.1676 55.7557C40.8992 55.1057 43.936 53.8921 45.916 53.0588C47.896 52.2256 50.2796 51.2315 51.2128 50.8497C52.8827 50.1666 53.4152 49.6609 52.9515 49.1986C52.8158 49.0634 50.1743 49.9769 46.716 51.3551C43.416 52.6702 39.336 54.231 37.6493 54.8235C35.9627 55.4161 34.4774 56.0049 34.3488 56.1322C34.2203 56.2594 34.193 56.6739 34.2882 57.0534C34.4562 57.723 34.4843 57.7314 35.2403 57.3405C35.6687 57.1189 37.436 56.4058 39.1676 55.7557ZM59.4438 57.5747C59.3553 57.4861 59.1251 57.4766 58.9327 57.5538C58.7199 57.6389 58.7831 57.7021 59.0938 57.7149C59.3749 57.7269 59.5324 57.6633 59.4438 57.5747ZM8.50663 57.0395C10.5105 56.3648 13.916 54.7539 13.916 54.4808C13.916 54.1886 13.0823 54.4202 11.7826 55.0733C10.4573 55.7394 7.33365 56.6692 6.42118 56.6692C5.68137 56.6692 5.44861 56.9129 5.82707 57.2914C6.12493 57.5893 7.16409 57.4916 8.50663 57.0395ZM27.429 55.5358L27.2878 53.6025L27.6019 55.36L27.916 57.1175L28.716 56.8568C29.156 56.7134 29.5543 56.5642 29.6012 56.5252C29.6481 56.4863 29.5436 55.7291 29.3693 54.8426C29.079 53.3674 28.9843 53.2159 28.2508 53.0548C27.7069 52.9354 27.3757 52.9951 27.2201 53.2407C27.0415 53.5226 26.9899 53.4994 26.9867 53.1359C26.9841 52.8792 26.8172 52.6692 26.6149 52.6692C26.326 52.6692 26.2939 52.9119 26.4649 53.8025C26.5847 54.4259 26.7574 55.5059 26.8489 56.2025C27.121 58.274 27.5895 57.7355 27.429 55.5358ZM61.3148 52.998C62.4522 52.1733 63.9605 51.2978 64.6666 51.0523C65.5088 50.7597 65.8085 50.5516 65.538 50.4478C65.3111 50.3607 64.6566 50.4545 64.0837 50.6571C62.6775 51.1532 54.5813 56.5798 55.0261 56.7281C55.4415 56.8665 58.3978 55.113 61.3148 52.998ZM8.75452 55.8381C9.75996 55.5276 11.3826 54.9161 12.3604 54.479L14.1381 53.6843L14.6937 51.6253C14.9993 50.4928 15.2493 49.4343 15.2493 49.2731C15.2493 49.1118 13.9593 48.555 12.3826 48.0357C9.5591 47.1057 9.49402 47.0974 8.05867 47.4801C7.25715 47.6939 6.38715 47.8007 6.12533 47.7176C5.68146 47.5768 5.64929 47.8651 5.64929 51.9845V56.4025H6.28784C6.63907 56.4025 7.74906 56.1485 8.75452 55.8381ZM6.93408 55.5444C7.07629 55.4022 7.41538 55.333 7.68762 55.3907C8.05423 55.4685 7.9872 55.5355 7.42908 55.6493C6.94246 55.7485 6.76712 55.7113 6.93408 55.5444ZM7.46594 54.887C7.65845 54.8101 7.88844 54.8194 7.97705 54.9079C8.06572 54.9965 7.90814 55.0596 7.62707 55.048C7.31641 55.0347 7.25321 54.9721 7.46594 54.887ZM9.86593 51.4203C10.0584 51.3434 10.2885 51.3527 10.3771 51.4413C10.4656 51.5299 10.3081 51.5929 10.0271 51.5813C9.71641 51.568 9.65319 51.5054 9.86593 51.4203ZM58.182 53.8511C60.2864 52.4478 62.4974 51.0448 63.0954 50.7333L64.1827 50.167L62.2432 49.7844L60.3037 49.4018L58.7765 50.4266C57.9365 50.9903 55.5812 52.3116 53.5423 53.363L49.8351 55.2745L51.4089 55.7187C52.2745 55.9631 53.1026 56.2074 53.2493 56.2617C53.9828 56.5332 54.6454 56.2094 58.182 53.8511ZM76.9883 54.8333C77.4701 54.4103 78.026 54.0067 78.2235 53.9365C78.421 53.8662 78.5082 53.7279 78.4172 53.629C78.2219 53.4169 77.0232 53.9011 75.9673 54.6186C75.5555 54.8984 75.1517 55.0604 75.0699 54.9786C74.9881 54.8968 75.4695 54.482 76.1397 54.057L77.3584 53.2842L75.2206 52.7959L73.0828 52.3077L71.601 53.0344C70.786 53.4342 70.2033 53.8455 70.3062 53.9485C70.4091 54.0514 71.7134 54.4477 73.2046 54.8289C74.6959 55.2101 75.9602 55.5401 76.0142 55.5623C76.0682 55.5844 76.5065 55.2564 76.9883 54.8333ZM53.3331 53.0845C57.7285 50.8569 60.286 49.2025 59.334 49.2025C59.0149 49.2025 58.0552 49.6649 57.2015 50.2301C56.3478 50.7952 54.6294 51.8376 53.3827 52.5466C49.3715 54.8276 48.9789 55.0641 49.1998 55.0666C49.3193 55.0678 51.1792 54.176 53.3331 53.0845ZM84.3407 53.4236C84.182 52.642 83.8119 50.3825 83.5184 48.4025C82.8758 44.0677 82.3269 40.9351 81.753 38.3277L81.3256 36.3863L80.7291 37.0298C80.4011 37.3838 79.8739 37.7556 79.5577 37.8559C79.2414 37.9562 78.9844 38.1803 78.9864 38.3538C78.9904 38.7162 79.8509 43.3417 81.116 49.8053L81.9908 54.2748L83.2201 54.6391C83.8962 54.8394 84.4898 54.9677 84.5393 54.9241C84.5888 54.8805 84.4995 54.2053 84.3407 53.4236ZM48.316 54.5638C47.7014 54.2219 45.3826 53.9797 45.3826 54.2574C45.3826 54.4977 46.3343 54.6834 47.916 54.7517C48.4733 54.7758 48.5947 54.7188 48.316 54.5638ZM48.8493 53.7358C48.5395 53.5356 48.6209 53.4764 49.21 53.4732C50.0116 53.4692 52.5819 52.1689 52.5824 51.7676C52.5829 51.3596 50.8004 51.8016 49.0212 52.6508C48.0781 53.1009 47.1436 53.485 46.9445 53.5043C46.5816 53.5395 48.0988 53.9051 48.8493 53.9633C49.2049 53.9909 49.2049 53.966 48.8493 53.7358ZM51.466 51.9537C51.6585 51.8767 51.8885 51.8861 51.9771 51.9747C52.0657 52.0633 51.9082 52.1264 51.6271 52.1148C51.3165 52.1015 51.2533 52.0388 51.466 51.9537ZM81.111 53.6692C81.0954 52.6365 77.6817 36.5466 77.4627 36.4736C77.0254 36.3278 67.3855 34.3134 67.3462 34.3596C67.1583 34.5805 61.6494 48.4973 61.6494 48.751C61.6494 48.962 62.5499 49.2703 64.0546 49.5744C65.6296 49.8928 66.573 50.2221 66.7879 50.5286C67.1911 51.1038 69.4 51.6025 71.5447 51.6025C73.3059 51.6025 79.2672 52.9979 80.1512 53.6172C80.8269 54.0904 81.1176 54.1062 81.111 53.6692ZM35.3636 53.3168C35.8044 52.876 35.9652 49.8822 35.5786 49.3152C35.4708 49.1571 34.3027 48.6994 32.9827 48.2979C31.6627 47.8965 25.6026 45.9408 19.5159 43.952C13.4293 41.9632 7.52302 40.0466 6.39091 39.6929L4.33252 39.0498L3.24691 39.6037C1.52416 40.4826 1.17834 42.0945 2.45699 43.2858C3.01555 43.8061 10.645 46.6942 18.8493 49.4908C26.2523 52.0143 25.9574 51.954 28.4493 51.4544C29.6226 51.2192 31.4826 50.6768 32.5826 50.2492C35.5995 49.0763 35.7351 49.1552 34.4493 51.3358C33.4528 53.026 33.4077 53.7358 34.297 53.7358C34.6531 53.7358 35.1331 53.5472 35.3636 53.3168ZM71.116 52.9358C71.8493 52.5008 72.2545 52.1429 72.0163 52.1404C71.5945 52.1364 69.116 53.4049 69.116 53.6253C69.116 53.9241 69.9131 53.6493 71.116 52.9358ZM38.6563 52.7358L40.6397 52.0025L40.5259 49.806C40.4632 48.598 40.3512 47.5488 40.277 47.4746C40.2027 47.4003 39.3112 47.6196 38.2957 47.9618L36.4493 48.5839L36.3727 51.0265C36.3305 52.37 36.3807 53.4692 36.4844 53.4692C36.588 53.4692 37.5654 53.1392 38.6563 52.7358ZM68.5935 52.8857C69.0275 52.5648 69.3827 52.224 69.3827 52.1285C69.3827 52.0329 68.5619 51.7998 67.5586 51.6105C65.6295 51.2465 64.1703 51.4808 63.5252 52.2581C63.2869 52.5452 63.4063 52.6763 64.1039 52.8938C66.4364 53.6209 67.6018 53.6187 68.5935 52.8857ZM21.2493 52.3877C22.276 52.0433 22.936 51.7249 22.716 51.68C22.0291 51.5401 18.8991 52.5165 18.7679 52.9117C18.6897 53.1475 18.7813 53.2365 19.0129 53.1507C19.2162 53.0755 20.2226 52.7321 21.2493 52.3877ZM43.2096 52.1097L44.0493 51.817L44.0453 48.8431C44.0427 47.2074 43.9469 45.7206 43.8315 45.539C43.6649 45.2766 43.4403 45.2766 42.7368 45.539L41.8517 45.8692L42.0172 47.8427C42.1081 48.9282 42.1827 50.3982 42.1827 51.1094C42.1827 51.8206 42.2249 52.4025 42.2763 52.4025C42.3278 52.4025 42.7477 52.2708 43.2096 52.1097ZM20.5826 51.7593C21.3307 51.5296 21.632 51.3332 21.3826 51.2379C19.4719 50.5075 19.5134 50.5077 19.2413 51.2235C18.8269 52.3134 18.8058 52.3049 20.5826 51.7593ZM41.4513 49.2692C41.3049 46.8137 41.2412 46.5507 40.8904 46.9536C40.527 47.371 40.8527 51.6025 41.248 51.6025C41.5111 51.6025 41.5581 51.0627 41.4513 49.2692ZM54.4493 51.2336C54.4493 50.9969 53.3705 50.8731 53.2338 51.0942C53.1517 51.2271 53.3916 51.3358 53.767 51.3358C54.1423 51.3358 54.4493 51.2899 54.4493 51.2336ZM45.3804 48.7358C45.3764 45.3854 44.8472 40.8215 43.9355 36.2691C43.4361 33.7758 42.9469 31.2258 42.8483 30.6025C42.7355 29.8888 42.5297 29.4691 42.2926 29.4691C41.8267 29.4691 41.7943 29.0822 42.5977 33.1143C43.747 38.883 44.3204 43.0368 44.4963 46.8692C44.6254 49.6813 44.7483 50.5358 45.0236 50.5358C45.2893 50.5358 45.3821 50.0679 45.3804 48.7358ZM56.6494 49.4595C57.0527 49.2711 57.3827 49.0451 57.3827 48.9573C57.3827 48.8695 56.357 48.5259 55.1035 48.1938C53.4829 47.7645 52.693 47.6666 52.3701 47.8548C51.9726 48.0866 51.9908 48.1206 52.516 48.1277C53.3181 48.1384 54.1827 49.0438 54.1827 49.8727C54.1827 50.6022 54.2156 50.5967 56.6494 49.4595ZM49.4978 45.4431C49.477 41.3805 48.4383 27.8848 48.122 27.5684C47.9372 27.3837 43.4738 28.8891 43.1009 29.2619C43.02 29.3429 43.3372 31.4325 43.8057 33.9057C44.2742 36.3789 44.8139 39.2425 45.0052 40.2692C45.1964 41.2958 45.4293 43.8158 45.5227 45.8692C45.616 47.9225 45.7368 49.7466 45.7909 49.9228C45.8618 50.1541 46.3932 50.0727 47.7026 49.6301L49.516 49.017L49.4978 45.4431ZM61.7818 46.0025C62.3455 44.6092 63.1352 42.7491 63.5365 41.8691C64.4098 39.9542 66.1827 35.3804 66.1827 35.0424C66.1827 34.7423 64.571 34.7334 64.102 35.0304C63.911 35.1516 62.696 38.0597 61.402 41.493C60.1079 44.9262 58.9646 47.9369 58.8612 48.1834C58.7103 48.5432 58.8478 48.6494 59.5612 48.722C60.0497 48.7718 60.5185 48.75 60.6031 48.6738C60.6876 48.5975 61.218 47.3958 61.7818 46.0025ZM50.7065 45.0025C50.6972 41.1476 50.5076 38.5959 49.7934 32.6691C49.2654 28.2875 49.0586 27.2722 48.6677 27.1419C48.4549 27.071 48.429 27.3392 48.5795 28.0553C48.6967 28.6129 48.9299 30.8091 49.0978 32.9358C49.2658 35.0625 49.5909 39.0184 49.8203 41.7267C50.0497 44.4351 50.1765 47.1051 50.1021 47.6601C50.0012 48.4131 50.0618 48.6692 50.3414 48.6692C50.6454 48.6692 50.7142 47.9781 50.7065 45.0025ZM57.6494 47.7013C57.6494 47.1727 56.3074 41.1146 56.1554 40.957C55.9401 40.7337 54.7571 42.0692 54.5938 42.7199C54.4199 43.4125 55.1468 46.9641 55.5762 47.5198C55.7969 47.8054 56.3703 47.9965 57.316 48.0995C57.4994 48.1195 57.6494 47.9403 57.6494 47.7013ZM37.3723 46.9232C40.1211 46.0548 42.9827 44.773 42.9827 44.4101C42.9827 44.2376 42.5956 44.2919 41.9827 44.5504C38.971 45.8203 36.3031 46.7476 35.1827 46.9139C34.486 47.0173 33.916 47.2145 33.916 47.3522C33.916 47.781 35.1363 47.6295 37.3723 46.9232ZM8.49959 46.9744C8.79397 46.68 8.49693 46.633 7.04928 46.7453C6.27928 46.805 5.64929 46.9776 5.64929 47.1288C5.64929 47.4209 8.19073 47.2832 8.49959 46.9744ZM54.449 46.84C54.4496 46.0918 53.2664 42.0024 53.0493 42.0024C52.9247 42.0024 52.4688 42.1855 52.0361 42.4093C51.2612 42.81 51.2493 42.8494 51.2493 45.0186V47.2212L52.849 47.2118C54.0147 47.2052 54.4488 47.1041 54.449 46.84ZM33.0212 46.6024C32.7007 45.4588 31.7463 40.7437 31.1186 37.2024C30.2215 32.1411 30.2201 32.1358 29.8817 32.1358C29.5682 32.1358 29.5848 32.3129 30.2934 36.5358C30.775 39.4055 32.2936 46.5406 32.4928 46.8691C32.7341 47.267 33.1488 47.0578 33.0212 46.6024ZM59.5327 44.6622C61.6352 39.055 63.4712 33.5884 63.3016 33.4404C63.1995 33.3514 61.2803 32.8954 59.0366 32.4272C56.7929 31.959 54.7829 31.509 54.5699 31.4273C54.3569 31.3456 54.1827 31.3905 54.1827 31.5272C54.1827 31.9245 55.3894 35.2727 56.4204 37.7357C56.9422 38.9824 57.3034 40.2144 57.2232 40.4735C57.086 40.9164 58.4066 47.2007 58.5969 47.0104C58.6455 46.9618 59.0666 45.9051 59.5327 44.6622ZM31.9566 46.2024C31.5728 44.6726 30.1906 37.8583 29.766 35.4024C29.5061 33.8991 29.1962 32.6691 29.0774 32.6691C28.825 32.6691 25.6755 33.8384 24.3029 34.4418L23.3564 34.8578L24.3314 39.7787C25.2136 44.2308 25.6398 45.5675 26.0473 45.16C26.1244 45.0829 25.7587 42.7686 25.2345 40.0173C24.7103 37.2659 24.3297 34.9665 24.3887 34.9075C24.4857 34.8106 24.8515 36.5068 26.041 42.5683C26.2604 43.6862 26.5052 44.7712 26.5851 44.9794C26.723 45.3388 30.5589 46.7066 31.6116 46.7718C31.9971 46.7956 32.0737 46.6692 31.9566 46.2024ZM38.5827 45.4639C42.8165 43.8597 42.7185 43.9224 42.6984 42.8263C42.6742 41.5051 42.0572 37.2547 41.8612 37.0587C41.7731 36.9706 41.2394 37.1331 40.6752 37.4197C39.2401 38.1488 35.5697 39.2749 33.9114 39.4949L32.5207 39.6794L32.6802 40.8431C32.7679 41.4832 33.0386 43.0936 33.2816 44.4219L33.7234 46.8368L34.8197 46.6556C35.4226 46.5558 37.116 46.0196 38.5827 45.4639ZM24.579 44.3358C24.5763 44.1524 24.5059 43.7435 24.421 43.427C24.2708 42.8671 24.2346 42.8625 23.0769 43.257C22.4225 43.48 21.9326 43.7079 21.9882 43.7636C22.1112 43.8865 24.1026 44.624 24.3826 44.6503C24.4926 44.661 24.581 44.5191 24.579 44.3358ZM22.9295 42.9487C23.7457 42.6803 24.2951 42.354 24.2295 42.1765C24.097 41.8179 24.1452 41.8095 21.9692 42.5684C20.8413 42.9618 20.4031 43.2271 20.6359 43.3756C20.8266 43.4974 21.1026 43.5556 21.2493 43.5051C21.396 43.4547 22.1521 43.2043 22.9295 42.9487ZM20.5159 42.4231C20.5526 42.3874 20.4638 41.708 20.3186 40.9136C20.1733 40.1191 19.6856 36.9491 19.2349 33.8691C17.4628 21.7618 15.0724 9.19042 14.2725 7.77217C13.613 6.60294 13.5334 6.59214 10.6497 7.28039C9.14614 7.63924 7.55593 7.92382 7.11593 7.91278C6.43882 7.89584 6.38048 7.94212 6.736 8.21423C7.94835 9.14216 8.28201 10.1402 9.25065 15.7357C9.60609 17.7891 10.2104 21.2691 10.5936 23.4691C10.9768 25.6691 11.752 30.4564 12.3164 34.1076C12.9617 38.283 13.4707 40.8254 13.6882 40.9598C13.8783 41.0773 14.0774 41.1299 14.1306 41.0767C14.3084 40.899 13.637 36.0404 12.9872 32.8025C12.634 31.0425 11.9768 27.2025 11.5267 24.2691C10.5281 17.7604 8.74021 9.55192 8.18844 8.94221C7.96524 8.69557 7.78259 8.40615 7.78259 8.29905C7.78259 7.91926 8.32548 8.44738 8.7207 9.21164C9.36344 10.4546 11.235 19.2872 12.0524 24.9358C12.4664 27.7958 12.9945 30.9758 13.226 32.0025C13.4576 33.0291 13.8852 35.5368 14.1762 37.575C14.4673 39.6132 14.7378 41.3038 14.7774 41.3319C14.817 41.3599 15.6893 41.6916 16.7159 42.0689C17.9534 42.5236 18.8972 42.7099 19.5159 42.6215C20.0293 42.5482 20.4793 42.4589 20.5159 42.4231ZM13.958 31.6024C13.958 31.2358 14.0186 31.0858 14.0926 31.2691C14.1666 31.4524 14.1666 31.7524 14.0926 31.9358C14.0186 32.1191 13.958 31.9691 13.958 31.6024ZM14.4703 30.9135C14.4837 30.6029 14.5463 30.5397 14.6315 30.7524C14.7084 30.9449 14.6991 31.1749 14.6104 31.2635C14.5219 31.3522 14.4588 31.1946 14.4703 30.9135ZM9.29207 9.08441C9.19221 8.82407 9.23073 8.70854 9.38566 8.80427C9.53065 8.89387 9.64929 8.82014 9.64929 8.64035C9.64929 8.46058 9.72021 8.3845 9.80705 8.47129C9.89385 8.55809 9.85173 8.83119 9.71346 9.07824C9.48006 9.49531 9.44991 9.49658 9.29207 9.08441ZM21.2784 41.6234C21.1893 41.2683 20.9966 39.7983 20.8502 38.3568C20.472 34.6332 20.404 34.1547 19.0931 26.0024C16.2957 8.60443 16.3663 8.93986 15.1497 7.26906C14.353 6.17504 13.722 6.29227 14.4106 7.40635C15.1286 8.56823 16.1268 12.4463 16.9663 17.3357C17.3441 19.5357 17.836 22.3557 18.0593 23.6024C18.3977 25.4909 20.8493 41.7932 20.8493 42.1548C20.8493 42.2177 20.9823 42.2691 21.1449 42.2691C21.3244 42.2691 21.3769 42.0157 21.2784 41.6234ZM23.9028 41.2024C23.9616 41.2024 23.0691 35.8588 22.8488 34.892C22.7379 34.4052 22.6024 34.3465 21.9833 34.5168C21.2707 34.713 21.2511 34.7687 21.3112 36.4273C21.3452 37.367 21.5113 39.0007 21.6803 40.0577L21.9875 41.9797L22.9176 41.5911C23.4292 41.3773 23.8725 41.2024 23.9028 41.2024ZM53.6071 40.9198C54.7823 40.4711 55.9025 39.9103 56.0966 39.6736C56.4035 39.2992 56.38 39.2639 55.916 39.4017C54.7644 39.7436 51.2638 41.347 51.2568 41.5358C51.2461 41.8208 51.2515 41.8195 53.6071 40.9198ZM53.8055 39.8886L56.0401 38.8414L55.3471 37.0219C54.966 36.0212 54.4767 34.6924 54.26 34.0691C54.0432 33.4458 53.7872 32.9397 53.691 32.9445C53.1389 32.9719 50.5887 34.0011 50.6195 34.184C50.6398 34.3042 50.8063 35.8724 50.9895 37.6691C51.1726 39.4658 51.3784 40.9358 51.4467 40.9358C51.5149 40.9358 52.5764 40.4645 53.8055 39.8886ZM12.4541 38.8692C12.3491 37.8792 12.2251 37.0291 12.1783 36.9801C12.1315 36.9312 11.3634 37.1077 10.4713 37.3725C9.00207 37.8087 8.84928 37.9224 8.84928 38.5792C8.84928 39.442 9.06309 39.6015 10.9826 40.171C11.7893 40.4103 12.4933 40.6203 12.547 40.6377C12.6008 40.655 12.559 39.8592 12.4541 38.8692ZM8.31596 38.9073C8.31596 38.6261 8.17092 38.5344 7.89412 38.6406C7.66214 38.7296 7.41505 38.8025 7.34505 38.8025C7.27505 38.8025 7.29198 38.9225 7.38265 39.0692C7.64525 39.4941 8.31596 39.3777 8.31596 38.9073ZM37.2091 38.3587C39.7592 37.555 41.9953 36.4798 41.794 36.1542C41.716 36.028 40.3068 36.3987 38.6623 36.978C37.0178 37.5573 34.9565 38.1747 34.0815 38.3502C33.1895 38.529 32.4367 38.8328 32.368 39.0415C32.1975 39.5599 34.3701 39.2535 37.2091 38.3587ZM32.4591 36.3358C32.3052 34.451 32.0769 32.5461 31.9025 31.6938C31.8159 31.2702 31.644 31.1554 31.2504 31.2583C30.6002 31.4283 30.5961 31.0983 31.2952 34.8692C31.6962 37.0321 31.9875 38.0025 32.2356 38.0025C32.5132 38.0025 32.5641 37.6232 32.4591 36.3358ZM8.74406 37.1854C10.4632 36.8646 11.2145 36.5454 10.927 36.258C10.8316 36.1625 9.91141 36.276 8.88212 36.5102C7.85283 36.7443 6.52435 36.9358 5.92997 36.9358C4.8392 36.9358 4.45349 37.3245 5.31596 37.5545C5.82816 37.6911 6.31577 37.6386 8.74406 37.1854ZM33.916 37.3656C33.916 37.162 33.6244 34.912 33.268 32.3656C32.9117 29.8192 32.3014 25.1558 31.9119 22.0025C30.9542 14.2499 30.5521 11.7006 29.7642 8.38903C28.9982 5.16895 28.3086 3.78637 27.6034 4.05696C27.3118 4.16883 27.2618 4.27326 27.4669 4.34163C28.0424 4.53346 28.7791 6.59855 29.3437 9.60245C29.9246 12.6935 31.9724 26.8315 32.7233 32.9358C32.9668 34.9158 33.2171 36.8058 33.2794 37.1358C33.4022 37.7857 33.916 37.9712 33.916 37.3656ZM37.5817 36.6666C39.0312 36.1627 39.2307 36.0128 39.1191 35.5117C38.8323 34.2247 38.1978 30.0344 38.0628 28.5358C36.9569 16.2627 36.39 11.3956 35.7334 8.53578C35.0927 5.74497 34.3052 3.5028 33.8261 3.1052C33.5512 2.877 30.9421 3.25214 28.6439 3.85034C28.6043 3.861 28.8016 4.31954 29.0824 4.87003C30.1381 6.93936 31.0207 11.8026 32.5786 24.1358C33.8246 34.0002 34.2158 36.9527 34.3345 37.3879C34.4285 37.7326 34.6701 37.6789 37.5817 36.6666ZM9.1818 35.9579L10.981 35.5454L10.8388 33.6406C10.3825 27.53 10.4346 27.8586 9.96012 28.107C9.15682 28.5274 5.03536 29.4691 3.99849 29.4691C3.43975 29.4691 2.98263 29.5322 2.98263 29.6095C2.98263 29.6867 3.35577 31.24 3.81189 33.0613C4.5965 36.1944 4.67912 36.3772 5.34526 36.4557C6.24123 36.5615 6.95191 36.4692 9.1818 35.9579ZM5.98767 35.6844C6.24712 35.6168 6.60713 35.6213 6.78768 35.695C6.96821 35.768 6.75597 35.8234 6.31596 35.818C5.87596 35.8126 5.7282 35.752 5.98767 35.6844ZM80.1769 35.5358C80.6268 35.1449 80.9167 34.5642 81.009 33.8692C81.3073 31.6218 81.3193 31.6041 83.1258 30.7588C84.0738 30.3152 84.8494 29.86 84.8494 29.7473C84.8494 29.6346 83.9194 29.3986 82.7828 29.2229C81.6461 29.0472 78.8561 28.554 76.5827 28.1267C63.5784 25.6829 57.2617 24.6735 54.9573 24.671C52.5067 24.6684 52.3154 24.9292 52.6705 27.7893C52.9166 29.7707 53.0067 30.0027 53.6291 30.2579C54.3725 30.5627 67.188 33.539 73.2494 34.8146C75.3027 35.2467 77.3428 35.7104 77.7828 35.8451C79.0397 36.2299 79.4372 36.1785 80.1769 35.5358ZM79.1161 31.3418C78.5294 31.2351 75.5894 30.7023 72.5827 30.1577C67.2364 29.1894 55.243 26.6701 54.4493 26.3486C54.1082 26.2105 54.1139 26.171 54.488 26.0804C54.7293 26.022 56.4693 26.3346 58.3547 26.7751C62.4548 27.7331 69.3237 29.1051 75.9698 30.2935C78.6395 30.7709 80.7624 31.2607 80.6875 31.382C80.6125 31.5033 80.4682 31.5875 80.3669 31.5691C80.2656 31.5507 79.7028 31.4484 79.1161 31.3418ZM39.8999 35.4025C39.4124 33.1167 38.8824 28.6104 38.3126 21.9053C37.6865 14.5385 36.7167 7.27016 36.0397 4.86956C35.6882 3.623 34.6578 2.37545 34.2089 2.65285C33.9581 2.8079 33.9786 2.96297 34.2964 3.31418C35.7658 4.93784 37.0751 12.6692 38.1829 26.2634C38.4172 29.1391 38.8887 32.5463 39.4106 35.1358C39.4919 35.5392 39.6576 35.8692 39.7788 35.8692C39.9002 35.8692 39.9546 35.6592 39.8999 35.4025ZM42.0463 33.6517C41.9487 33.038 41.6875 31.715 41.4657 30.7117C41.0992 29.0546 41.0098 28.9017 40.4891 29.0414C40.1739 29.1259 39.8237 29.1968 39.7109 29.1988C39.5981 29.2015 39.5609 29.4725 39.6281 29.8025C39.6955 30.1325 39.9483 31.5701 40.1902 32.9971L40.6299 35.5917L41.4268 35.1796C42.173 34.7937 42.2124 34.6968 42.0463 33.6517ZM25.2493 32.9325C27.8193 32.0391 31.5287 30.612 31.6835 30.4572C31.745 30.3957 31.7262 30.1658 31.6419 29.9461C31.5163 29.6189 30.9507 29.777 28.516 30.8195C26.8811 31.5195 24.4873 32.3646 23.1964 32.6974C21.6501 33.096 20.8493 33.4299 20.8493 33.6759C20.8493 34.1785 22.4366 33.9103 25.2493 32.9325ZM52.3827 33.0178C53.0794 32.7681 53.6494 32.4587 53.6494 32.3303C53.6494 32.2019 53.4994 32.1407 53.316 32.1945C53.1327 32.2482 52.4127 32.4514 51.716 32.6457C51.0194 32.8401 50.4493 33.1049 50.4493 33.2341C50.4493 33.5827 50.969 33.5245 52.3827 33.0178ZM26.716 31.0674C30.5729 29.6403 31.3177 29.2209 31.1363 28.579C31.0465 28.2619 30.768 26.8302 30.5171 25.3973C30.1643 23.383 29.9755 22.8249 29.6849 22.9364C29.4781 23.0158 27.2555 23.6225 24.7458 24.2848C22.236 24.947 20.0539 25.5325 19.8965 25.5858C19.6997 25.6525 19.7637 26.7114 20.1014 28.976C20.3714 30.7872 20.6435 32.4118 20.7061 32.5861C20.8359 32.9474 23.3574 32.3102 26.716 31.0674ZM24.7489 27.9922C24.4916 27.3216 24.5675 27.1486 24.8818 27.6891C25.0375 27.9568 25.1087 28.232 25.04 28.3007C24.9713 28.3693 24.8404 28.2305 24.7489 27.9922ZM52.1487 31.8709C52.3927 31.6328 51.8372 26.2871 51.5321 25.9373C51.4369 25.8281 50.9619 26.0702 50.4766 26.4755L49.5941 27.2122L49.9046 29.3407C50.3556 32.4319 50.3761 32.4782 51.2078 32.2729C51.5973 32.1767 52.0207 31.9959 52.1487 31.8709ZM7.09721 28.5055C10.263 27.7582 10.6062 27.5961 10.3632 26.9629C10.2228 26.597 10.0724 26.5962 8.92786 26.9549C7.03231 27.5494 3.7165 28.1746 3.18262 28.0381C2.68855 27.9119 2.61407 28.0932 2.87781 28.7804C3.09754 29.3531 3.66225 29.3165 7.09721 28.5055ZM42.6256 27.7196C45.7601 26.9038 51.8221 24.9552 52.1461 24.6592C52.2726 24.5436 52.3032 24.3309 52.2141 24.1866C52.0337 23.8948 50.1477 24.4293 46.3234 25.8561C44.9994 26.3501 42.926 26.9655 41.716 27.2238C40.2989 27.5262 39.516 27.8195 39.516 28.0479C39.516 28.5181 39.5859 28.5107 42.6256 27.7196ZM5.56376 27.242C5.59003 27.2165 5.19596 25.0372 4.68799 22.3991C4.18 19.7609 3.69245 16.6378 3.60453 15.4588C3.45547 13.4598 3.48762 13.2672 4.08032 12.6068C4.42992 12.2173 5.13596 11.6725 5.64929 11.3962C6.31588 11.0374 6.60763 10.681 6.67012 10.149C6.80567 8.99537 6.44401 8.86088 4.59131 9.37597C2.57214 9.93736 1.5376 10.878 1.02694 12.6169C0.585137 14.1213 0.866006 16.3065 2.33602 22.8025C3.54449 28.1426 3.33562 27.6955 4.51876 27.4745C5.06721 27.3721 5.53745 27.2674 5.56376 27.242ZM1.66874 13.5094C1.64781 12.5462 2.26337 11.022 2.88029 10.51C3.44726 10.0395 3.67179 10.455 3.15759 11.0231C2.91341 11.2929 2.48291 12.1636 2.20093 12.9581C1.72053 14.3114 1.687 14.3462 1.66874 13.5094ZM8.78259 26.3853C9.69926 26.1361 10.4485 25.918 10.4475 25.9007C10.4464 25.8833 10.2019 24.4892 9.90381 22.8025C9.60573 21.1158 9.06658 17.9958 8.70573 15.8691C8.34486 13.7425 7.99745 11.8633 7.93372 11.6932C7.78665 11.3008 6.17815 11.636 5.23112 12.2565C3.71683 13.2487 3.7285 13.9261 5.40971 22.6057C6.12609 26.3042 6.34804 27.0551 6.69572 26.957C6.92684 26.8918 7.86593 26.6346 8.78259 26.3853ZM42.2775 26.6566C43.1787 26.4297 45.7576 25.6358 48.0084 24.8925L52.1009 23.541L51.9579 22.7051C51.8793 22.2453 51.665 20.8111 51.4818 19.5179C51.2086 17.5905 51.0735 17.1917 50.7323 17.3058C47.071 18.5301 39.9025 20.4025 38.8768 20.4025C38.8509 20.4025 38.9176 21.3925 39.0248 22.6025C39.132 23.8125 39.2489 25.3125 39.2844 25.9358C39.3603 27.2675 39.6113 27.3279 42.2775 26.6566ZM25.0733 23.7669C30.1536 22.4163 30.1827 22.4054 30.1827 21.8534C30.1827 21.2764 29.56 21.3762 25.9491 22.5323C24.134 23.1134 21.9441 23.7275 21.0825 23.897C19.8007 24.1492 19.5159 24.3015 19.5159 24.7349C19.5159 25.1128 19.6497 25.2262 19.9826 25.1304C20.2393 25.0566 22.5301 24.443 25.0733 23.7669ZM20.881 23.3681C20.9718 23.277 20.5911 20.7425 20.035 17.7358C18.5586 9.75329 18.4715 9.40355 18.004 9.58294C17.7849 9.66707 17.4284 9.73579 17.2118 9.73579C16.9951 9.73579 16.8796 9.83579 16.9551 9.95792C17.065 10.1357 18.3681 17.8275 19.1424 22.8684C19.2841 23.7909 19.3504 23.8548 20.0059 23.7006C20.3964 23.6087 20.7902 23.4591 20.881 23.3681ZM22.6112 22.4692C22.5193 22.1392 22.1486 20.4291 21.7873 18.6691C20.7319 13.5276 19.1308 7.46831 18.6226 6.69276C18.2595 6.13847 18.0203 6.01709 17.5678 6.15747C17.2459 6.25733 16.8867 6.50327 16.7694 6.70406C16.652 6.90484 16.391 7.06913 16.1892 7.06913C15.891 7.06913 15.906 7.26864 16.269 8.13307C16.9799 9.82552 18.1056 9.41776 17.742 7.59954C17.6544 7.16114 17.6644 6.80244 17.7643 6.80244C18.2579 6.80244 19.0652 9.70918 20.3381 16.0691C21.5951 22.3502 21.7924 23.0691 22.2586 23.0691C22.6691 23.0691 22.7431 22.9433 22.6112 22.4692ZM25.3826 22.1553C26.9724 21.6466 27.3713 21.4149 27.3271 21.0256C27.0996 19.0179 25.5371 9.25137 25.2123 7.80684C24.9902 6.81924 24.5898 5.74107 24.3225 5.41092L23.8364 4.81064L21.3429 5.30782C19.9714 5.58126 18.7535 5.86007 18.6364 5.92744C18.2495 6.14995 19.0066 6.76723 19.5403 6.66444C19.8292 6.60884 19.9924 6.67885 19.9047 6.82075C19.8172 6.96215 19.6137 6.99616 19.4522 6.89634C19.2575 6.77607 19.2223 6.88074 19.3476 7.20727C19.5623 7.76672 21.8877 17.2732 22.6243 20.6024C22.8921 21.8124 23.1722 22.8008 23.2468 22.7989C23.3215 22.7962 24.2826 22.5073 25.3826 22.1553ZM28.4031 20.64C28.2228 18.1526 26.6037 8.37944 26.1928 7.29809C25.5833 5.69385 24.9413 4.66912 24.5458 4.66912C24.3738 4.66912 24.4324 4.94045 24.6892 5.33229C25.2798 6.23368 26.2972 11.1049 26.9734 16.2691C27.2807 18.6158 27.5987 20.7524 27.6801 21.0171C27.89 21.7006 28.4585 21.404 28.4031 20.64ZM30.0858 20.7317C30.3065 20.5891 30.1346 18.7959 29.4531 14.1358C28.9384 10.6158 28.4776 7.6914 28.4291 7.63712C28.257 7.44469 26.9629 7.88819 27.0912 8.09566C27.2497 8.35207 27.8716 12.2041 28.454 16.5358C29.0733 21.1416 29.1492 21.337 30.0858 20.7317ZM45.2972 18.5125C50.4308 17.1907 50.716 17.0795 50.716 16.3997C50.716 15.961 50.6221 15.8997 50.2493 16.0955C49.9927 16.2303 47.2927 16.9191 44.2493 17.6262C39.4313 18.7457 38.716 18.9776 38.716 19.4208C38.716 19.8765 38.8485 19.9101 39.9827 19.7422C40.6793 19.6392 43.0709 19.0857 45.2972 18.5125ZM39.3914 17.1029C39.3103 16.4977 39.0672 14.4425 38.8513 12.5358C38.2181 6.9464 37.9488 5.73581 37.3384 5.73581C37.0521 5.73581 36.878 5.83315 36.9515 5.95202C37.0893 6.17509 38.2913 14.295 38.585 16.9875C38.7149 18.1776 38.8358 18.4731 39.1447 18.3546C39.44 18.2412 39.5018 17.9273 39.3914 17.1029ZM40.7669 16.6025C40.5664 14.8145 39.8651 9.8263 39.5133 7.68564C39.1817 5.66719 38.3045 2.83564 37.8134 2.19783C37.6085 1.93176 37.271 1.79542 37.0383 1.8847C36.6867 2.01963 36.718 2.17819 37.2517 2.96459C38.1448 4.28077 39.0546 8.89624 39.9137 16.4692C40.0432 17.6099 40.1947 18.0025 40.5058 18.0025C40.8524 18.0025 40.8971 17.7629 40.7669 16.6025ZM44.0443 17.1751C46.4409 16.6233 46.4772 16.6032 46.3253 15.9084C46.2403 15.5202 45.7703 12.545 45.2807 9.29695C44.658 5.16607 44.2119 3.02245 43.7961 2.16361C43.1318 0.79129 43.0134 0.757981 40.4316 1.21734C37.7622 1.69231 37.8997 1.53855 38.5907 3.27634C39.3625 5.21733 40.1603 8.94761 40.7138 13.2025C41.1444 16.513 41.3631 17.7358 41.5247 17.7358C41.5711 17.7358 42.7049 17.4835 44.0443 17.1751ZM41.937 15.4469C41.9504 15.1363 42.013 15.0731 42.0981 15.2858C42.1752 15.4783 42.1658 15.7083 42.0772 15.7969C41.9887 15.8855 41.9255 15.728 41.937 15.4469ZM42.2037 14.3803C42.2171 14.0696 42.2797 14.0064 42.3648 14.2192C42.4418 14.4116 42.4324 14.6416 42.3439 14.7303C42.2554 14.8189 42.1922 14.6613 42.2037 14.3803ZM42.7371 13.5803C42.7504 13.2696 42.813 13.2064 42.8982 13.4191C42.9751 13.6116 42.9658 13.8417 42.8771 13.9303C42.7886 14.0189 42.7255 13.8613 42.7371 13.5803ZM47.2493 16.045C47.2493 15.8483 47.0134 14.5576 46.725 13.1766C46.4367 11.7957 46.0077 9.00077 45.7717 6.96571C45.3243 3.10658 45.0946 2.18218 44.3894 1.40295C43.6689 0.606762 43.4434 0.88871 44.035 1.84604C44.4559 2.52699 44.8318 4.2903 45.5272 8.84604C46.0385 12.1954 46.5246 15.2658 46.6076 15.6692C46.7606 16.4135 47.2493 16.6997 47.2493 16.045ZM49.94 15.7151C50.0265 15.6648 50.0031 14.929 49.8879 14.0798C49.7727 13.2306 49.486 10.6896 49.2509 8.43308C48.7933 4.04105 48.3848 2.78153 47.0875 1.76102C46.6969 1.45382 46.0905 1.20247 45.7399 1.20247C45.1153 1.20247 45.1109 1.21899 45.5219 2.01391C45.7527 2.46022 46.2389 2.93843 46.6023 3.07659C47.5486 3.43637 47.6144 3.86634 46.9728 5.49414C46.3339 7.115 46.3692 7.92833 47.2786 12.5358C48.0348 16.3671 47.9537 16.1985 48.9391 15.9872C49.4031 15.8878 49.8535 15.7653 49.94 15.7151ZM27.7365 6.58432C27.866 5.67472 27.1241 4.68209 26.4471 4.85913C26.143 4.93873 25.9297 5.07843 25.9731 5.16975C26.0165 5.26109 26.2269 5.78969 26.4407 6.34444C26.8731 7.46653 27.592 7.5996 27.7365 6.58432ZM36.8559 3.08146C36.6953 2.78135 36.3261 2.5358 36.0354 2.5358C35.535 2.5358 35.5459 2.60994 36.2427 3.93581L36.9784 5.33581L37.0632 4.48146C37.1099 4.01157 37.0165 3.38158 36.8559 3.08146Z" fill="white"/>
</svg>
