<svg width="140" height="121" viewBox="0 0 140 121" fill="none" xmlns="http://www.w3.org/2000/svg">
<path d="M78.4114 102.884C77.4994 101.536 76.5888 100.188 75.5061 98.5881C75.0288 101.32 77.1834 101.82 78.4114 102.884ZM66.5448 98.6641C64.8674 100.712 63.4554 102.436 61.9448 104.283C64.4994 104.027 66.1874 102.043 66.5448 98.6641ZM84.6794 118.327C86.1688 117.088 87.4061 116.061 88.8008 114.904C85.1781 113.765 84.2701 114.523 84.6794 118.327ZM45.7501 104.473L45.8341 104.805C47.9728 104.805 50.1114 104.813 52.2501 104.803C53.8208 104.796 54.3848 105.559 54.0381 107.061C53.9301 107.527 53.8394 107.997 53.7408 108.465C54.5394 107.779 55.1688 106.984 55.4034 106.088C55.5168 105.649 54.9141 104.559 54.6048 104.545C51.6568 104.425 48.7021 104.473 45.7501 104.473ZM67.5421 99.4015C67.3368 99.7855 67.1834 100.033 67.0648 100.299C65.9888 102.7 64.7341 104.848 61.7034 105.177C61.1621 105.237 60.7034 106.047 60.2061 106.509C65.6808 105.137 68.7274 102.7 67.5421 99.4015ZM84.4154 107.411C84.3728 107.619 84.3288 107.827 84.2861 108.036C86.6488 108.857 89.0088 109.681 91.4901 110.545V108.027C89.0834 107.817 86.7501 107.615 84.4154 107.411ZM92.1688 105.469C89.9874 105.133 87.7874 104.887 85.6288 104.441C82.8021 103.857 79.9581 103.243 78.6474 100.097C78.4701 99.6721 77.6514 99.5148 77.1301 99.2335C80.4248 105.629 86.4274 105.215 92.1688 105.469ZM70.8208 109.089C70.9488 108.264 70.9834 107.409 71.2274 106.619C71.7381 104.964 72.1674 103.231 73.0128 101.748C73.4768 100.937 74.6354 100.591 74.1434 99.2668C73.7968 98.3321 73.6754 97.3121 73.4541 96.3308C73.3554 100.856 69.4501 104.448 70.8208 109.089ZM71.5221 113.321C72.0794 110.295 70.8048 106.559 75.1928 105.144C74.9474 104.06 74.7021 102.965 74.4541 101.868C74.2288 101.856 74.0021 101.841 73.7754 101.828C70.8541 105.171 71.6261 109.369 71.5221 113.321ZM63.0594 100.985H53.3701C53.3781 101.147 53.3834 101.309 53.3914 101.471C55.0128 101.553 56.7421 101.304 58.2314 101.791C60.5194 102.536 58.9861 104.448 58.8554 106.247C60.4768 104.217 61.8594 102.488 63.0594 100.985ZM79.5928 103.996C81.2341 106.124 83.4154 107.269 86.4101 106.917C87.7928 106.755 89.2488 107.324 90.6768 107.377C91.2221 107.399 91.7874 106.909 92.3434 106.652C92.2541 106.48 92.1634 106.309 92.0741 106.137C89.9274 105.981 87.7514 105.987 85.6394 105.623C83.5514 105.263 81.5274 104.532 79.5928 103.996ZM77.1968 117.468C77.3101 115.185 76.2234 113.7 74.5714 113.692C72.8768 113.685 71.7621 115.444 72.0421 117.956C73.7648 117.793 75.4928 117.631 77.1968 117.468ZM56.7008 99.9188C61.2634 101.613 64.1914 98.6268 67.6768 97.2295C67.0248 96.8508 66.2021 96.3815 65.6048 96.5815C62.7168 97.5521 59.8888 98.7028 56.7008 99.9188ZM53.2741 116.612C53.8861 117.533 54.4248 119.101 55.0488 119.136C56.8594 119.239 58.7048 118.727 60.8341 118.411C58.7794 115.751 56.5101 115.268 53.2741 116.612ZM58.0208 109.001C64.2141 106.571 64.2141 106.571 66.0941 109.555C66.9061 107.24 69.4634 105.688 68.4874 103.235C64.9834 105.165 61.5021 107.083 58.0208 109.001ZM92.3408 104.024C88.1101 102.692 83.8821 101.36 79.3408 99.9295C81.0101 103.175 85.6208 104.636 92.3408 104.024ZM97.3861 108.088C97.3754 107.115 97.8768 105.891 96.1021 105.887C94.0581 105.883 92.7834 107.032 92.7621 109.123C92.7528 109.996 92.6061 111.051 94.0474 111.044C96.8034 111.029 97.3008 110.609 97.3861 108.088ZM72.0434 112.715H76.6168C76.2634 110.817 75.9661 108.959 75.5394 107.129C75.4448 106.725 74.9074 106.169 74.5501 106.151C74.1541 106.131 73.4608 106.572 73.3608 106.939C72.8421 108.831 72.4714 110.763 72.0434 112.715ZM55.8794 111.66C55.9968 111.843 56.1154 112.023 56.2341 112.204C62.0341 110.892 62.0341 110.892 64.0594 113.173C64.4354 112.069 64.9461 111.124 65.0501 110.136C65.2394 108.356 64.1008 107.369 62.5034 108.077C60.2168 109.091 58.0794 110.449 55.8794 111.66ZM42.7994 106.769C42.8968 108.097 42.9301 109.32 43.1114 110.52C43.1621 110.855 43.6248 111.344 43.9448 111.384C45.6128 111.596 47.2968 111.687 49.0141 111.821C48.6168 108.829 46.8434 107.352 42.7994 106.769ZM54.5928 108.995C56.4568 108.436 59.0194 105.175 58.7261 103.539C58.6248 102.971 57.6728 102.181 57.0754 102.149C55.3874 102.06 53.6768 102.252 51.9874 102.452C50.9208 102.577 49.8794 102.913 48.8261 103.156C48.8661 103.317 48.9048 103.48 48.9448 103.643C50.0514 103.643 51.1594 103.627 52.2661 103.645C56.4501 103.723 56.9768 104.643 54.9221 108.252C54.8034 108.46 54.7261 108.689 54.5928 108.995ZM69.8608 104.383C70.0408 104.423 70.2194 104.463 70.3994 104.503C71.0981 101.96 71.8861 99.4348 72.4568 96.8628C72.7314 95.6201 72.0101 94.8108 70.6381 95.0748C69.5181 95.2881 68.4714 95.6175 68.7701 97.2308C69.2088 99.6001 69.5048 101.997 69.8608 104.383ZM54.3208 113.837C54.3941 114.115 54.4674 114.391 54.5408 114.667C57.1421 114.567 59.6488 114.761 61.5994 117.088C62.1221 116.176 62.6381 115.491 62.9301 114.72C63.5448 113.096 62.4048 111.312 60.8128 111.665C58.5968 112.155 56.4794 113.092 54.3208 113.837ZM51.1368 111.267C52.3888 110.62 52.7061 108.892 53.3368 107.365C53.9274 105.935 53.4648 105.151 51.9408 105.205C49.8994 105.277 47.8634 105.488 46.0581 105.621C47.7008 107.448 49.2594 109.181 51.1368 111.267ZM79.0848 110.881C79.3928 109.417 79.7008 107.953 80.0928 106.093C79.2088 105.375 77.8128 104.24 76.4168 103.104C76.8221 106.132 76.3568 109.287 78.8061 111.751C78.9368 111.312 79.0034 111.08 79.0821 110.863C79.6754 112.045 80.2688 113.229 80.9088 114.507C81.2301 113.135 81.4874 112.04 81.7434 110.947C81.5101 113.085 81.5008 115.172 83.2754 117.121C83.5461 114.401 84.5674 112.657 87.6341 113.273C85.4714 110.057 84.0728 109.571 81.6954 111.019C82.2434 110.34 82.7914 109.661 83.5208 108.76C82.6768 108.367 81.4154 107.387 80.9954 107.668C80.1954 108.203 79.8768 109.457 79.3554 110.412C79.2701 110.572 79.1754 110.725 79.0848 110.881ZM55.6861 110.164C54.8394 110.573 54.4981 110.657 54.2621 110.863C51.0061 113.697 47.1928 112.985 43.4194 112.62C42.3688 112.519 41.9994 112.076 41.9261 111.011C41.4741 104.493 40.5421 105.861 46.3821 103.176C52.2154 100.491 58.2128 98.1535 64.1781 95.7668C66.0728 95.0095 68.0874 94.5388 70.0674 94.0135C72.1021 93.4721 73.9408 94.5081 74.8781 96.3935C75.1701 96.9828 75.8768 97.5468 76.5128 97.7588C83.0474 99.9281 89.5901 102.073 96.1648 104.109C98.0541 104.695 98.8888 105.693 98.6154 107.668C98.4461 108.893 98.4074 110.136 98.3234 111.207C94.4448 112.895 90.8941 112.075 87.2101 110.636C87.5554 111.024 87.8928 111.417 88.2501 111.797C88.6541 112.228 89.0594 112.66 89.4914 113.063C90.6274 114.124 90.8048 115.063 89.3674 116.079C88.0301 117.023 86.7701 118.087 85.5381 119.169C84.4688 120.108 83.6568 120.093 82.7741 118.899C81.3834 117.015 79.8901 115.207 78.0514 113.503C78.2181 114.479 78.4061 115.453 78.5474 116.433C78.7461 117.819 78.3941 118.748 76.7328 118.735C75.7528 118.725 74.7714 118.899 73.7901 118.987C70.6528 119.272 70.6661 119.269 70.2368 116.1C69.8501 113.252 69.4301 110.411 68.9408 106.983C66.7128 110.743 64.7448 114.039 62.7994 117.351C61.7474 119.141 57.1008 121.097 55.0861 120.563C53.1248 120.043 51.6488 116.508 52.7074 114.729C53.5368 113.335 54.4768 112.007 55.6861 110.164Z" fill="white"/>
<path d="M82.1588 75.7448C81.2081 77.9155 80.2574 80.0875 79.3068 82.2581C79.6161 82.3755 79.9241 82.4941 80.2334 82.6101C81.8668 80.6555 82.2148 78.2168 82.1588 75.7448ZM75.4214 60.0141C75.3028 60.2355 75.2454 60.2968 75.2414 60.3621C75.0508 62.3755 74.9868 64.5035 72.4014 64.9981C69.6894 65.5195 66.6174 64.1595 66.0134 61.5381C65.2094 58.0448 65.0948 54.3888 64.7481 50.7968C64.6641 49.9141 64.8281 49.0088 64.8868 47.9608C61.3348 50.3128 59.9348 56.0688 61.6854 60.6288C62.2201 62.0248 62.9294 63.3541 63.5681 64.7101C65.6214 69.0635 66.3508 73.6515 64.8908 78.2328C64.2428 80.2648 62.7681 82.2741 61.1428 83.6875C59.2054 85.3715 56.8214 84.7848 55.4561 82.5501C54.3961 80.8168 53.7881 78.7995 53.0374 76.8848C52.7641 76.1915 52.6588 75.4315 52.3774 74.3075C48.1108 81.9115 48.2014 89.0088 52.8574 95.8701C51.2068 97.4181 50.3641 96.8608 49.4841 95.2448C46.5668 89.8861 45.8148 84.3755 47.7308 78.5115C49.1348 74.2141 51.1641 70.2755 54.0134 66.4301C54.4734 69.7888 54.7908 72.8728 55.3561 75.9088C55.6521 77.4955 56.2254 79.0821 56.9588 80.5235C57.8974 82.3635 59.2081 82.6355 60.4548 80.9928C61.5988 79.4848 62.4414 77.5315 62.7641 75.6621C63.4508 71.6741 62.4508 67.9021 60.5148 64.3315C55.5561 55.1861 59.6241 46.0195 68.4601 41.6448C68.0201 44.9635 67.4721 48.2581 67.1868 51.5741C67.0121 53.6208 67.1494 55.7101 67.3241 57.7648C67.4068 58.7275 67.6574 59.9048 68.2841 60.5341C69.0828 61.3368 70.3401 61.6848 71.3988 62.2288C71.7428 61.2261 72.4628 60.1808 72.3548 59.2275C72.1281 57.2101 71.4694 55.2395 70.9748 53.1955C77.4641 56.1728 82.0081 62.6861 82.6628 69.4928C84.2534 70.2288 85.7641 70.6768 86.9868 71.5355C96.3121 78.0821 96.2321 90.1568 91.9041 97.8168C91.5534 98.4368 90.2134 98.4968 89.1681 98.5555C93.4788 89.4088 93.9001 81.1315 85.6628 73.5355C85.1588 75.6395 84.8854 77.3101 84.3454 78.8875C83.7748 80.5581 83.1121 82.2435 82.1894 83.7355C81.2561 85.2461 79.8094 85.6381 78.1174 84.6421C76.4254 83.6461 76.1388 82.3088 76.9361 80.6475C77.5534 79.3635 78.2654 78.1261 78.8988 76.8488C81.5961 71.4048 80.0921 64.0141 75.4214 60.0141Z" fill="white"/>
<path d="M87.625 81.0912C86.5157 83.3992 85.6504 85.8205 84.2784 87.9085C82.4277 90.7312 79.5797 91.6045 76.8944 90.6699C74.165 89.7205 72.4117 87.3085 72.813 83.9539C73.1064 81.4952 74.2384 79.1325 75.025 76.7352C75.4984 75.2952 76.0277 73.8739 76.2384 72.2285C74.405 75.0165 72.081 75.7299 69.177 74.5072C66.4624 86.4592 62.2544 90.2899 54.3144 87.2832C55.3504 89.7579 56.2024 91.7925 57.2784 94.3619C54.349 92.3205 52.6104 87.8645 53.4797 85.5165C53.589 85.2192 54.717 84.9072 54.9477 85.1032C58.3197 87.9779 61.4064 87.7445 64.3984 84.2059C67.0957 81.0112 67.8317 77.2232 67.5637 73.1552C67.5117 72.3712 67.5557 71.5805 67.5557 70.7939C67.7757 70.7459 67.997 70.6979 68.217 70.6485C68.473 71.0899 68.733 71.5285 68.9864 71.9712C70.3557 74.3779 72.9157 74.4659 74.3237 72.0819C74.8704 71.1565 75.0824 70.0392 75.5557 69.0632C75.737 68.6885 76.2224 68.4619 76.5704 68.1699C76.7917 68.4979 77.1184 68.7965 77.217 69.1592C77.9824 71.9499 77.561 74.5605 76.329 77.1979C75.3277 79.3419 74.437 81.6419 74.0997 83.9605C73.693 86.7512 75.329 88.9112 77.621 89.5659C79.633 90.1405 82.4664 89.0912 83.549 86.8405C84.665 84.5192 85.2397 81.9392 86.0757 79.4805C86.2477 78.9725 86.525 78.5019 86.7557 78.0125C87.2184 78.3765 87.8597 78.6419 88.1184 79.1179C91.377 85.1019 90.9237 90.9992 87.525 96.7619C87.2984 97.1472 86.6957 97.3099 86.0197 97.3872C88.9277 92.0632 90.265 86.7512 87.625 81.0912Z" fill="#FCFCFC"/>
<path d="M87.6588 40.7227C88.9801 41.256 89.1188 41.7453 88.6014 43.1573C88.4708 43.5133 88.7588 44.1453 89.0481 44.488C89.3001 44.7893 89.9561 45.1187 90.2081 44.9907C92.4108 43.8773 94.5974 42.7213 96.7161 41.4547C97.6814 40.8773 97.8174 39.9293 97.1534 38.9307C96.3841 37.7747 95.6854 36.572 94.8881 35.4347C94.2028 34.456 93.3374 34.272 92.2668 34.96C90.8481 35.8693 89.3334 36.6333 87.9308 37.5653C85.8988 38.9173 86.0081 39.8467 87.3908 41.4133C87.5148 41.0947 87.5868 40.908 87.6588 40.7227ZM97.3628 42.1333C96.5574 42.84 95.5561 43.344 94.5934 43.844C93.5894 44.364 92.5028 44.724 91.4948 45.2373C89.3494 46.3293 88.9188 46.2173 87.7188 44.0853C87.6854 44.0267 87.5788 44.0067 87.5281 43.98C86.0508 44.3 84.6628 45.1947 82.7401 44.5947C84.1921 43.5493 85.3708 42.7013 86.5761 41.8347C86.3654 41.3947 86.2428 41.0307 86.0348 40.724C85.3161 39.6587 85.5668 38.7347 86.4108 37.896C86.7988 37.5133 87.1921 37.1147 87.6454 36.82C89.1308 35.8587 90.6468 34.9453 92.1428 34.0013C93.3054 33.268 94.0708 33.3453 95.0574 34.3573C95.5761 34.888 96.0668 35.4493 96.5881 36.0173C97.1041 35.704 97.5628 35.4067 98.0401 35.1427C99.8068 34.172 101.509 33.0333 103.368 32.2867C106.828 30.896 110.511 30.424 114.211 30.0573C115.481 29.9307 116.843 29.636 117.937 29.02C120.208 27.74 122.407 26.2947 124.497 24.7333C128.585 21.6787 132.591 18.5107 136.605 15.3587C137.455 14.692 138.047 15.0347 138.485 15.7347C138.961 16.4893 139.935 17.3213 138.945 18.2587C137.695 19.444 136.415 20.6653 134.951 21.5427C130.679 24.108 126.568 26.8653 122.629 29.936C119.807 32.1387 117.505 34.656 115.707 37.7C115.215 38.5333 114.735 39.384 114.143 40.144C113.475 41.004 112.733 41.8187 111.933 42.5573C111.553 42.9093 110.967 43.0347 110.473 43.264C110.4 43.172 110.324 43.08 110.249 42.9867C110.424 42.532 110.592 42.0733 110.776 41.6227C111.412 40.0627 112.104 38.524 112.665 36.9387C112.815 36.516 112.759 35.756 112.476 35.4893C111.151 34.2293 109.451 33.5773 107.713 34.156C104.369 35.2733 101.113 36.648 97.7201 37.956C98.7881 39.5387 98.6761 40.9813 97.3628 42.1333Z" stroke="white" stroke-miterlimit="10"/>
<path d="M87.3906 41.4128C87.5146 41.0955 87.5866 40.9075 87.6586 40.7221C88.98 41.2568 89.1186 41.7448 88.6013 43.1581C88.472 43.5128 88.7586 44.1461 89.048 44.4888C89.3013 44.7888 89.956 45.1181 90.208 44.9915C92.412 43.8781 94.5973 42.7208 96.716 41.4541C97.6813 40.8781 97.8173 39.9301 97.1533 38.9315C96.384 37.7741 95.6853 36.5715 94.888 35.4355C94.2026 34.4555 93.3373 34.2728 92.2666 34.9595C90.848 35.8701 89.3333 36.6328 87.9306 37.5648C85.8986 38.9181 86.008 39.8461 87.3906 41.4128Z" fill="white"/>
<path d="M66.1165 33.806C67.8658 31.8247 68.0045 30.65 65.4325 28.9393C63.6592 27.7593 61.7432 26.7927 59.9485 25.642C58.5938 24.774 57.5005 25.006 56.6338 26.2433C55.6258 27.6807 54.7405 29.2047 53.7672 30.6673C52.9272 31.93 53.1005 33.1287 54.3218 33.858C57.0005 35.4607 59.7658 36.9233 62.5525 38.3327C62.8725 38.494 63.7005 38.0753 64.0205 37.6967C64.3858 37.2633 64.7498 36.4607 64.5858 36.0127C63.9312 34.2247 64.1058 33.6087 65.7778 32.9327C65.8685 33.1673 65.9605 33.4033 66.1165 33.806ZM53.0498 29.4327C48.7578 27.7793 44.6392 26.0407 40.4112 24.6273C38.2138 23.8927 36.0618 24.7193 34.3845 26.3127C34.0285 26.6513 33.9578 27.6113 34.1472 28.146C34.8565 30.1513 35.7298 32.098 36.5352 34.07C36.7698 34.6407 36.9805 35.222 37.2018 35.7967C37.1085 35.914 37.0125 36.03 36.9192 36.1473C36.2952 35.858 35.5525 35.6967 35.0725 35.254C34.0605 34.3207 33.1218 33.2887 32.2765 32.202C31.5285 31.2393 30.9218 30.1647 30.2992 29.1113C28.0245 25.2593 25.1138 22.0727 21.5432 19.2887C16.5618 15.4047 11.3618 11.9167 5.95783 8.67267C4.10583 7.56067 2.48583 6.01667 0.904501 4.518C-0.346166 3.33267 0.884502 2.27934 1.48584 1.32467C2.04183 0.440669 2.79117 0.00600152 3.8645 0.848668C8.94317 4.83667 14.0085 8.84333 19.1805 12.7073C21.8245 14.682 24.6045 16.5087 27.4778 18.1287C28.8632 18.9087 30.5845 19.2807 32.1925 19.442C36.8712 19.906 41.5312 20.502 45.9072 22.262C48.2578 23.206 50.4098 24.646 52.6445 25.8753C53.2498 26.2073 53.8298 26.586 54.4832 26.9793C55.1418 26.262 55.7618 25.554 56.4205 24.8807C57.6685 23.6007 58.6352 23.5033 60.1045 24.4313C61.9978 25.6247 63.9165 26.778 65.7938 27.9967C66.3672 28.3687 66.8645 28.8727 67.3552 29.358C68.4232 30.4167 68.7405 31.586 67.8312 32.934C67.5685 33.322 67.4138 33.782 67.1472 34.3393C68.6725 35.438 70.1618 36.5087 72.0005 37.8327C69.5672 38.5887 67.8112 37.4567 65.9418 37.054C65.8778 37.0873 65.7445 37.1113 65.7005 37.186C64.1832 39.8833 63.6405 40.0247 60.9258 38.6433C59.6512 37.994 58.2765 37.5393 57.0058 36.8807C55.7885 36.2473 54.5205 35.6113 53.5032 34.718C51.8418 33.2607 51.7005 31.4367 53.0498 29.4327Z" stroke="white" stroke-width="0.666667" stroke-miterlimit="10"/>
<path d="M66.1165 33.806C65.9605 33.4033 65.8685 33.1673 65.7778 32.9327C64.1058 33.6087 63.9312 34.2247 64.5858 36.0127C64.7498 36.4607 64.3858 37.2633 64.0205 37.6967C63.7005 38.0753 62.8725 38.494 62.5525 38.3327C59.7658 36.9233 57.0005 35.4607 54.3218 33.858C53.1005 33.1287 52.9272 31.93 53.7672 30.6673C54.7405 29.2047 55.6258 27.6807 56.6338 26.2433C57.5005 25.006 58.5938 24.774 59.9485 25.642C61.7432 26.7927 63.6592 27.7593 65.4325 28.9393C68.0045 30.65 67.8658 31.8247 66.1165 33.806Z" fill="white"/>
</svg>
