<svg width="82" height="137" viewBox="0 0 82 137" fill="none" xmlns="http://www.w3.org/2000/svg">
<path d="M11.1328 50.5273C12.6048 50.21 12.7728 50.174 13.8768 49.966C14.4114 49.8647 15.1288 49.722 15.4688 49.6527C15.8101 49.5807 16.4435 49.4807 16.8781 49.4287C17.3128 49.3767 17.6928 49.318 17.7221 49.2993C17.7914 49.258 19.2888 49.0287 20.3354 48.9007C20.7741 48.8473 21.3914 48.7673 21.7074 48.7207C22.0234 48.674 22.9395 48.5767 23.7435 48.502C27.0634 48.1967 27.8901 48.1047 28.1274 48.0127C28.2648 47.9607 29.3954 47.882 30.6394 47.8353C31.8848 47.79 33.6194 47.714 34.4954 47.6647C38.8514 47.4193 50.5088 47.446 51.1874 47.7047C51.2554 47.7287 52.4048 47.81 53.7434 47.882C58.7581 48.154 63.2768 48.6353 64.5514 49.0367C64.7768 49.1073 65.2088 49.166 65.5088 49.166C65.8101 49.166 66.1301 49.206 66.2208 49.254C66.3128 49.302 66.8781 49.3633 67.4768 49.3887C68.0754 49.4127 68.7461 49.4727 68.9648 49.522C70.0874 49.7767 71.0874 49.8953 71.2114 49.7927C71.3834 49.6513 71.3874 48.4247 71.2168 48.098C71.1048 47.8793 71.1088 47.8527 71.2634 47.8127C71.4421 47.766 71.5061 46.9353 71.3448 46.7273C71.1821 46.5167 71.1488 45.8953 71.2981 45.838C71.3781 45.8087 71.4234 45.754 71.4008 45.7193C71.3794 45.682 71.3341 44.8607 71.3034 43.8913C71.2714 42.9233 71.2314 42.1033 71.2128 42.0713C71.1914 42.0393 71.2181 41.998 71.2714 41.9807C71.3954 41.9393 71.2288 38.8967 71.0901 38.6367C71.0381 38.5393 70.9768 37.998 70.9528 37.4313C70.9288 36.8647 70.8928 36.3767 70.8741 36.3433C70.8274 36.2687 70.6488 34.7113 70.5941 33.9033C70.5114 32.6793 70.1648 30.9553 69.1194 26.5553C68.9234 25.7273 68.5088 24.342 68.2008 23.478C67.8901 22.6127 67.6368 21.886 67.6368 21.862C67.6368 21.838 67.5354 21.6113 67.4101 21.3553C67.2848 21.1007 67.0688 20.6113 66.9301 20.2713C66.5901 19.4393 66.1154 18.482 65.8408 18.0767C65.7168 17.894 65.5114 17.4767 65.3834 17.15C64.3874 14.6007 60.3994 9.64868 58.5941 8.71801C58.4821 8.66068 58.2874 8.51801 58.1634 8.40201C57.9608 8.21401 56.9621 7.57268 56.8701 7.57268C56.8501 7.57268 56.5461 7.38334 56.1954 7.15001C55.8448 6.91801 55.2181 6.56468 54.8061 6.36601C53.4794 5.72868 51.8474 4.91801 51.6194 4.78201C48.7234 3.07267 43.5781 2.19668 40.2474 2.84735C39.8581 2.92335 39.1021 3.01934 38.5661 3.05934C36.5195 3.21934 34.4528 3.666 32.7968 4.30734C32.2714 4.51 31.5821 4.77 31.2661 4.88067C29.9101 5.35934 27.6048 6.50334 27.4648 6.76867C27.4154 6.85801 27.2808 6.95667 27.1634 6.98601C27.0461 7.01534 26.9301 7.11935 26.9034 7.21801C26.8728 7.33535 26.7834 7.39534 26.6354 7.39534C26.5141 7.39534 26.1221 7.59 25.7648 7.82734C25.4074 8.06334 24.7928 8.44467 24.3994 8.67401C24.0061 8.90467 23.2368 9.48734 22.6901 9.97001C22.1421 10.4513 21.6608 10.846 21.6168 10.846C21.5741 10.846 21.4208 11.018 21.2768 11.2273C21.1328 11.4393 20.2394 12.3873 19.2914 13.3353C17.6088 15.018 17.5568 15.0833 17.1421 15.9407C16.9101 16.4247 16.5541 17.0193 16.3541 17.2633C16.1541 17.506 15.8941 17.8447 15.7781 18.014C15.6608 18.1847 15.5168 18.3553 15.4568 18.3913C14.9955 18.6767 13.2848 22.7913 12.7781 24.83C12.6888 25.194 12.5061 25.7727 12.3754 26.1113C12.1594 26.6687 11.4475 29.2953 11.0421 31.0233C10.9568 31.3887 10.8301 31.8273 10.7621 31.9967C10.6928 32.166 10.6168 32.6247 10.5928 33.014C10.5674 33.4033 10.5088 33.882 10.4621 34.0767C10.3621 34.4887 10.1315 36.09 10.0768 36.7313C10.0568 36.9753 9.99412 37.374 9.93812 37.6167C9.88212 37.8607 9.82612 38.362 9.81412 38.7327C9.80212 39.1047 9.74078 39.5313 9.67812 39.6833C9.60612 39.8567 9.58745 40.066 9.63012 40.2487C9.71012 40.5993 9.70745 43.0513 9.62478 44.21C9.55678 45.1753 9.55945 45.682 9.63278 46.2447C9.68478 46.6393 9.69678 47.4793 9.65945 48.0367C9.63545 48.37 9.75812 50.4833 9.80878 50.6473C9.85545 50.7967 9.91012 50.7913 11.1328 50.5273ZM75.5461 51.046C75.4248 50.6593 75.4874 49.2633 75.6354 49.0367C76.5608 47.6233 76.1648 45.7353 74.8794 45.418C74.3274 45.282 74.2101 45.5447 74.7061 45.7967C75.2448 46.0713 75.4808 46.4193 75.6061 47.1233C75.8034 48.222 75.3794 48.9153 75.1528 47.8647C75.0168 47.234 74.7434 46.6647 74.6021 46.7113C74.4194 46.7713 74.4314 47.3087 74.6221 47.754C75.1554 48.994 74.2714 49.8127 72.9061 49.3433C72.2394 49.114 71.7834 49.966 72.4381 50.2207C72.5488 50.262 72.7968 50.358 72.9914 50.434C73.1861 50.5073 73.6434 50.6593 74.0088 50.7673C74.3741 50.8753 74.8314 51.0367 75.0261 51.1247C75.5381 51.3567 75.6368 51.3407 75.5461 51.046ZM78.7048 54.914C78.9381 54.7887 78.9194 54.5073 78.6554 54.1927C78.3834 53.8727 78.4448 53.738 78.8408 53.7847L79.1394 53.8207L78.9408 53.6073C78.7181 53.3687 77.2821 52.618 77.0421 52.614C76.9554 52.6127 76.6061 52.5113 76.2661 52.3887C75.9248 52.266 75.3674 52.09 75.0261 51.998C73.7088 51.6393 72.8888 51.3887 72.5488 51.2393C72.2034 51.0887 71.4008 50.8687 70.3354 50.6313C68.4408 50.2113 68.0514 50.146 67.6954 50.1953C67.4301 50.2313 67.2288 50.2033 67.0368 50.1047C66.8848 50.026 66.5794 49.962 66.3568 49.962C66.1341 49.962 65.7248 49.8833 65.4474 49.7847C65.1701 49.6873 64.7448 49.6087 64.5008 49.6087C64.2568 49.6087 63.7581 49.55 63.3914 49.4793C63.0248 49.4087 62.2088 49.3073 61.5754 49.2553C60.9421 49.202 60.1461 49.122 59.8061 49.078C59.4648 49.034 58.8861 48.9953 58.5221 48.9913C58.1581 48.9873 57.6794 48.9393 57.4594 48.8847C57.2408 48.83 56.6048 48.778 56.0448 48.7687C55.1248 48.7527 52.2368 48.538 51.3221 48.4167C51.1194 48.39 50.2394 48.35 49.3634 48.3273C48.4874 48.3033 47.0341 48.254 46.1328 48.2167C43.6221 48.1113 38.8888 48.146 37.7701 48.278C36.7741 48.3967 35.9261 48.446 34.0528 48.4967C33.4688 48.51 32.5928 48.5687 32.1061 48.626C31.6194 48.682 30.6648 48.7473 29.9848 48.77C29.3048 48.7927 28.4488 48.874 28.0821 48.95C27.7168 49.026 27.2568 49.0873 27.0621 49.086C26.8674 49.0847 26.4488 49.1193 26.1328 49.166C25.8168 49.21 25.1594 49.2887 24.6728 49.3393C24.1861 49.39 23.2501 49.49 22.5928 49.558C21.9354 49.6287 21.0995 49.7113 20.7341 49.742C20.3688 49.774 19.6928 49.874 19.2301 49.966C18.1595 50.178 16.8808 50.3927 16.0888 50.4953C15.7474 50.5393 15.3421 50.6113 15.1861 50.6593C15.0301 50.706 14.6328 50.77 14.3008 50.8007C13.9701 50.8327 13.4608 50.9113 13.1674 50.978C12.8768 51.0433 12.2781 51.122 11.8408 51.1553C10.0541 51.286 9.76078 51.4513 9.76078 52.3273C9.76078 53.05 9.79945 53.062 11.0301 52.754C11.5688 52.618 12.2101 52.478 12.4555 52.4407C12.7021 52.402 13.3608 52.2647 13.9208 52.1353C14.4794 52.0047 15.2901 51.8407 15.7194 51.77C16.1501 51.698 16.6074 51.586 16.7381 51.5207C16.8674 51.454 17.5314 51.3353 18.2128 51.2567C20.1368 51.03 20.8234 50.9327 21.3981 50.802C21.6901 50.7367 22.2674 50.6593 22.6821 50.63C23.5528 50.5673 25.7928 50.3673 27.6368 50.1847C28.3434 50.1153 29.5181 50.014 30.2475 49.9607C30.9781 49.9073 31.9341 49.8287 32.3714 49.7847C32.8101 49.7433 33.8648 49.7073 34.7168 49.7073C35.5688 49.7073 36.7034 49.6647 37.2394 49.6127C38.7901 49.4633 44.3354 49.394 45.5128 49.5113C46.0728 49.566 47.9648 49.65 49.7168 49.698C52.8074 49.7807 54.4154 49.866 56.6194 50.0553C58.9474 50.258 59.4208 50.3047 60.9114 50.4833C61.7634 50.5847 62.9381 50.706 63.5221 50.7527C64.1061 50.798 64.8634 50.8953 65.2034 50.966C65.5448 51.038 66.3808 51.182 67.0621 51.2873C68.1314 51.454 70.0821 51.9113 72.7248 52.618C74.7648 53.1633 75.8848 53.6193 77.5928 54.5993C78.3474 55.0313 78.4381 55.0567 78.7048 54.914ZM10.6461 54.4287C10.6461 53.7713 10.5221 53.6407 10.1261 53.8807C9.69678 54.1407 9.68745 54.2607 10.0688 54.65C10.5621 55.1553 10.6461 55.122 10.6461 54.4287ZM7.31945 57.554C7.47945 57.0967 6.92745 56.7673 6.55945 57.0993C6.33678 57.302 6.35678 57.438 6.64078 57.6527C6.95945 57.8913 7.21412 57.8553 7.31945 57.554ZM10.7688 59.734C10.7994 59.4633 10.7994 59.1993 10.7674 59.146C10.7341 59.094 10.7154 58.8367 10.7234 58.5767C10.7381 58.1513 10.6034 57.9087 10.5221 58.214C10.1021 59.7993 10.1101 60.2273 10.5634 60.2273C10.6754 60.2273 10.7234 60.1113 10.7688 59.734ZM4.58212 60.198C5.06345 59.4647 5.04612 58.9193 4.53545 58.7313C4.08345 58.5647 3.94345 58.2527 4.28078 58.1647C4.42878 58.126 4.45812 58.0753 4.40478 57.954C4.23945 57.5767 4.25545 57.174 4.44345 57.0033C4.67545 56.794 4.67812 56.5833 4.45145 56.378C4.24212 56.1887 4.22345 56.0673 4.40345 56.0673C4.81278 56.0673 4.79678 54.8327 4.38345 54.5007C4.14478 54.31 3.47812 54.79 3.47812 55.154C3.47812 55.302 3.36612 55.43 3.07945 55.6073C2.28745 56.1007 1.85278 57.1593 2.11412 57.958C2.62612 59.5247 4.13012 60.8887 4.58212 60.198ZM12.0861 60.47C12.1088 60.4087 12.0861 59.518 12.0341 58.4927C11.9741 57.298 11.9701 56.39 12.0234 55.9713C12.2328 54.3153 12.0221 53.1193 11.5781 53.4447C11.3901 53.582 11.3928 53.5553 11.4288 55.4473C11.4408 56.106 11.4248 57.4767 11.3914 58.4953C11.3354 60.222 11.3434 60.354 11.4928 60.4633C11.6954 60.6113 12.0301 60.6153 12.0861 60.47ZM13.7408 60.5873C13.8381 60.402 13.8274 60.098 13.6128 57.0793C13.5368 56.0047 13.4941 54.662 13.5168 54.0927L13.5595 53.058H13.3088C12.8848 53.058 12.8755 53.1287 12.9595 55.3167C13.0035 56.4353 13.0288 57.71 13.0181 58.1473C12.9994 58.7847 13.0088 60.3713 13.0301 60.6913C13.0421 60.8447 13.6501 60.7553 13.7408 60.5873ZM15.4648 59.97C15.4994 59.3887 15.5008 58.6953 15.4661 58.4287C15.4341 58.1607 15.4008 56.7527 15.3928 55.3007L15.3808 52.662L15.0421 52.6873C14.8554 52.702 14.6061 52.7513 14.4861 52.7967L14.2688 52.8807L14.3168 55.426C14.3434 56.826 14.4034 58.3087 14.4514 58.722C14.4994 59.1367 14.5381 59.7607 14.5394 60.11C14.5394 60.842 14.6541 61.0233 15.1101 61.0233H15.4021L15.4648 59.97ZM17.9008 61.1113C17.9301 60.9913 17.9381 59.3967 17.9181 57.5727C17.8674 52.8727 17.8661 52.5047 17.9088 52.31C17.9594 52.0767 17.7261 52.038 17.1101 52.1767C16.2875 52.3647 16.2448 52.4127 16.1874 53.2553C16.1394 53.942 16.0394 55.65 16.0341 55.846C16.0341 55.8953 16.0795 56.3327 16.1355 56.8207C16.1928 57.3073 16.2221 58.222 16.2008 58.8553C16.1808 59.4887 16.1861 60.2847 16.2141 60.6247L16.2661 61.2447L16.6194 61.3007C17.3874 61.422 17.8408 61.3553 17.9008 61.1113ZM27.0674 59.7193C26.9981 57.2713 26.9248 56.242 26.7194 54.918C26.6488 54.4553 26.5381 53.4087 26.4754 52.5927L26.3621 51.1087L25.6941 51.1567C25.3274 51.182 24.7074 51.2433 24.3181 51.2913C23.9288 51.3407 23.0928 51.4407 22.4608 51.514C21.8275 51.5887 21.0314 51.6887 20.6901 51.7367C20.3501 51.786 19.7008 51.858 19.2488 51.8967C18.1301 51.9953 18.1034 52.254 18.7034 57.3073C18.8021 58.1353 18.7661 60.87 18.6515 61.258C18.5355 61.65 21.1808 61.902 26.2554 61.9833L27.1314 61.998L27.0674 59.7193ZM28.7354 61.9073C28.8808 61.762 28.8301 58.8633 28.6621 57.7127C28.5848 57.1793 28.5221 56.5407 28.5221 56.29C28.5221 56.0407 28.4834 55.618 28.4368 55.354C28.1874 53.9447 28.1581 51.6313 28.3834 51.098C28.4781 50.8767 28.1594 50.8167 27.5794 50.946L27.0808 51.0567L27.1541 52.302C27.1954 52.986 27.2368 53.7847 27.2461 54.0767C27.2781 54.99 27.3821 55.822 27.5514 56.51C27.6808 57.038 27.7234 57.6633 27.7608 59.5567C27.7968 61.3527 27.8368 61.958 27.9221 62.0153C28.0621 62.1113 28.6048 62.038 28.7354 61.9073ZM39.3181 59.17C39.3181 59.1247 39.3581 59.062 39.4074 59.0327C39.4554 59.002 39.4954 59.0407 39.4954 59.1153C39.4954 59.1913 39.4554 59.254 39.4074 59.254C39.3581 59.254 39.3181 59.2167 39.3181 59.17ZM48.1314 62.2407C48.1821 62.21 48.7594 62.162 49.4128 62.134C50.0661 62.1073 51.4141 62.0433 52.4061 61.9927C53.3994 61.942 54.3208 61.9247 54.4528 61.9527C54.5861 61.9833 55.5061 61.9247 56.4981 61.826C57.4901 61.7247 58.9181 61.5833 59.6728 61.5087C61.1514 61.3633 62.4381 61.198 64.1861 60.9287C64.7941 60.8327 65.7301 60.7167 66.2661 60.6673C69.3661 60.3833 71.4994 59.9153 73.9381 58.9847C74.5541 58.7487 75.2128 58.5313 75.3968 58.4993C76.1888 58.3687 77.9981 57.4153 78.2594 56.9927C78.7714 56.166 77.3688 54.766 75.4688 54.2087C74.9634 54.0593 73.1661 53.5633 72.7248 53.45C72.1408 53.3007 70.7234 52.93 70.1141 52.766C69.8474 52.6927 69.3314 52.5887 68.9688 52.534C68.6061 52.478 67.8701 52.3153 67.3314 52.1713C66.7941 52.0287 66.0154 51.87 65.6021 51.822C64.6688 51.71 64.0034 51.61 63.0354 51.4313C62.6221 51.354 61.9994 51.2913 61.6528 51.29C61.3061 51.29 60.5501 51.2113 59.9714 51.1153C58.9048 50.9407 57.7208 50.8287 55.2474 50.666C54.4941 50.6167 53.5501 50.5327 53.1528 50.478C52.7541 50.4233 52.1568 50.3993 51.8248 50.4273C51.4928 50.454 50.6834 50.4407 50.0261 50.394C47.7861 50.242 39.9901 50.1913 39.8754 50.3287C39.8061 50.4127 39.7648 51.614 39.7381 54.298C39.7061 57.4993 39.6768 58.2073 39.5621 58.5007L39.4248 58.8553L39.2835 58.5287C39.1635 58.2473 39.1394 57.6367 39.1208 54.258L39.0981 50.3167L38.6994 50.302C37.9728 50.2767 37.1648 50.2887 35.9114 50.3473C35.2301 50.3807 33.9794 50.4287 33.1328 50.454C32.2861 50.4793 31.5288 50.5327 31.4514 50.57C31.3741 50.61 30.8181 50.6473 30.2168 50.658C28.9634 50.6753 28.5488 50.8047 28.6541 51.1407C28.6874 51.2473 28.7501 52.0847 28.7928 53.002C28.8354 53.9207 28.8941 54.746 28.9221 54.8353C28.9741 54.9993 29.0648 56.11 29.2301 58.59C29.4568 62.0033 29.4541 61.998 30.2928 61.998C31.1661 61.998 31.3674 60.47 31.0834 55.9793C30.8541 52.3407 30.8794 50.9353 31.1741 50.9353C31.2754 50.9353 31.3514 51.27 31.3541 51.7313C31.3541 51.95 31.3914 52.3687 31.4368 52.662C31.4821 52.9527 31.5448 53.59 31.5768 54.0767C31.6088 54.5633 31.6514 55.1407 31.6688 55.3607C31.6874 55.5793 31.7154 57.162 31.7328 58.8753C31.7488 60.59 31.7888 62.0193 31.8221 62.0527C32.0528 62.282 47.7688 62.466 48.1314 62.2407ZM48.8674 64.7513C52.0634 64.7353 55.4328 64.5673 57.0181 64.342C57.5288 64.27 58.3261 64.1673 58.7874 64.118C59.2501 64.0673 59.8861 63.9913 60.2034 63.946C60.5194 63.902 61.8141 63.7647 63.0794 63.638C67.2368 63.2247 68.5781 63.0153 69.6354 62.614C69.7594 62.566 69.9834 62.5287 70.1328 62.5287C70.2821 62.5287 70.5488 62.4913 70.7234 62.4447C70.8994 62.398 71.4821 62.258 72.0181 62.1313C75.5128 61.3073 76.6421 60.878 78.0448 59.8393C78.3634 59.6033 78.8701 59.2833 79.1701 59.1287C79.6594 58.8767 79.7621 58.774 80.1328 58.158C80.7128 57.1967 80.7261 57.042 80.4061 55.2273C80.3608 54.9673 80.1514 54.6527 80.0234 54.6527C79.9888 54.6527 79.9634 54.9607 79.9674 55.338C79.9794 56.4473 79.1408 57.61 77.8741 58.2407C77.5248 58.4153 77.0408 58.6727 76.7968 58.8153C76.5528 58.9567 75.7968 59.254 75.1141 59.4753C74.4341 59.6967 73.7568 59.9207 73.6101 59.9713C73.2941 60.0847 73.0981 60.1327 71.4874 60.4953C70.8061 60.6487 70.1328 60.81 69.9914 60.854C69.8501 60.898 69.5914 60.9367 69.4168 60.938C69.2408 60.9393 68.7394 61.0207 68.3008 61.1207C66.2154 61.5967 64.4421 61.874 62.1514 62.0873C61.5914 62.138 60.8341 62.2407 60.4688 62.3153C60.1048 62.3887 59.2088 62.4687 58.4781 62.4927C57.7474 62.5153 56.8314 62.574 56.4421 62.6207C54.8181 62.8207 53.9114 62.8887 52.9914 62.8807C51.0288 62.8633 49.6488 62.89 46.4941 63.0047C44.7194 63.0687 43.1354 63.0913 42.9728 63.0553C42.6154 62.9753 40.3368 63.0327 39.8194 63.1353C39.2794 63.242 33.5408 63.1847 32.1501 63.0593C30.3941 62.9007 30.2754 62.894 27.7701 62.8393C26.5048 62.8127 25.2301 62.7473 24.9381 62.6953C24.6461 62.6447 23.9488 62.5873 23.3888 62.5673C21.6928 62.5113 20.5968 62.4487 20.4634 62.3993C20.2101 62.3073 18.4541 62.0713 17.4808 61.9993C16.9341 61.9607 16.2368 61.886 15.9328 61.8327C14.7634 61.634 13.8541 61.5167 11.8848 61.3127C11.4968 61.2727 11.1301 61.1793 11.0021 61.09C10.5541 60.774 10.2914 60.8767 10.2914 61.366C10.2914 61.978 10.4928 62.1953 11.2381 62.3927C11.5701 62.482 11.9101 62.5887 11.9941 62.6327C12.3488 62.8127 14.2208 63.1593 15.2914 63.242C15.9248 63.2913 16.7008 63.3887 17.0181 63.4553C17.3341 63.5233 17.9514 63.6047 18.3888 63.6353C18.8274 63.666 19.6434 63.7673 20.2034 63.8607C20.7634 63.954 21.5101 64.0327 21.8648 64.0327C22.7234 64.0327 26.1408 64.282 26.7514 64.3887C28.0194 64.6113 42.8221 64.9593 44.9728 64.8193C45.4301 64.7887 47.1821 64.758 48.8674 64.7513ZM7.85812 61.6207C7.47278 61.2887 7.44478 59.9513 7.81412 59.4993C8.03678 59.226 8.13278 59.346 8.25412 60.0513C8.30878 60.3673 8.39012 60.8407 8.43678 61.106C8.55812 61.8113 8.32345 62.0207 7.85812 61.6207ZM5.69012 64.8553C5.24078 64.69 5.10478 64.1753 5.42478 63.8553C5.77145 63.5087 6.19012 63.7793 6.36878 64.466C6.45545 64.7967 6.09412 65.0033 5.69012 64.8553ZM10.4195 66.9127C10.2141 66.5993 10.5488 65.9793 10.9234 65.9793C11.0914 65.9793 11.3541 66.3487 11.3541 66.586C11.3541 67.102 10.6941 67.3327 10.4195 66.9127ZM9.97278 67.8393C9.13145 67.4993 9.38745 64.3873 10.2581 64.3873C10.3994 64.3873 10.4234 64.614 10.2914 64.6967C9.70612 65.058 9.76078 66.7807 10.3781 67.438C10.7208 67.802 10.4768 68.0447 9.97278 67.8393ZM12.0048 68.258C12.2088 66.562 12.0354 64.574 11.6688 64.3967C11.1488 64.1473 9.80878 63.126 9.61812 62.8353C9.01012 61.9073 8.92078 59.5967 9.43945 58.1953C10.1155 56.3713 9.87945 55.5927 8.38745 54.7393C7.94345 54.486 7.92478 54.4593 7.87145 54.0113C7.78612 53.3033 7.79945 53.1913 7.99145 52.97C8.52212 52.3593 7.79545 52.2767 6.90745 52.8473C6.51012 53.1047 6.49812 53.2567 6.84078 53.722C6.98345 53.918 7.16478 54.1647 7.24345 54.27C7.35012 54.4167 7.36212 54.5047 7.29145 54.638C7.13945 54.9193 7.33145 55.2913 7.86745 55.754C8.56745 56.358 8.75812 56.6967 8.82745 57.4553L8.88478 58.0927L8.55545 58.4567C8.04345 59.0233 7.90478 59.0673 6.89412 58.982C5.83278 58.89 5.76478 58.9207 5.42212 59.6273C5.27812 59.9247 5.10745 60.23 5.04478 60.3087C4.62478 60.8153 4.69678 61.1553 5.27545 61.3847C5.43145 61.4447 5.60878 61.5353 5.67278 61.5847C5.86478 61.7313 7.91412 62.6673 8.38878 62.8247C9.29678 63.1247 9.74745 63.59 9.13278 63.59C8.76212 63.59 7.94612 63.35 7.46078 63.0993C7.24078 62.9847 6.68345 62.71 6.22078 62.486C5.11678 61.9513 4.71545 61.7047 4.47012 61.4033C4.13678 60.9967 3.99545 61.29 4.06078 62.2567C4.13412 63.3513 4.19945 63.4447 4.48612 62.8673C4.70478 62.4287 4.85145 62.6153 4.81812 63.294C4.78078 64.0593 4.97678 64.81 5.29012 65.1073C5.68878 65.486 5.44878 65.5873 4.92345 65.2633C4.54345 65.0273 4.32345 65.0873 4.45945 65.3887C4.64878 65.8033 9.03945 68.0153 9.67412 68.0153C9.72612 68.0153 9.92345 68.094 10.1115 68.19C10.4608 68.3687 11.5448 68.706 11.8061 68.7167C11.9128 68.722 11.9634 68.6087 12.0048 68.258ZM68.1554 126.234C69.0994 125.747 70.2128 124.881 70.5288 124.385C70.8754 123.843 71.4768 123.037 71.8088 122.666C72.3034 122.113 72.7474 121.206 72.8128 120.61C72.8434 120.327 72.9101 119.895 72.9594 119.653C73.0088 119.409 73.0848 118.89 73.1288 118.501C73.1714 118.111 73.2488 117.435 73.2968 116.998C73.3461 116.559 73.4261 115.883 73.4741 115.494C73.5234 115.105 73.6621 113.695 73.7861 112.365C73.9088 111.034 74.0301 109.911 74.0541 109.871C74.0794 109.831 74.1568 109.125 74.2248 108.302C74.2954 107.479 74.3928 106.47 74.4434 106.059C74.4941 105.651 74.5981 104.659 74.6714 103.855C74.7474 103.053 74.8461 102.077 74.8928 101.687C75.0048 100.757 75.2261 98.6513 75.2874 97.9273C75.4261 96.294 75.5248 95.3607 75.5994 94.962C75.6861 94.4927 75.8768 92.3393 75.9128 91.378C75.9341 90.862 76.1061 89.042 76.3101 87.2193C76.3501 86.854 76.4874 85.4407 76.6141 84.0767C76.7408 82.714 76.8874 81.3847 76.9394 81.122C76.9928 80.8593 77.0354 80.5007 77.0341 80.326C77.0328 80.15 77.0888 79.7073 77.1581 79.342C77.2261 78.978 77.2834 78.4433 77.2834 78.1567C77.2834 77.87 77.3408 77.1127 77.4114 76.4753C77.5888 74.8673 77.7221 73.4087 77.7701 72.5727C77.7914 72.1833 77.8488 71.666 77.8954 71.422C77.9434 71.178 78.0274 70.402 78.0808 69.6967C78.1354 68.9913 78.2354 67.9953 78.3048 67.4847C78.3741 66.9727 78.4741 65.978 78.5261 65.2727C78.5768 64.566 78.6554 63.75 78.6981 63.4567C78.8208 62.6273 78.9741 60.65 78.9208 60.5967C78.8594 60.534 78.2461 60.8327 77.4874 61.2927C77.1594 61.4927 76.6901 61.71 76.4448 61.7753C76.2008 61.8393 75.7408 61.9727 75.4248 62.0687C75.1074 62.166 74.4114 62.3527 73.8768 62.4847C72.5474 62.8113 72.5141 62.8687 72.4581 65.006C72.4421 65.614 72.3848 66.6113 72.3314 67.2193C72.2781 67.8273 72.1981 68.7633 72.1528 69.298C72.1048 69.8327 72.0261 70.69 71.9754 71.2007C71.9234 71.7127 71.8248 72.846 71.7554 73.722C71.4501 77.5513 71.2554 79.7553 70.9568 82.75C70.8888 83.4313 70.8088 84.466 70.7781 85.0513C70.7488 85.634 70.6634 86.61 70.5901 87.2193C70.5168 87.8273 70.4221 88.9327 70.3808 89.674C70.3368 90.4167 70.2794 91.194 70.2528 91.3993C70.2248 91.6073 70.1434 92.6713 70.0688 93.7673C69.9954 94.862 69.8968 95.998 69.8488 96.2887C69.8008 96.582 69.7208 97.418 69.6701 98.1487C69.6208 98.878 69.5208 100.231 69.4488 101.157C69.3781 102.082 69.2794 103.373 69.2328 104.027C69.1861 104.681 69.1061 105.597 69.0568 106.062C68.9194 107.338 68.7128 109.863 68.5661 112.042C68.4941 113.111 68.3968 114.227 68.3514 114.519C68.3048 114.811 68.2448 115.429 68.2194 115.89C68.1941 116.354 68.0901 117.747 67.9874 118.989C67.8848 120.229 67.7688 121.842 67.7261 122.573C67.5954 124.934 67.3941 126.353 67.1674 126.531C66.7714 126.842 67.2661 126.694 68.1554 126.234ZM67.5928 65.8753C67.5208 65.5927 67.5594 65.3567 67.6808 65.3327C67.8034 65.3087 67.8448 65.7633 67.7381 65.954C67.6608 66.0927 67.6448 66.0833 67.5928 65.8753ZM62.3301 66.074C62.1221 65.6847 62.3608 64.918 62.6901 64.918C62.8754 64.918 62.8821 64.9433 62.8274 65.462C62.7514 66.1847 62.5341 66.4527 62.3301 66.074ZM64.6794 66.434C64.4288 66.0273 64.5888 64.6527 64.8874 64.6527C65.0981 64.6527 65.1594 64.8207 65.1594 65.3887C65.1581 66.186 64.8888 66.7727 64.6794 66.434ZM67.0688 74.77C66.9634 74.038 67.3488 66.726 67.5154 66.294C67.8261 65.486 67.8834 67.478 67.6354 70.4487C67.5914 70.9847 67.5128 72.0793 67.4608 72.8833C67.4088 73.6847 67.3141 74.542 67.2501 74.7847L67.1341 75.2273L67.0688 74.77ZM60.1128 87.438C59.9794 87.2753 59.9634 86.5553 60.0154 82.9713C60.0501 80.5927 60.1114 80.1287 60.3474 80.4487C60.6808 80.898 60.4474 87.8393 60.1128 87.438ZM58.5701 88.6567C58.6048 87.11 58.6421 85.4873 58.6501 85.0473C58.6648 84.2433 58.7274 83.986 58.8834 84.082C59.0354 84.1753 58.8994 90.7953 58.7354 91.3113C58.5501 91.8967 58.5114 91.2713 58.5701 88.6567ZM58.4928 92.5527C58.4194 92.434 58.5288 91.8207 58.6221 91.8207C58.7208 91.8207 58.7194 92.358 58.6194 92.5153C58.5768 92.5833 58.5221 92.5993 58.4928 92.5527ZM58.4341 93.154C58.4341 93.1073 58.4741 93.046 58.5221 93.0153C58.5701 92.9847 58.6101 93.022 58.6101 93.0993C58.6101 93.174 58.5701 93.2353 58.5221 93.2353C58.4741 93.2353 58.4341 93.1993 58.4341 93.154ZM65.7488 91.6993C65.7168 90.7073 65.7114 89.722 65.7354 89.5087C65.7608 89.2953 65.8194 88.3153 65.8648 87.33C65.9448 85.6153 66.0528 84.9993 66.2234 85.2767C66.4408 85.626 66.3781 89.0553 66.1248 90.666C66.0741 90.9847 66.0381 91.6833 66.0448 92.2207C66.0541 93.1607 66.0088 93.5007 65.8728 93.5007C65.8354 93.5007 65.7808 92.69 65.7488 91.6993ZM56.9408 97.1727C56.5954 95.7153 56.7968 88.118 57.1701 88.4927C57.3434 88.666 57.3501 96.802 57.1781 97.262L57.0461 97.6127L56.9408 97.1727ZM56.9528 98.638C56.8594 98.3993 56.9021 98.1047 57.0314 98.1047C57.1688 98.1047 57.2154 98.3513 57.1248 98.61L57.0381 98.8553L56.9528 98.638ZM56.9314 99.4087C56.9301 99.1767 56.9688 98.9887 57.0181 98.9887C57.1301 98.9887 57.1301 99.522 57.0181 99.6967C56.9554 99.7927 56.9314 99.714 56.9314 99.4087ZM53.7368 100.015C53.6794 99.9567 53.7181 96.73 53.7861 96.002C53.8568 95.2593 54.0021 95.0647 54.0234 95.686C54.0314 95.9207 54.0474 96.3513 54.0568 96.6433C54.1048 97.9327 53.8914 100.169 53.7368 100.015ZM61.1674 122.473C61.0794 122.367 61.0794 121.933 61.1621 120.333C61.2208 119.227 61.2688 117.846 61.2688 117.263C61.2674 116.678 61.3208 115.545 61.3861 114.741C61.4528 113.938 61.5141 113.022 61.5221 112.706C61.5301 112.389 61.5968 111.215 61.6701 110.095C61.7448 108.975 61.8408 107.402 61.8848 106.599C61.9301 105.795 62.0061 104.462 62.0554 103.634C62.1048 102.807 62.1874 101.354 62.2381 100.405C62.2888 99.4553 62.3674 98.162 62.4128 97.5287C62.4594 96.8953 62.5208 95.8207 62.5501 95.1393C62.5781 94.4567 62.6581 93.2033 62.7248 92.3513C62.7928 91.4993 62.8741 90.3047 62.9034 89.6967C62.9354 89.0887 63.0154 87.814 63.0834 86.8647C63.1528 85.9153 63.2288 84.5607 63.2554 83.8553C63.2808 83.15 63.3234 82.3927 63.3501 82.174C63.3768 81.9553 63.4114 81.4567 63.4288 81.0673C63.4941 79.6247 63.6688 77.246 63.7488 76.7233C63.7941 76.4287 63.8314 75.766 63.8314 75.2513C63.8314 74.7367 63.8688 73.9247 63.9141 73.4447C63.9594 72.9647 64.0194 72.074 64.0474 71.466C64.2568 66.8687 64.3274 66.3993 64.7554 66.8273C64.9488 67.0207 64.8834 68.6967 64.4541 74.6087C64.3141 76.5353 64.1088 79.6687 64.0088 81.422C63.9594 82.298 63.8794 83.5727 63.8288 84.254C63.7794 84.9353 63.6781 86.4687 63.6034 87.662C63.5288 88.854 63.4288 90.3873 63.3808 91.0673C63.3314 91.75 63.2581 93.1047 63.2154 94.0767C63.1701 95.0513 63.0741 96.6233 62.9981 97.5727C62.8488 99.4567 62.6101 103.431 62.5421 105.183C62.5181 105.791 62.4621 106.549 62.4168 106.865C62.3714 107.181 62.3114 108.038 62.2834 108.767C62.2568 109.498 62.1914 110.283 62.1394 110.515C62.0874 110.747 62.0648 110.994 62.0928 111.062C62.1461 111.203 62.0234 113.986 61.8834 115.802C61.8314 116.459 61.7728 117.574 61.7528 118.281C61.6221 122.597 61.5728 122.961 61.1674 122.473ZM59.3261 124.133C59.2674 124.025 59.2648 123.545 59.3181 122.739C59.3621 122.063 59.4221 120.913 59.4501 120.183C59.4794 119.453 59.5434 118.178 59.5928 117.351C59.6434 116.523 59.7194 114.931 59.7661 113.811C59.8101 112.693 59.8861 111.118 59.9354 110.317C59.9848 109.513 60.0474 108.298 60.0741 107.617C60.1021 106.935 60.1608 105.681 60.2088 104.83C60.3128 102.935 60.4274 100.679 60.6021 97.13C60.6741 95.646 60.7728 93.854 60.8221 93.1487C60.8994 92.0127 61.0461 89.1273 61.1408 86.8207C61.1594 86.3833 61.2141 85.346 61.2648 84.5193C61.3141 83.6913 61.4141 81.7793 61.4874 80.2727C61.5581 78.7633 61.6581 76.89 61.7074 76.1113C61.8088 74.506 62.0461 69.4367 62.0381 69.0327C62.0288 68.5793 62.2194 67.3793 62.3168 67.282C62.7261 66.8727 62.7634 67.734 62.5034 71.6433C62.4074 73.0793 62.2888 75.15 62.2408 76.2447C62.1914 77.3393 62.1101 78.6553 62.0621 79.166C61.9888 79.9487 61.7474 84.1927 61.6648 86.1567C61.5808 88.206 61.4368 90.6953 61.3501 91.6233C61.2941 92.222 61.2714 92.77 61.2994 92.8407C61.3274 92.9127 61.3128 93.2793 61.2674 93.658C61.2221 94.034 61.1634 94.9407 61.1381 95.6687C61.1114 96.3993 61.0314 98.2127 60.9568 99.6967C60.8834 101.181 60.7834 103.333 60.7341 104.475C60.6848 105.618 60.6234 106.634 60.5994 106.731C60.5741 106.83 60.5141 107.805 60.4634 108.899C60.4141 109.995 60.3368 111.649 60.2914 112.573C60.2474 113.498 60.1688 115.289 60.1194 116.555C60.0688 117.821 59.9848 119.573 59.9328 120.449C59.8794 121.325 59.8208 122.445 59.8008 122.938C59.7541 124.129 59.5701 124.591 59.3261 124.133ZM62.1728 125.917C62.0194 125.862 62.0314 125.095 62.1968 124.239C62.2714 123.858 62.4114 122.989 62.5088 122.307C62.6061 121.626 62.7621 120.57 62.8541 119.962C63.0141 118.903 63.1888 116.621 63.1461 116.157C63.1354 116.035 63.1608 115.737 63.2061 115.494C63.2501 115.247 63.2541 114.874 63.2128 114.653C63.1648 114.397 63.1728 114.214 63.2314 114.142C63.3408 114.01 63.5261 112.818 63.6114 111.687C63.6448 111.25 63.7114 110.713 63.7594 110.494C63.9514 109.61 64.0234 109.067 64.1021 107.927C64.2181 106.225 64.3221 105.335 64.5008 104.475C64.9568 102.285 64.8994 104.459 64.4088 107.971C64.3328 108.506 64.2341 109.443 64.1888 110.051C64.0514 111.854 63.7701 114.403 63.6634 114.798C63.6088 114.999 63.5888 115.225 63.6168 115.299C63.6461 115.375 63.6208 115.887 63.5608 116.438C63.5021 116.99 63.4421 117.618 63.4288 117.838C63.4141 118.057 63.3581 118.614 63.3048 119.077C63.2501 119.539 63.1674 120.334 63.1208 120.843C63.0741 121.353 62.9981 121.89 62.9528 122.039C62.9074 122.186 62.8048 123.017 62.7261 123.886C62.5568 125.746 62.4808 126.027 62.1728 125.917ZM59.1341 127.507C58.9368 126.989 59.1554 125.055 59.4314 124.883C59.7501 124.681 59.7914 124.914 59.6781 126.249C59.5448 127.819 59.3888 128.178 59.1341 127.507ZM60.8941 127.685C60.7594 127.147 61.2408 124.21 61.4621 124.21C61.5848 124.21 61.4728 125.926 61.3048 126.643C61.2354 126.935 61.1794 127.278 61.1781 127.407C61.1768 127.699 60.9514 127.919 60.8941 127.685ZM42.6368 131.855C43.6101 131.83 45.4821 131.705 46.7968 131.579C48.1101 131.453 49.5634 131.339 50.0261 131.326C51.3328 131.287 53.4088 130.907 56.5754 130.129C57.1834 129.979 58.1994 129.745 58.8314 129.61C59.4648 129.473 60.3008 129.237 60.6901 129.085C61.0794 128.931 61.7568 128.711 62.1954 128.595C62.8648 128.417 65.5594 127.339 65.9394 127.098C66.0328 127.039 66.0261 126.991 65.9034 126.855C65.7714 126.709 65.7634 126.627 65.8501 126.222C65.9048 125.967 65.9688 125.499 65.9914 125.183C66.0674 124.098 66.4661 119.569 66.6674 117.485C66.7088 117.07 66.8034 115.697 66.8794 114.431C66.9541 113.166 67.0394 112.071 67.0661 112.001C67.0928 111.93 67.1328 111.493 67.1568 111.027C67.1981 110.143 67.4488 107.049 67.6794 104.563C67.7541 103.761 67.8568 102.526 67.9088 101.821C67.9594 101.114 68.0381 100.039 68.0821 99.4313C68.1248 98.8233 68.2034 97.8873 68.2541 97.3513C68.3048 96.8167 68.3848 95.7793 68.4341 95.0513C68.4821 94.3207 68.5581 93.2847 68.6048 92.75C68.7808 90.7487 68.8794 89.51 69.0128 87.6167C69.0901 86.546 69.1888 85.2513 69.2354 84.7407C69.2808 84.2287 69.3581 83.31 69.4061 82.6953C69.4541 82.082 69.5568 80.9273 69.6354 80.1287C69.7128 79.3327 69.8101 78.162 69.8501 77.5287C69.9434 76.0687 70.0981 74.1833 70.1608 73.718C70.2168 73.302 70.5714 69.006 70.6088 68.2793C70.8674 63.378 70.8581 63.2407 70.2768 63.4247L69.8928 63.546L69.8194 64.21C69.7768 64.574 69.7301 65.1327 69.7154 65.4487C69.6994 65.7647 69.6474 66.402 69.5981 66.8647C69.5488 67.3273 69.4434 68.6207 69.3674 69.7407C69.2901 70.8607 69.1848 72.114 69.1341 72.5287C69.0834 72.942 69.0074 73.938 68.9688 74.7407C68.9288 75.5447 68.8528 76.678 68.7994 77.2633C68.7474 77.846 68.6621 78.8833 68.6114 79.5633C68.5608 80.2447 68.4794 81.3007 68.4301 81.9087C68.2634 83.9847 68.0648 86.7287 67.9941 87.9713C67.9554 88.6527 67.8994 89.27 67.8714 89.342C67.8421 89.4153 67.7728 90.2513 67.7181 91.2007C67.6634 92.15 67.6074 93.046 67.5928 93.1913C67.5768 93.338 67.5194 94.134 67.4648 94.962C67.4101 95.7887 67.3474 96.586 67.3248 96.7313C67.3008 96.878 67.2434 97.634 67.1954 98.4127C67.0101 101.401 66.8421 103.738 66.7861 104.121C66.7541 104.339 66.7181 104.758 66.7101 105.051C66.7008 105.342 66.6061 106.617 66.5008 107.883C66.3954 109.149 66.2714 110.821 66.2221 111.599C66.0781 113.946 65.8754 116.762 65.7754 117.787C65.6674 118.907 65.5074 121.126 65.4661 122.081C65.3968 123.659 65.0488 126.193 64.8341 126.67C64.4968 127.426 64.2154 126.535 64.4914 125.586C64.5661 125.326 64.6288 124.799 64.6288 124.418C64.6301 123.814 64.8074 120.697 64.9381 118.989C64.9621 118.671 65.0221 117.877 65.0701 117.219C65.1194 116.561 65.1808 115.785 65.2074 115.494C65.2328 115.201 65.2714 114.683 65.2941 114.342C65.4328 112.269 65.7048 108.515 65.7848 107.573C65.8368 106.963 65.9168 105.949 65.9608 105.317C66.1514 102.587 66.2114 101.755 66.3501 99.874C66.4314 98.778 66.5328 97.6233 66.5768 97.3073C66.6208 96.9913 66.6994 95.9353 66.7514 94.962C66.8034 93.9887 66.9021 92.4953 66.9701 91.6433C67.0381 90.7913 67.1381 89.4567 67.1914 88.678C67.2461 87.8993 67.3274 86.8247 67.3768 86.2887C67.4621 85.318 67.7728 81.3127 68.0354 77.794C68.1114 76.7727 68.2128 75.6167 68.2581 75.2273C68.3461 74.478 68.4834 72.5833 68.6128 70.3167C68.6568 69.5607 68.7168 68.846 68.7461 68.7247C68.7754 68.606 68.8181 68.2073 68.8368 67.8393C68.8928 66.7927 69.0328 65.5553 69.1794 64.7847C69.4061 63.5993 69.3741 63.5313 68.6301 63.6713C68.3994 63.7167 67.9141 63.798 67.5488 63.8553C67.1834 63.9127 66.6461 64.0127 66.3541 64.0793C66.0621 64.146 65.3448 64.2447 64.7621 64.2993C64.1768 64.354 63.2808 64.458 62.7701 64.5313C62.2594 64.6047 61.6808 64.678 61.4874 64.698C61.2914 64.7167 60.8541 64.774 60.5128 64.8233C58.6288 65.0967 54.5861 65.4367 52.5034 65.4967C51.7981 65.5167 50.6834 65.5567 50.0261 65.5847C46.6581 65.73 41.8221 65.7793 40.2474 65.686C39.6154 65.6487 37.8821 65.5993 36.3981 65.5753C34.9128 65.5527 33.3234 65.49 32.8634 65.438C32.4034 65.386 31.4474 65.3527 30.7394 65.3647C28.5794 65.3993 25.3528 65.274 24.6381 65.1247C24.2474 65.0433 23.3914 64.978 22.5141 64.9633C21.7061 64.9487 20.8314 64.8887 20.5741 64.8313C20.3141 64.7727 20.0261 64.7433 19.9341 64.7673C19.8408 64.7913 19.5968 64.774 19.3901 64.726C19.1848 64.6807 18.3568 64.6247 17.5514 64.6033C16.1048 64.5633 15.2994 64.4847 15.0994 64.3607C15.0421 64.326 14.8034 64.258 14.5688 64.2113C14.3341 64.1633 13.7834 64.0473 13.3448 63.9527C12.5461 63.7793 12.1488 63.8313 12.5488 64.054C13.2541 64.4473 13.3888 64.9167 13.3901 66.9633C13.3901 69.2273 13.2608 69.578 12.4088 69.6153C11.8755 69.6393 11.1288 69.4113 8.62745 68.4633C7.97412 68.2167 6.75812 67.6553 6.26612 67.374C6.16745 67.3193 5.92878 67.198 5.73412 67.106C5.53945 67.014 5.22478 66.8633 5.03412 66.7727C4.43545 66.486 4.43278 66.5567 4.89678 70.5367C4.94745 70.9753 5.02478 71.7313 5.06878 72.2193C5.11145 72.706 5.16745 73.1633 5.19278 73.2353C5.24078 73.3727 5.44345 75.6793 5.47812 76.466C5.50212 77.0193 5.75145 78.7847 5.82345 78.8993C5.90878 79.038 5.99812 80.666 5.96345 81.422C5.95145 81.666 5.99945 82.0833 6.07145 82.3513C6.14212 82.618 6.24745 83.3753 6.30345 84.0327C6.36078 84.69 6.46345 85.6847 6.53278 86.2447C6.67412 87.3953 6.93278 89.9727 7.45812 95.494C7.69812 98.0047 7.99945 101.023 8.18078 102.706C8.22612 103.118 8.29545 103.855 8.33545 104.342C8.50345 106.349 8.73012 108.211 8.93012 109.227C9.05945 109.89 9.14212 110.626 9.14212 111.13C9.14345 111.959 9.49945 115.913 9.66745 116.966C9.71678 117.278 9.81678 118.11 9.88745 118.814C10.1248 121.139 10.7048 122.787 11.6488 123.818C12.2074 124.427 15.0288 126.43 16.1328 126.999C17.5475 127.73 18.3208 128.103 18.4341 128.105C18.5061 128.107 18.7448 128.193 18.9648 128.295C19.1834 128.399 19.5621 128.513 19.8048 128.55C20.0488 128.585 20.5661 128.734 20.9554 128.882C21.3448 129.027 21.9621 129.246 22.3274 129.367C22.6928 129.487 23.2901 129.687 23.6555 129.811C24.3208 130.037 26.1808 130.431 28.0794 130.75C28.6394 130.843 29.2168 130.963 29.3621 131.015C29.7754 131.165 33.2821 131.626 34.8048 131.733C36.5474 131.855 40.2528 131.987 40.6021 131.941C40.7474 131.921 41.6634 131.883 42.6368 131.855ZM43.9208 135.042C44.0421 135.013 44.8581 134.954 45.7341 134.911C48.3008 134.785 50.3701 134.582 52.9021 134.209C53.2434 134.158 53.9208 134.078 54.4074 134.033C54.8928 133.986 55.5314 133.889 55.8234 133.815C56.1141 133.742 56.6528 133.618 57.0181 133.542C57.3834 133.465 58.2981 133.227 59.0528 133.017C59.8074 132.805 60.8528 132.526 61.3768 132.398C61.8981 132.271 62.9341 131.935 63.6768 131.653C64.4194 131.371 65.2461 131.07 65.5128 130.985C67.1354 130.469 68.8821 129.661 69.4514 129.163C69.5488 129.078 69.8034 128.921 70.0168 128.814C70.2301 128.706 70.6328 128.393 70.9114 128.117C71.1901 127.842 71.6354 127.438 71.8994 127.219C72.5208 126.707 73.3114 125.821 73.4888 125.438C73.5648 125.274 73.7541 124.881 73.9088 124.563C74.1834 124.003 74.2728 123.501 74.0994 123.501C74.0514 123.501 73.9461 123.611 73.8661 123.745C73.3928 124.525 73.0341 125.022 72.5981 125.501C72.3274 125.798 71.9821 126.197 71.8301 126.389C71.6781 126.581 71.3208 126.915 71.0341 127.133C70.7488 127.35 70.1421 127.818 69.6861 128.17C68.9994 128.702 68.8034 128.811 68.5314 128.811C68.3154 128.811 68.0528 128.906 67.7674 129.089C67.5261 129.241 67.1834 129.417 67.0048 129.479C66.8274 129.543 66.4061 129.715 66.0701 129.862C65.7341 130.009 65.1981 130.171 64.8781 130.222C64.5568 130.275 63.9141 130.454 63.4474 130.622C62.5594 130.945 62.4034 131.017 61.8661 131.363C61.6301 131.515 61.4528 131.563 61.2474 131.534C61.0874 131.51 60.8381 131.527 60.6914 131.571C60.3688 131.67 58.5221 131.727 58.5221 131.639C58.5221 131.605 58.6714 131.535 58.8541 131.486C59.0368 131.435 59.3061 131.351 59.4514 131.298C60.3581 130.97 61.7528 130.582 62.0261 130.582C63.2848 130.582 68.3501 128.314 69.7008 127.145C70.0194 126.869 70.5008 126.503 70.7714 126.333C71.2608 126.023 72.0888 125.177 72.5034 124.561C72.6261 124.382 72.9208 123.946 73.1594 123.595C73.6168 122.919 73.7861 122.362 73.6901 121.846C73.6034 121.385 73.5034 121.419 73.2048 122.015C73.0501 122.322 72.7408 122.778 72.5154 123.026C71.9781 123.623 71.6194 124.121 71.6194 124.273C71.6194 124.438 70.8874 125.205 70.2994 125.657C68.8341 126.779 68.0461 127.239 66.7781 127.706C66.3301 127.87 65.6688 128.146 65.3088 128.319C64.9488 128.493 64.5994 128.635 64.5301 128.635C64.4621 128.637 64.1874 128.739 63.9208 128.867C62.3141 129.626 54.4434 131.661 52.6568 131.777C52.1314 131.81 51.4941 131.893 51.2408 131.961C50.9874 132.029 50.5994 132.085 50.3808 132.086C50.1608 132.087 49.7434 132.146 49.4514 132.218C49.1594 132.287 48.6808 132.346 48.3888 132.349C48.0981 132.351 47.5194 132.39 47.1061 132.438C43.6248 132.829 34.0808 132.654 32.5168 132.17C32.2061 132.075 31.6914 131.997 31.3661 131.995C31.0434 131.993 30.4208 131.933 29.9821 131.861C29.5448 131.789 28.9661 131.695 28.6994 131.651C28.4314 131.607 28.1088 131.531 27.9821 131.482C27.8554 131.433 27.2581 131.309 26.6541 131.206C26.0501 131.103 25.2181 130.943 24.8048 130.85C24.3914 130.758 23.9128 130.657 23.7435 130.626C23.1781 130.526 22.2901 130.303 21.7514 130.127C21.4608 130.031 20.9461 129.894 20.6114 129.825C20.2754 129.753 19.8314 129.618 19.6248 129.527C19.4168 129.435 19.0141 129.293 18.7301 129.211C17.4821 128.85 15.3754 127.678 13.0048 126.023C11.0981 124.693 9.90078 123.102 9.50212 121.367C9.24745 120.258 9.24212 120.243 9.13812 120.407C8.91545 120.758 9.10878 122.781 9.39412 123.095C9.48612 123.197 9.61012 123.431 9.67012 123.615C9.72878 123.801 9.98612 124.178 10.2421 124.457C10.4968 124.734 10.7421 125.026 10.7861 125.103C10.9501 125.389 12.7955 127.046 13.3928 127.442C13.7315 127.667 14.0088 127.889 14.0088 127.934C14.0088 128.062 13.7128 128.029 13.4914 127.873C13.3794 127.794 12.9648 127.553 12.5688 127.333C11.6088 126.802 10.1875 125.473 9.53545 124.498C9.26612 124.097 9.01145 123.767 8.96745 123.767C8.58345 123.767 8.99545 125.029 9.67945 125.949C9.86612 126.199 10.0448 126.509 10.0768 126.637C10.1461 126.914 10.8101 127.503 11.3328 127.75C11.5395 127.847 11.8608 128.079 12.0461 128.265C12.2301 128.449 12.5581 128.701 12.7741 128.825C12.9914 128.946 13.3275 129.142 13.5221 129.255C14.1901 129.649 15.8261 130.466 16.1781 130.582C16.3714 130.646 16.8688 130.854 17.2821 131.046C18.1328 131.439 19.0354 131.775 19.4954 131.867C19.6661 131.901 20.0048 132.025 20.2474 132.141C20.6954 132.354 23.3368 133.059 23.6888 133.059C23.7941 133.059 24.3168 133.161 24.8514 133.282C25.3848 133.405 26.3208 133.607 26.9288 133.729C27.5381 133.851 28.3541 134.029 28.7434 134.122C29.1328 134.215 30.1674 134.353 31.0448 134.429C31.9208 134.503 32.9754 134.626 33.3888 134.702C34.1421 134.839 36.1274 134.974 38.6981 135.061C39.4528 135.087 40.0821 135.121 40.0981 135.137C40.1475 135.186 43.6834 135.098 43.9208 135.042ZM41.6194 136.041C41.5954 136.015 40.6394 135.969 39.4954 135.935C38.3514 135.902 37.3915 135.859 37.3621 135.841C37.3315 135.823 36.6248 135.787 35.7914 135.763C34.9581 135.738 34.0261 135.678 33.7221 135.63C33.4168 135.581 32.8688 135.518 32.5048 135.491C31.4074 135.407 29.4834 135.166 27.9021 134.915C25.3261 134.505 25.3794 134.518 22.0741 133.534C21.6661 133.411 21.1688 133.323 20.9674 133.334C20.5488 133.358 20.0501 133.215 19.5394 132.921C19.3448 132.809 18.8874 132.637 18.5221 132.539C17.3114 132.215 15.6181 131.459 14.7168 130.842C14.5955 130.759 14.0888 130.485 13.5915 130.231C13.0941 129.979 12.4354 129.565 12.1274 129.314C11.8194 129.062 11.4288 128.761 11.2608 128.645C11.0928 128.527 10.8021 128.249 10.6141 128.025C10.4261 127.801 10.0701 127.475 9.82345 127.302C9.57545 127.129 9.24345 126.79 9.08478 126.55C8.92745 126.31 8.69678 125.989 8.57278 125.837C7.91412 125.027 7.74345 124.278 7.84478 122.642C7.97145 120.589 8.13145 119.778 8.51945 119.214C8.76345 118.859 9.02478 117.919 8.92478 117.757C8.86878 117.666 8.71012 116.541 8.66078 115.89C8.64478 115.671 8.58345 114.995 8.52612 114.387C8.46745 113.778 8.40612 113.102 8.38878 112.883C8.33278 112.186 8.17678 110.566 8.07945 109.697C8.02878 109.234 7.90878 108.059 7.81412 107.086C7.71812 106.111 7.60078 104.978 7.55278 104.563C7.50612 104.15 7.44212 103.473 7.41278 103.059C7.38212 102.646 7.29812 101.81 7.22478 101.201C7.07545 99.9647 6.98612 99.0913 6.85012 97.5287C6.76345 96.5313 6.56212 94.4393 6.39945 92.838C6.31012 91.9713 6.09145 89.698 5.94612 88.1473C5.88745 87.5153 5.80745 86.758 5.77012 86.466C5.69012 85.8473 5.64212 85.4233 5.45945 83.678C5.36212 82.7593 5.35012 82.326 5.41545 82.154C5.48612 81.9673 5.46878 81.7927 5.33812 81.386C5.24612 81.0967 5.14612 80.4913 5.11678 80.042C5.08612 79.5913 5.03945 79.1873 5.01278 79.1433C4.98478 79.098 4.92612 78.6167 4.88345 78.074C4.79012 76.9233 4.74878 76.506 4.61678 75.3607C4.56212 74.8967 4.48612 74.0607 4.44612 73.5007C4.40612 72.942 4.30745 72.1247 4.22745 71.6873C4.14745 71.25 4.06745 70.5127 4.05145 70.0513C4.03412 69.5887 3.98078 69.03 3.93278 68.8113C3.88345 68.5927 3.81812 68.074 3.78612 67.662C3.69812 66.526 3.50078 65.026 3.42078 64.898C3.38345 64.8353 3.34345 64.3673 3.33278 63.8553C3.32345 63.3447 3.28745 62.586 3.25278 62.17L3.18878 61.4153L2.40345 60.578C1.53545 59.654 0.999451 58.7487 0.999451 58.202C0.999451 57.214 1.37278 56.138 1.92745 55.5207C2.13545 55.2887 2.39412 54.91 2.50212 54.6793C2.61145 54.4473 2.87945 54.1033 3.09678 53.91C3.31412 53.7193 3.52612 53.4727 3.56878 53.3633C3.62212 53.222 3.80612 53.1113 4.21412 52.9767C4.52745 52.8713 4.85678 52.706 4.94745 52.6073C5.03678 52.5073 5.39278 52.2967 5.73945 52.1367C6.13278 51.954 6.44078 51.7433 6.56345 51.57C6.69412 51.3887 6.86345 51.2767 7.07278 51.2367C7.41145 51.1727 7.53678 51.002 7.38212 50.814C7.32212 50.742 7.30345 50.5407 7.33678 50.298C7.37945 49.9967 7.34612 49.7967 7.20345 49.4727C6.99545 49.0047 6.99412 40.2033 7.20212 38.9433C7.24878 38.6527 7.32212 37.8553 7.36345 37.174C7.40478 36.4927 7.48612 35.818 7.54212 35.674C7.59945 35.5327 7.72212 34.7953 7.81678 34.038C8.35945 29.6567 9.57945 25.026 11.0008 21.9527C11.0914 21.758 11.2688 21.2753 11.3954 20.8807C11.5221 20.4847 11.7035 20.09 11.7995 20.002C11.8968 19.9153 11.9728 19.7313 11.9728 19.5887C11.9728 19.4473 12.0101 19.354 12.0541 19.3833C12.0995 19.41 12.7021 18.526 13.3928 17.418C14.0835 16.3113 14.7435 15.302 14.8595 15.178C14.9755 15.054 15.0714 14.9033 15.0714 14.8433C15.0714 14.5673 15.7421 13.7433 16.2568 13.3873C16.3834 13.2993 16.4888 13.1407 16.4901 13.0327C16.4954 12.6353 18.0181 10.8887 18.6328 10.5713C18.8155 10.478 18.9648 10.3473 18.9648 10.282C18.9648 10.2193 19.2034 9.95668 19.4954 9.70334C19.7874 9.44868 20.0261 9.19267 20.0261 9.13401C20.0261 8.97534 20.9208 8.13268 21.1674 8.05801C21.2848 8.02334 21.5435 7.84468 21.7435 7.66201C21.9421 7.47935 22.3248 7.22067 22.5928 7.08734C22.8608 6.954 23.2594 6.69801 23.4781 6.51535C23.6968 6.33401 23.9954 6.11001 24.1408 6.01934C24.4421 5.83001 25.7514 4.86334 26.2261 4.48201C27.1688 3.72201 28.3968 3.06468 29.6248 2.66601C29.9874 2.54734 30.4354 2.37001 30.6194 2.27401C30.8048 2.17535 31.3741 1.97001 31.8848 1.81668C32.3954 1.66468 32.9341 1.48201 33.0794 1.41401C33.3274 1.29801 33.8714 1.13134 34.6501 0.931341C36.4314 0.474008 40.9568 0.195346 43.2568 0.403346C45.7021 0.623346 46.2314 0.682007 46.8848 0.80334C47.2741 0.87534 47.9514 0.992673 48.3888 1.06334C49.1141 1.18067 51.8061 2.00467 52.0181 2.17267C52.0661 2.21267 52.4648 2.36868 52.9021 2.52201C53.3408 2.67401 53.9381 2.91534 54.2301 3.05668C54.5221 3.19801 54.9994 3.41801 55.2914 3.54601C55.5848 3.67267 56.0194 3.90468 56.2594 4.05934C56.4968 4.21534 57.0261 4.52068 57.4341 4.74068C58.0914 5.09534 58.4861 5.35268 60.0394 6.44334C60.9488 7.08068 61.4608 7.51001 61.6914 7.82868C61.8248 8.01135 62.2834 8.47801 62.7154 8.86335C63.6768 9.72468 64.7074 10.9353 64.8608 11.382C64.9248 11.566 65.2888 12.1273 65.6701 12.6313C66.5741 13.8207 67.1474 14.798 67.8648 16.378C68.7301 18.278 68.8914 18.6273 69.1408 19.1113C69.2861 19.398 69.4074 19.6873 69.4074 19.7567C69.4074 19.8247 69.5101 20.0833 69.6381 20.334C69.7648 20.5847 69.9288 20.9913 69.9994 21.238C70.0728 21.486 70.3448 22.2447 70.6048 22.926C71.1674 24.41 71.7088 26.1087 71.7088 26.4007C71.7088 26.518 71.8048 26.898 71.9221 27.2473C72.0394 27.5967 72.1608 28.1207 72.1928 28.4127C72.3061 29.4407 72.5088 30.4967 73.0034 32.6167C73.0768 32.934 73.1754 33.65 73.2221 34.21C73.2701 34.77 73.3448 35.546 73.3901 35.9353C73.6768 38.3793 73.9274 40.8567 73.9781 41.7473C74.0501 43.018 74.0888 43.1033 74.4474 42.7353C75.4448 41.7167 76.6608 42.9953 76.6621 45.0687C76.6634 45.43 76.7314 45.6553 76.9741 46.0953C77.4008 46.8727 77.3488 47.438 76.7168 48.9193C76.5274 49.3607 76.5394 50.034 76.7448 50.6513C76.8368 50.9287 76.9554 51.3167 77.0074 51.51C77.0941 51.8287 77.1701 51.9007 77.7448 52.214C78.0981 52.4047 78.7234 52.774 79.1354 53.0313C79.5488 53.29 79.9314 53.5007 79.9874 53.5007C80.1381 53.5007 80.8981 54.194 81.1901 54.5967C81.6888 55.2847 81.4341 57.082 80.6034 58.722C80.4768 58.9713 80.3808 59.3113 80.3808 59.5113C80.3808 59.7687 80.3181 59.9313 80.1528 60.11C79.9834 60.2927 79.9381 60.4127 79.9808 60.5793C80.1181 61.1393 80.1354 61.734 80.0154 61.878C79.9328 61.9767 79.8621 62.5233 79.7914 63.6247C79.6861 65.3007 79.5648 66.0727 79.3621 66.3887C79.2674 66.5353 79.2621 66.6473 79.3354 66.8887C79.4274 67.1873 79.3274 67.7287 79.0461 68.4407C79.0008 68.5513 78.9648 68.89 78.9648 69.1927C78.9648 69.4953 78.9248 69.8807 78.8768 70.0513C78.8274 70.2207 78.7488 71.042 78.7008 71.878C78.6541 72.714 78.5741 73.7687 78.5248 74.2233C78.4754 74.678 78.3968 75.4487 78.3501 75.9353C78.3048 76.422 78.2061 77.318 78.1314 77.9273C77.8448 80.2847 77.7208 81.4687 77.6368 82.662C77.5888 83.342 77.5288 83.9993 77.5048 84.1207C77.4821 84.2433 77.4221 84.7607 77.3728 85.2727C77.3234 85.782 77.2234 86.618 77.1528 87.13C77.0808 87.6407 76.9608 88.8753 76.8848 89.874C76.7514 91.6673 76.4768 94.382 76.3101 95.582C76.2621 95.922 76.1621 97.038 76.0888 98.0593C76.0141 99.082 75.9168 100.257 75.8741 100.67C75.8288 101.083 75.7128 102.178 75.6114 103.105C75.5128 104.029 75.3261 105.821 75.1981 107.086C75.0701 108.351 74.9301 109.725 74.8834 110.139C74.8381 110.553 74.7821 111.289 74.7581 111.777C74.7341 112.263 74.6754 112.899 74.6288 113.193C74.5514 113.667 74.3821 115.251 74.3194 116.071C74.3061 116.243 74.2501 116.603 74.1941 116.87C73.9648 117.973 74.0221 118.978 74.3448 119.549C74.6994 120.171 74.9781 121.03 74.9861 121.51C74.9888 121.706 75.0488 122.023 75.1168 122.219C75.5461 123.406 74.7274 125.547 73.2608 127.079C72.8448 127.514 72.5034 127.899 72.5034 127.935C72.5034 127.971 72.3554 128.093 72.1728 128.203C71.9901 128.315 71.5581 128.651 71.2154 128.95C70.4394 129.622 69.4781 130.202 68.8701 130.362C68.5928 130.435 68.2954 130.593 68.1288 130.754C67.8528 131.021 67.1861 131.285 65.3208 131.865C64.8968 131.997 64.3514 132.231 64.1074 132.389C63.7168 132.642 62.8714 132.959 61.2661 133.461C60.7554 133.621 59.7008 133.851 58.4341 134.081C58.0194 134.155 57.3234 134.295 56.8848 134.393C55.6034 134.678 53.1168 135.115 52.6368 135.141C52.2128 135.165 50.3341 135.442 49.3194 135.633C49.0501 135.682 48.2541 135.741 47.5488 135.763C46.8421 135.783 45.6074 135.843 44.8061 135.895C42.2808 136.058 41.6648 136.087 41.6194 136.041Z" stroke="white" stroke-width="0.666667" stroke-miterlimit="10"/>
</svg>
